<svg height="0" width="0" style="display: block; pointer-events: none;">

	<!-- Logo Icon, viewBox="0 0 213.4 213.5" -->
	
	<g id="logo-svg">
		<circle fill="#E6E7E8" cx="107" cy="107" r="106.8"/>
		<polygon fill="#880D53" points="43,111.8 28.5,111.8 58,174.5 72.4,174.5 	"/>
		<polygon fill="#A70064" points="72.5,174.5 58.1,174.5 99.9,84.9 107.1,100.4 	"/>
		<polygon fill="#0D2240" points="171.1,100.9 185.6,100.9 156.1,38.2 141.7,38.2 	"/>
		<polygon fill="#003764" points="141.6,38.2 156,38.2 114.2,127.8 107,112.4 	"/>
		<polygon fill="#004A97" points="72.4,38.2 114.2,127.8 107,143.3 58,38.2 	"/>
		<polygon fill="#CC007B" points="141.7,174.5 99.9,84.9 107.1,69.4 156.1,174.5 	"/>
		<polygon fill="#005DA6" points="43,100.9 28.5,100.9 58,38.2 72.4,38.2 	"/>
		<polygon fill="#E70095" points="171.1,111.8 185.6,111.8 156.1,174.5 141.7,174.5 	"/>
	</g>

</svg>