<svg height="0" width="0" style="display: block; pointer-events: none;">

	<!-- Logo Icon, viewBox="0 0 213.4 213.5" -->
	
	<g id="logo-svg">
		<circle fill="#E6E7E8" cx="107" cy="107" r="106.8"/>
		<polygon fill="#880D53" points="43,111.8 28.5,111.8 58,174.5 72.4,174.5 	"/>
		<polygon fill="#A70064" points="72.5,174.5 58.1,174.5 99.9,84.9 107.1,100.4 	"/>
		<polygon fill="#0D2240" points="171.1,100.9 185.6,100.9 156.1,38.2 141.7,38.2 	"/>
		<polygon fill="#003764" points="141.6,38.2 156,38.2 114.2,127.8 107,112.4 	"/>
		<polygon fill="#004A97" points="72.4,38.2 114.2,127.8 107,143.3 58,38.2 	"/>
		<polygon fill="#CC007B" points="141.7,174.5 99.9,84.9 107.1,69.4 156.1,174.5 	"/>
		<polygon fill="#005DA6" points="43,100.9 28.5,100.9 58,38.2 72.4,38.2 	"/>
		<polygon fill="#E70095" points="171.1,111.8 185.6,111.8 156.1,174.5 141.7,174.5 	"/>
	</g>
	
	<!-- Facebook Icon, viewBox="0 0 389.1 337" -->
	
	<g id="fb-svg">
	
		<path fill="#3C5A99" d="M205.2,146.7v-18.4c0-8.4,2.3-14.1,14.3-14.1l15.3,0V88.4c-2.6-0.4-11.7-1.1-22.3-1.1
		c-22.1,0-37.2,13.5-37.2,38.2v21.3h-24.9v28.9h24.9v74.1h29.8v-74.1h24.9l3.7-28.9H205.2z"/>
		<polygon fill="#3C5A99" points="99,320 90.3,325 97.3,337 111.2,337 111.2,327 103.1,327 	"/>
		<rect x="66" y="285.9" transform="matrix(-0.5 -0.866 0.866 -0.5 -137.2568 502.4682)" fill="#3C5A99" width="20.8" height="10"/>
		
			<rect x="42.6" y="245.2" transform="matrix(-0.5 -0.866 0.866 -0.5 -137.2575 421.2315)" fill="#3C5A99" width="20.8" height="10"/>
		
			<rect x="19.1" y="204.6" transform="matrix(-0.5 -0.866 0.866 -0.5 -137.2524 340.0018)" fill="#3C5A99" width="20.8" height="10"/>
		<polygon fill="#3C5A99" points="6.9,156.5 0,168.5 6.9,180.5 15.6,175.5 11.5,168.5 15.6,161.5 	"/>
		<rect x="24.5" y="117" transform="matrix(0.866 0.5 -0.5 0.866 67.6373 2.3046)" fill="#3C5A99" width="10" height="20.8"/>
		<rect x="71.4" y="35.7" transform="matrix(-0.866 -0.5 0.5 -0.866 119.5382 124.2858)" fill="#3C5A99" width="10" height="20.8"/>
		<rect x="48" y="76.3" transform="matrix(-0.866 -0.5 0.5 -0.866 55.469 188.3547)" fill="#3C5A99" width="10" height="20.8"/>
		<polygon fill="#3C5A99" points="90.3,12 99,17 103.1,10 111.2,10 111.2,0 97.3,0 	"/>
		<rect x="137.2" fill="#3C5A99" width="20.8" height="10"/>
		<rect x="231" fill="#3C5A99" width="20.8" height="10"/>
		<rect x="184.1" fill="#3C5A99" width="20.8" height="10"/>
		<polygon fill="#3C5A99" points="277.9,0 277.9,10 286.1,10 290.1,17 298.8,12 291.8,0 	"/>
		<rect x="325.7" y="81.7" transform="matrix(-0.5 -0.866 0.866 -0.5 429.0823 421.2332)" fill="#3C5A99" width="20.8" height="10"/>
		
			<rect x="349.2" y="122.4" transform="matrix(-0.5 -0.866 0.866 -0.5 429.1087 502.4636)" fill="#3C5A99" width="20.8" height="10"/>
		<rect x="302.3" y="41.1" transform="matrix(-0.5 -0.866 0.866 -0.5 429.0995 339.9919)" fill="#3C5A99" width="20.8" height="10"/>
		<polygon fill="#3C5A99" points="382.2,156.5 373.5,161.5 377.6,168.5 373.5,175.5 382.2,180.5 389.1,168.5 	"/>
		
			<rect x="307.7" y="280.4" transform="matrix(-0.866 -0.5 0.5 -0.866 438.0674 699.0928)" fill="#3C5A99" width="10" height="20.8"/>
		<rect x="354.6" y="199.2" transform="matrix(-0.866 -0.5 0.5 -0.866 566.2052 570.954)" fill="#3C5A99" width="10" height="20.8"/>
		
			<rect x="331.1" y="239.8" transform="matrix(-0.8661 -0.4999 0.4999 -0.8661 502.1875 635.0018)" fill="#3C5A99" width="10" height="20.8"/>
		<polygon fill="#3C5A99" points="286.1,327 277.9,327 277.9,337 291.8,337 298.8,325 290.1,320 	"/>
		<rect x="231" y="327" fill="#3C5A99" width="20.8" height="10"/>
		<rect x="184.1" y="327" fill="#3C5A99" width="20.8" height="10"/>
		<rect x="137.2" y="327" fill="#3C5A99" width="20.8" height="10"/>
	
	</g>
	
	<!-- Twitter Icon, viewBox="0 0 389.1 337" -->
	
	<g id="tw-svg">
	
		<path fill="#2CAAE1" d="M294.6,106.3c-7.4,3.3-15.3,5.5-23.6,6.5c8.5-5.1,15-13.1,18-22.7c-7.9,4.7-16.7,8.1-26.1,10
			c-7.5-8-18.1-13-30-13c-22.7,0-41,18.4-41,41c0,3.2,0.4,6.3,1.1,9.4c-34.1-1.7-64.3-18-84.6-42.9c-3.5,6.1-5.6,13.1-5.6,20.6
			c0,14.2,7.2,26.8,18.3,34.2c-6.7-0.2-13.1-2.1-18.6-5.1c0,0.2,0,0.3,0,0.5c0,19.9,14.1,36.5,32.9,40.2c-3.4,0.9-7.1,1.4-10.8,1.4
			c-2.6,0-5.2-0.3-7.7-0.7c5.2,16.3,20.4,28.2,38.3,28.5c-14,11-31.7,17.6-51,17.6c-3.3,0-6.6-0.2-9.8-0.6
			c18.2,11.6,39.7,18.4,62.9,18.4c75.5,0,116.7-62.5,116.7-116.7c0-1.8,0-3.5-0.1-5.3C282.2,121.8,289.1,114.6,294.6,106.3z"/>
		<polygon class="bird" fill="#2CAAE1" points="99,320 90.3,325 97.3,337 111.2,337 111.2,327 103.1,327 	"/>
		<rect x="66" y="285.9" transform="matrix(-0.5 -0.866 0.866 -0.5 -137.2564 502.4674)" fill="#2CAAE1" width="20.8" height="10"/>
		<rect x="19.1" y="204.6" transform="matrix(-0.5 -0.866 0.866 -0.5 -137.252 340.0011)" fill="#2CAAE1" width="20.8" height="10"/>
		<rect x="42.6" y="245.2" transform="matrix(-0.5 -0.866 0.866 -0.5 -137.257 421.2307)" fill="#2CAAE1" width="20.8" height="10"/>
		<polygon fill="#2CAAE1" points="6.9,156.5 0,168.5 6.9,180.5 15.6,175.5 11.5,168.5 15.6,161.5 	"/>
		<rect x="71.4" y="35.7" transform="matrix(-0.866 -0.5 0.5 -0.866 119.5382 124.2858)" fill="#2CAAE1" width="10" height="20.8"/>
		<rect x="24.5" y="117" transform="matrix(0.866 0.5 -0.5 0.866 67.6373 2.3046)" fill="#2CAAE1" width="10" height="20.8"/>
		<rect x="48" y="76.3" transform="matrix(-0.866 -0.5 0.5 -0.866 55.469 188.3547)" fill="#2CAAE1" width="10" height="20.8"/>
		<polygon fill="#2CAAE1" points="103.1,10 111.2,10 111.2,0 97.3,0 90.3,12 99,17 	"/>
		<rect x="137.2" fill="#2CAAE1" width="20.8" height="10"/>
		<rect x="184.1" fill="#2CAAE1" width="20.8" height="10"/>
		<rect x="231" fill="#2CAAE1" width="20.8" height="10"/>
		<polygon fill="#2CAAE1" points="277.9,0 277.9,10 286.1,10 290.1,17 298.8,12 291.8,0 	"/>
		
			<rect x="349.2" y="122.4" transform="matrix(-0.5 -0.866 0.866 -0.5 429.1087 502.4636)" fill="#2CAAE1" width="20.8" height="10"/>
		<rect x="302.3" y="41.1" transform="matrix(-0.5 -0.866 0.866 -0.5 429.0995 339.9919)" fill="#2CAAE1" width="20.8" height="10"/>
		<rect x="325.7" y="81.7" transform="matrix(-0.5 -0.866 0.866 -0.5 429.0823 421.2332)" fill="#2CAAE1" width="20.8" height="10"/>
		<polygon fill="#2CAAE1" points="382.2,156.5 373.5,161.5 377.6,168.5 373.5,175.5 382.2,180.5 389.1,168.5 	"/>
		
			<rect x="307.7" y="280.4" transform="matrix(-0.866 -0.5 0.5 -0.866 438.0665 699.0926)" fill="#2CAAE1" width="10" height="20.8"/>
		
			<rect x="331.1" y="239.8" transform="matrix(-0.866 -0.5 0.5 -0.866 502.1353 635.0236)" fill="#2CAAE1" width="10" height="20.8"/>
		<rect x="354.6" y="199.2" transform="matrix(-0.866 -0.5 0.5 -0.866 566.205 570.9549)" fill="#2CAAE1" width="10" height="20.8"/>
		<polygon fill="#2CAAE1" points="286.1,327 277.9,327 277.9,337 291.8,337 298.8,325 290.1,320 	"/>
		<rect x="137.2" y="327" fill="#2CAAE1" width="20.8" height="10"/>
		<rect x="231" y="327" fill="#2CAAE1" width="20.8" height="10"/>
		<rect x="184.1" y="327" fill="#2CAAE1" width="20.8" height="10"/>
	
	</g>

</svg>