<?xml version="1.0" encoding="utf-8"?>
<!-- Generator: Adobe Illustrator 18.0.0, SVG Export Plug-In . SVG Version: 6.00 Build 0)  -->
<!DOCTYPE svg PUBLIC "-//W3C//DTD SVG 1.1//EN" "http://www.w3.org/Graphics/SVG/1.1/DTD/svg11.dtd">
<svg version="1.1" id="Layer_1" xmlns="http://www.w3.org/2000/svg" xmlns:xlink="http://www.w3.org/1999/xlink" x="0px" y="0px"
	 viewBox="49.2 275.8 562.8 324.4" enable-background="new 49.2 275.8 562.8 324.4" xml:space="preserve">
<g>
	<rect x="469.8" y="597.4" fill="#13222D" width="5.3" height="2.8"/>
	<path fill="#13222D" d="M546.3,597.4h-12v2.8h12V597.4z M522.7,597.4h-12v2.8h12V597.4z M498.8,597.4h-12v2.8h12V597.4z"/>
	<rect x="558.3" y="597.4" fill="#13222D" width="5.3" height="2.8"/>
</g>
<path fill="#13222D" d="M579.2,574.3l-2.5-1.4l-5.8,10.3l2.5,1.4L579.2,574.3z M591.1,553.7l-2.5-1.4l-5.8,10.3l2.5,1.4L591.1,553.7
	z M603.1,533.1l-2.5-1.4l-5.8,10.3l2.5,1.4L603.1,533.1z"/>
<rect x="563.3" y="593.8" transform="matrix(-0.866 -0.5001 0.5001 -0.866 755.5364 1395.286)" fill="#13222D" width="2.8" height="5.3"/>
<g>
	<polygon fill="#13222D" points="475.1,600.2 469,600.2 466,594.9 468.5,593.5 470.7,597.4 475.1,597.4 	"/>
	<path fill="#13222D" d="M462.6,583.2l-5.8-10.3l-2.5,1.4l5.8,10.3L462.6,583.2z M450.7,562.6l-5.8-10.3l-2.5,1.4l5.8,10.3
		L450.7,562.6z M438.7,542l-5.8-10.3l-2.5,1.4l5.8,10.3L438.7,542z"/>
	<polygon fill="#13222D" points="424.5,522.9 421.4,517.6 424.5,512.3 427,513.9 424.8,517.6 427,521.5 	"/>
	<path fill="#13222D" d="M438.7,493.4l-2.5-1.4l-5.8,10.3l2.5,1.4L438.7,493.4z M450.7,472.8l-2.5-1.4l-5.8,10.3l2.5,1.4
		L450.7,472.8z M462.6,452.2l-2.5-1.4l-5.8,10.3l2.5,1.4L462.6,452.2z"/>
	<polygon fill="#13222D" points="468.5,441.9 466,440.5 469,435.2 475.1,435.2 475.1,438 470.7,438 	"/>
	<path fill="#13222D" d="M546.3,435.2h-12v2.8h12V435.2z M522.7,435.2h-12v2.8h12V435.2z M498.8,435.2h-12v2.8h12V435.2z"/>
	<polygon fill="#13222D" points="565,441.9 562.8,438 558.3,438 558.3,435.2 564.4,435.2 567.5,440.5 	"/>
	<path fill="#13222D" d="M603.1,502l-5.8-10.3l-2.5,1.4l5.8,10.3L603.1,502z M591.1,481.4l-5.8-10.3l-2.5,1.4l5.8,10.3L591.1,481.4z
		 M579.2,460.8l-5.8-10.3l-2.5,1.4l5.8,10.3L579.2,460.8z"/>
	<polygon fill="#13222D" points="608.9,522.9 606.4,521.5 608.7,517.6 606.4,513.9 608.9,512.3 612,517.6 	"/>
	<path fill="#13222D" d="M579.2,574.3l-2.5-1.4l-5.8,10.3l2.5,1.4L579.2,574.3z M591.1,553.7l-2.5-1.4l-5.8,10.3l2.5,1.4
		L591.1,553.7z M603.1,533.1l-2.5-1.4l-5.8,10.3l2.5,1.4L603.1,533.1z"/>
	<polygon fill="#13222D" points="564.4,600.2 558.3,600.2 558.3,597.4 562.8,597.4 565,593.5 567.5,594.9 	"/>
	<path fill="#13222D" d="M546.3,597.4h-12v2.8h12V597.4z M522.7,597.4h-12v2.8h12V597.4z M498.8,597.4h-12v2.8h12V597.4z"/>
</g>
<polygon fill="#13222D" points="475.1,438 469,438 466,432.7 468.5,431.3 470.7,435.2 475.1,435.2 "/>
<path fill="#13222D" d="M462.6,421l-5.8-10.3l-2.5,1.4l5.8,10.3L462.6,421z M450.7,400.5l-5.8-10.3l-2.5,1.4l5.8,10.3L450.7,400.5z
	 M438.7,379.9l-5.8-10.3l-2.5,1.4l5.8,10.3L438.7,379.9z"/>
<polygon fill="#13222D" points="424.5,360.7 421.4,355.4 424.5,350.1 427,351.5 424.8,355.4 427,359.3 "/>
<path fill="#13222D" d="M438.7,330.9l-2.5-1.4l-5.8,10.3l2.5,1.4L438.7,330.9z M450.7,310.6l-2.5-1.4l-5.8,10.3l2.5,1.4L450.7,310.6
	z M462.6,290l-2.5-1.4l-5.8,10.3l2.5,1.4L462.6,290z"/>
<polygon fill="#13222D" points="468.5,279.7 466,278.1 467.3,275.8 470.7,275.8 "/>
<polygon fill="#13222D" points="565,279.7 562.8,275.8 566.1,275.8 567.5,278.1 "/>
<path fill="#13222D" d="M603.1,339.8l-5.8-10.3l-2.5,1.4l5.8,10.3L603.1,339.8z M591.1,319.2l-5.8-10.3l-2.5,1.4l5.8,10.3
	L591.1,319.2z M579.2,298.6l-5.8-10.3l-2.5,1.4l5.8,10.3L579.2,298.6z"/>
<polygon fill="#13222D" points="608.9,360.7 606.4,359.3 608.7,355.4 606.4,351.5 608.9,350.1 612,355.4 "/>
<path fill="#13222D" d="M579.2,412.1l-2.5-1.4l-5.8,10.3l2.5,1.4L579.2,412.1z M591.1,391.5l-2.5-1.4l-5.8,10.3l2.5,1.4L591.1,391.5
	z M603.1,371l-2.5-1.4l-5.8,10.3l2.5,1.4L603.1,371z"/>
<polygon fill="#13222D" points="564.4,438 558.3,438 558.3,435.2 562.8,435.2 565,431.3 567.5,432.7 "/>
<path fill="#13222D" d="M546.3,435.2h-12v2.8h12V435.2z M522.7,435.2h-12v2.8h12V435.2z M498.8,435.2h-12v2.8h12V435.2z"/>
<g>
	<rect x="188.9" y="597.4" fill="#13222D" width="5.3" height="2.8"/>
	<path fill="#13222D" d="M265.4,597.4h-12v2.8h12V597.4z M241.7,597.4h-12v2.8h12V597.4z M217.8,597.4h-12v2.8h12V597.4z"/>
	<rect x="277.3" y="597.4" fill="#13222D" width="5.3" height="2.8"/>
</g>
<g>
	
		<rect x="465.8" y="595.1" transform="matrix(-0.5 -0.866 0.866 -0.5 186.1301 1300.5221)" fill="#13222D" width="5.3" height="2.8"/>
	<path fill="#13222D" d="M462.6,583.2l-5.8-10.3l-2.5,1.4l5.8,10.3L462.6,583.2z M450.7,562.6l-5.8-10.3l-2.5,1.4l5.8,10.3
		L450.7,562.6z M438.7,542l-5.8-10.3l-2.5,1.4l5.8,10.3L438.7,542z"/>
	<polygon fill="#13222D" points="424.5,522.9 422.3,519 417.8,519 417.8,516.2 423.9,516.2 427,521.5 	"/>
	<path fill="#13222D" d="M405.9,516.2h-12v2.8h12V516.2z M382.2,516.2h-12v2.8h12V516.2z M358.3,516.2h-12v2.8h12V516.2z"/>
	<polygon fill="#13222D" points="328,522.9 325.5,521.5 328.5,516.2 334.7,516.2 334.7,519 330.2,519 	"/>
	<path fill="#13222D" d="M298.2,574.3l-2.5-1.4l-5.8,10.3l2.5,1.4L298.2,574.3z M310.2,553.7l-2.5-1.4l-5.8,10.3l2.5,1.4
		L310.2,553.7z M322.1,533.1l-2.5-1.4l-5.8,10.3l2.5,1.4L322.1,533.1z"/>
	
		<rect x="282.4" y="593.7" transform="matrix(-0.866 -0.5001 0.5001 -0.866 231.2801 1254.7323)" fill="#13222D" width="2.8" height="5.3"/>
</g>
<g>
	<polygon fill="#13222D" points="194.2,600.2 188.1,600.2 185,594.9 187.5,593.5 189.7,597.4 194.2,597.4 	"/>
	<path fill="#13222D" d="M181.7,583.2l-5.8-10.3l-2.5,1.4l5.8,10.3L181.7,583.2z M169.7,562.6l-5.8-10.3l-2.5,1.4l5.8,10.3
		L169.7,562.6z M157.7,542l-5.8-10.3l-2.5,1.4l5.8,10.3L157.7,542z"/>
	<polygon fill="#13222D" points="143.5,522.9 140.5,517.6 143.5,512.3 146,513.9 143.8,517.6 146,521.5 	"/>
	<path fill="#13222D" d="M157.7,493.4l-2.5-1.4l-5.8,10.3l2.5,1.4L157.7,493.4z M169.7,472.8l-2.5-1.4l-5.8,10.3l2.5,1.4
		L169.7,472.8z M181.7,452.2l-2.5-1.4l-5.8,10.3l2.5,1.4L181.7,452.2z"/>
	<polygon fill="#13222D" points="187.5,441.9 185,440.5 188.1,435.2 194.2,435.2 194.2,438 189.7,438 	"/>
	<path fill="#13222D" d="M265.4,435.2h-12v2.8h12V435.2z M241.7,435.2h-12v2.8h12V435.2z M217.8,435.2h-12v2.8h12V435.2z"/>
	<polygon fill="#13222D" points="284,441.9 281.8,438 277.3,438 277.3,435.2 283.5,435.2 286.5,440.5 	"/>
	<path fill="#13222D" d="M322.1,502l-5.8-10.3l-2.5,1.4l5.8,10.3L322.1,502z M310.2,481.4l-5.8-10.3l-2.5,1.4l5.8,10.3L310.2,481.4z
		 M298.2,460.8l-5.8-10.3l-2.5,1.4l5.8,10.3L298.2,460.8z"/>
	<polygon fill="#13222D" points="328,522.9 325.5,521.5 327.7,517.6 325.5,513.9 328,512.3 331,517.6 	"/>
	<path fill="#13222D" d="M298.2,574.3l-2.5-1.4l-5.8,10.3l2.5,1.4L298.2,574.3z M310.2,553.7l-2.5-1.4l-5.8,10.3l2.5,1.4
		L310.2,553.7z M322.1,533.1l-2.5-1.4l-5.8,10.3l2.5,1.4L322.1,533.1z"/>
	<polygon fill="#13222D" points="283.5,600.2 277.3,600.2 277.3,597.4 281.8,597.4 284,593.5 286.5,594.9 	"/>
	<path fill="#13222D" d="M265.4,597.4h-12v2.8h12V597.4z M241.7,597.4h-12v2.8h12V597.4z M217.8,597.4h-12v2.8h12V597.4z"/>
</g>
<g>
	<polygon fill="#13222D" points="423.9,519 417.8,519 417.8,516.2 422.3,516.2 424.5,512.3 427,513.9 	"/>
	<path fill="#13222D" d="M438.7,493.4l-2.5-1.4l-5.8,10.3l2.5,1.4L438.7,493.4z M450.7,472.8l-2.5-1.4l-5.8,10.3l2.5,1.4
		L450.7,472.8z M462.6,452.2l-2.5-1.4l-5.8,10.3l2.5,1.4L462.6,452.2z"/>
	<polygon fill="#13222D" points="468.5,441.9 466,440.5 468.2,436.6 466,432.7 468.5,431.3 471.5,436.6 	"/>
	<path fill="#13222D" d="M462.6,421l-5.8-10.3l-2.5,1.4l5.8,10.3L462.6,421z M450.7,400.5l-5.8-10.3l-2.5,1.4l5.8,10.3L450.7,400.5z
		 M438.7,379.9l-5.8-10.3l-2.5,1.4l5.8,10.3L438.7,379.9z"/>
	<polygon fill="#13222D" points="424.5,360.7 422.3,356.8 417.8,356.8 417.8,354 423.9,354 427,359.3 	"/>
	<path fill="#13222D" d="M405.9,354h-12v2.8h12V354z M382.2,354h-12v2.8h12V354z M358.3,354h-12v2.8h12V354z"/>
	<polygon fill="#13222D" points="328,360.7 325.5,359.3 328.5,354 334.7,354 334.7,356.8 330.2,356.8 	"/>
	<path fill="#13222D" d="M298.2,412.1l-2.5-1.4l-5.8,10.3l2.5,1.4L298.2,412.1z M310.2,391.5l-2.5-1.4l-5.8,10.3l2.5,1.4
		L310.2,391.5z M322.1,371l-2.5-1.4l-5.8,10.3l2.5,1.4L322.1,371z"/>
	<polygon fill="#13222D" points="284,441.9 281,436.6 284,431.3 286.5,432.7 284.3,436.6 286.5,440.5 	"/>
	<path fill="#13222D" d="M322.1,502l-5.8-10.3l-2.5,1.4l5.8,10.3L322.1,502z M310.2,481.4l-5.8-10.3l-2.5,1.4l5.8,10.3L310.2,481.4z
		 M298.2,460.8l-5.8-10.3l-2.5,1.4l5.8,10.3L298.2,460.8z"/>
	<polygon fill="#13222D" points="334.7,519 328.5,519 325.5,513.9 328,512.3 330.2,516.2 334.7,516.2 	"/>
	<path fill="#13222D" d="M405.9,516.2h-12v2.8h12V516.2z M382.2,516.2h-12v2.8h12V516.2z M358.3,516.2h-12v2.8h12V516.2z"/>
</g>
<polygon fill="#13222D" points="194.2,438 188.1,438 185,432.7 187.5,431.3 189.7,435.2 194.2,435.2 "/>
<path fill="#13222D" d="M181.7,421l-5.8-10.3l-2.5,1.4l5.8,10.3L181.7,421z M169.7,400.5l-5.8-10.3l-2.5,1.4l5.8,10.3L169.7,400.5z
	 M157.7,379.9l-5.8-10.3l-2.5,1.4l5.8,10.3L157.7,379.9z"/>
<polygon fill="#13222D" points="143.5,360.7 140.5,355.4 143.5,350.1 146,351.5 143.8,355.4 146,359.3 "/>
<path fill="#13222D" d="M157.7,330.9l-2.5-1.4l-5.8,10.3l2.5,1.4L157.7,330.9z M169.7,310.6l-2.5-1.4l-5.8,10l2.5,1.4L169.7,310.6z
	 M181.7,290l-2.5-1.4l-5.8,10.3l2.5,1.4L181.7,290z"/>
<polygon fill="#13222D" points="187.5,279.7 185,278.1 186.4,275.8 189.7,275.8 "/>
<polygon fill="#13222D" points="284,279.7 281.8,275.8 285.2,275.8 286.5,278.1 "/>
<path fill="#13222D" d="M322.1,339.8l-5.8-10.3l-2.5,1.4l5.8,10.3L322.1,339.8z M310.2,319.2l-5.8-10.3l-2.5,1.4l5.8,10.3
	L310.2,319.2z M298.2,298.6l-5.8-10.3l-2.5,1.4l5.8,10.3L298.2,298.6z"/>
<polygon fill="#13222D" points="328,360.7 325.5,359.3 327.7,355.4 325.5,351.5 328,350.1 331,355.4 "/>
<path fill="#13222D" d="M298.2,412.1l-2.5-1.4l-5.8,10.3l2.5,1.4L298.2,412.1z M310.2,391.5l-2.5-1.4l-5.8,10.3l2.5,1.4L310.2,391.5
	z M322.1,371l-2.5-1.4l-5.8,10.3l2.5,1.4L322.1,371z"/>
<polygon fill="#13222D" points="283.5,438 277.3,438 277.3,435.2 281.8,435.2 284,431.3 286.5,432.7 "/>
<path fill="#13222D" d="M265.4,435.2h-12v2.8h12V435.2z M241.7,435.2h-12v2.8h12V435.2z M217.8,435.2h-12v2.8h12V435.2z"/>
<polygon fill="#13222D" points="423.9,356.8 417.8,356.8 417.8,354 422.3,354 424.5,350.1 427,351.5 "/>
<path fill="#13222D" d="M438.7,330.9l-2.5-1.4l-5.8,10.3l2.5,1.4L438.7,330.9z M450.7,310.6l-2.5-1.4l-5.8,10.3l2.5,1.4L450.7,310.6
	z M462.6,290l-2.5-1.4l-5.8,10.3l2.5,1.4L462.6,290z"/>
<path fill="#13222D" d="M322.1,339.8l-5.8-10.3l-2.5,1.4l5.8,10.3L322.1,339.8z M310.2,319.2l-5.8-10.3l-2.5,1.4l5.8,10.3
	L310.2,319.2z M298.2,298.6l-5.8-10.3l-2.5,1.4l5.8,10.3L298.2,298.6z"/>
<polygon fill="#13222D" points="334.7,356.8 328.5,356.8 325.5,351.5 328,350.1 330.2,354 334.7,354 "/>
<path fill="#13222D" d="M405.9,354h-12v2.8h12V354z M382.2,354h-12v2.8h12V354z M358.3,354h-12v2.8h12V354z"/>
<g>
	
		<rect x="184.9" y="595.1" transform="matrix(-0.5 -0.866 0.866 -0.5 -235.261 1057.1876)" fill="#13222D" width="5.3" height="2.8"/>
	<path fill="#13222D" d="M181.7,583.2l-5.8-10.3l-2.5,1.4l5.8,10.3L181.7,583.2z M169.7,562.6l-5.8-10.3l-2.5,1.4l5.8,10.3
		L169.7,562.6z M157.7,542l-5.8-10.3l-2.5,1.4l5.8,10.3L157.7,542z"/>
	<polygon fill="#13222D" points="143.5,522.9 141.3,519 136.9,519 136.9,516.2 143,516.2 146,521.5 	"/>
	<path fill="#13222D" d="M124.9,516.2h-12v2.8h12V516.2z M101.3,516.2h-12v2.8h12V516.2z M77.6,516.2h-12v2.8h12
		C77.6,519,77.6,516.2,77.6,516.2z"/>
	<rect x="48.4" y="516.2" fill="#13222D" width="5.3" height="2.8"/>
</g>
<polygon fill="#13222D" points="143,519 136.9,519 136.9,516.2 141.3,516.2 143.5,512.3 146,513.9 "/>
<path fill="#13222D" d="M157.7,493.4l-2.5-1.4l-5.8,10.3l2.5,1.4L157.7,493.4z M169.7,472.8l-2.5-1.4l-5.8,10.3l2.5,1.4L169.7,472.8
	z M181.7,452.2l-2.5-1.4l-5.8,10.3l2.5,1.4L181.7,452.2z"/>
<polygon fill="#13222D" points="187.5,441.9 185,440.5 187.2,436.6 185,432.7 187.5,431.3 190.6,436.6 "/>
<path fill="#13222D" d="M181.7,421l-5.8-10.3l-2.5,1.4l5.8,10.3L181.7,421z M169.7,400.5l-5.8-10.3l-2.5,1.4l5.8,10.3L169.7,400.5z
	 M157.7,379.9l-5.8-10.3l-2.5,1.4l5.8,10.3L157.7,379.9z"/>
<polygon fill="#13222D" points="143.5,360.7 141.3,356.8 136.9,356.8 136.9,354 143,354 146,359.3 "/>
<path fill="#13222D" d="M124.9,354h-12v2.8h12V354z M101.3,354h-12v2.8h12V354z M77.6,354h-12v2.8h12C77.6,356.8,77.6,354,77.6,354z
	"/>
<path fill="#13222D" d="M124.9,516.2h-12v2.8h12V516.2z M101.3,516.2h-12v2.8h12V516.2z M77.6,516.2h-12v2.8h12
	C77.6,519,77.6,516.2,77.6,516.2z"/>
<polygon fill="#13222D" points="143,356.8 136.9,356.8 136.9,354 141.3,354 143.5,350.1 146,351.5 "/>
<path fill="#13222D" d="M157.7,330.9l-2.5-1.4l-5.8,10.3l2.5,1.4L157.7,330.9z M169.7,310.6l-2.5-1.4l-5.8,10l2.5,1.4L169.7,310.6z
	 M181.7,290l-2.5-1.4l-5.8,10.3l2.5,1.4L181.7,290z"/>
<path fill="#13222D" d="M124.9,354h-12v2.8h12V354z M101.3,354h-12v2.8h12V354z M77.6,354h-12v2.8h12C77.6,356.8,77.6,354,77.6,354z
	"/>
<rect x="49.2" y="354" fill="#13222D" width="4.5" height="2.8"/>
<rect x="49.2" y="516.2" fill="#13222D" width="4.5" height="2.8"/>
</svg>
