<?xml version="1.0" encoding="utf-8"?>
<!-- Generator: Adobe Illustrator 18.1.0, SVG Export Plug-In . SVG Version: 6.00 Build 0)  -->
<!DOCTYPE svg PUBLIC "-//W3C//DTD SVG 1.1//EN" "http://www.w3.org/Graphics/SVG/1.1/DTD/svg11.dtd">
<svg version="1.1" id="Layer_1" xmlns="http://www.w3.org/2000/svg" xmlns:xlink="http://www.w3.org/1999/xlink" x="0px" y="0px"
	 viewBox="0 77.6 791.8 457.1" enable-background="new 0 77.6 791.8 457.1" xml:space="preserve">
<path fill="#121F2A" d="M776.7,309.9l0.2-0.2c0.2-0.4,0.6-0.8,0.8-1.1l0.2-0.2c0.4-0.4,0.6-0.8,1.1-1.3c0.4-0.4,0.6-0.6,1.1-1.1
	l0.2-0.2c0.4-0.4,0.8-0.6,1.3-0.8c0.4-0.2,0.8-0.6,1.5-0.8l0.2-0.2c0.2-0.2,0.4-0.2,0.6-0.4h0.2c0.2,0,0.4-0.2,0.6-0.2v-13.8h7
	v-19.3h-8.7c-2.1,0-4.2,2.1-4.2,4.5v0.4c0,1.7,0.8,3.2,2.5,4l0.4,0.2v21.8l-0.4,0.2c-6.8,3.8-11,11-11,18.9
	c0,11.9,9.8,21.4,21.4,21.4v-3.4c-10.2,0-18.2-8.3-18.2-18.2c0-2.3,0.4-4.9,1.5-7.2C775.5,311.8,776.1,310.8,776.7,309.9z"/>
<path fill="#121F2A" d="M790.5,189.7c-0.2,0-0.6,0.2-0.8,0.2l0.2,5.9c0.6,0.4,1.5,0.6,1.7,0.6h0.2v-7h-0.2
	C791.4,189.5,790.9,189.5,790.5,189.7z"/>
<path fill="#121F2A" d="M788,160.7c0,1.1,0.4,2.1,1.3,2.8l0.4,21.8c0.4,0,1.3,0,2.1,0.2h0.2v-28.6h-0.2
	C789.7,156.9,788,158.6,788,160.7z"/>
<path fill="#121F2A" d="M790.9,211.8c-0.4,0.6-0.6,1.1-0.6,1.7s0.4,1.3,1.1,1.9l0.2,0.2l0.2-0.2v-3.8l-0.2-0.2
	C791.4,211.3,791.2,211.6,790.9,211.8z"/>
<path fill="#121F2A" d="M791.8,219.6l-0.2-0.2c0,0.2-0.4,0.4-0.6,0.8c-0.4,1.1-0.8,3.2,0.6,5.7l0.2-0.4V219.6z"/>
<path fill="#121F2A" d="M789.2,200.7c0.2-0.2,0.4-0.2,0.8-0.4l0.4-0.2l-0.4-0.2c-0.8-0.2-1.7-0.6-2.3-1.1c-0.6,0.4-1.3,1.3-1.7,2.1
	c-0.2,0.6-0.4,1.3-0.2,2.1c0.2,3,2.1,4.7,3.6,5.5c0.2-0.2,0.6-0.6,0.8-0.8c0.4-0.2,0.6-0.6,1.1-0.8c0,0-0.4-0.2-1.1-0.6
	c-0.8-0.8-2.1-1.9-2.3-3.2c0-0.2,0-0.4,0-0.6C788,202,788.4,201.4,789.2,200.7z"/>
<path fill="#121F2A" d="M791.2,219.2l0.2-0.2c-0.2-0.2-0.6-0.4-0.8-0.6l-0.4-0.4c-0.6,0.8-1.1,1.9-1.1,3.6c-0.2,3.4,2.3,5.1,2.3,5.1
	c-0.2-0.4-0.4-0.6-0.6-1.1v-0.2c0-0.2-0.2-0.4-0.2-0.8l-0.2-0.4c-0.2-0.4-0.2-0.8-0.2-1.3v-0.4c-0.2-1.1,0-1.7,0.4-2.3
	C790.7,219.6,790.9,219.4,791.2,219.2z"/>
<path fill="#121F2A" d="M779.1,181.9l0.2-0.4l0.2-0.2h0.2h0.2h0.2h0.2h0.2h0.2h0.2h0.2h0.2c0,0,0.6,0.6,1.9,1.1
	c0.4,0.2,0.8,0.2,1.5,0.4c0.2,0,0.4,0,0.6,0h0.2c0.2,0,0.4,0,0.6,0h0.4l0.4-0.2l0.2-0.2l0.2-0.2l0.2-0.2c0-0.6-0.4-1.3-0.6-1.7
	l-0.4-0.4c-0.8-0.4-1.7-0.6-1.7-0.6h-0.2h-0.2h-0.2h-0.2h-0.4h-0.2h-0.4h-0.4h-0.2h-0.6h-0.4h-0.2h-0.6h-0.2h-0.4l-0.6,0.2h-0.2
	l-0.6,0.2l-0.4,0.2l-0.4,0.2l-0.4,0.2l-0.2,0.4l-0.2,0.4v0.4v0.2v0.4c0,0.4,0.2,0.8,0.4,1.1c0.2,0.4,0.4,0.6,0.8,1.1
	c1.5,1.5,4.2,2.5,6.6,3.2c1.1-0.8,2.3-1.5,3.8-1.9h0.2c-2.1-0.2-4.2-0.4-5.7-1.1c-0.6-0.2-1.3-0.4-1.9-0.6c-0.6-0.4-1.3-0.8-1.7-1.1
	c-0.2-0.2-0.2-0.4-0.4-0.6v-0.2H779.1z"/>
<path fill="#121F2A" d="M770.4,173.6c1.7,0.2,3-0.2,3-0.2s-0.8,1.5,1.5,1.5c1.7,0,2.8-0.2,2.8-0.2s-0.4,1.3,1.3,1.3
	c1.5,0,3.2-1.1,3.2-1.1s-0.2,1.1,1.3,1.1c1.3,0,3.8-1.5,3.8-1.5v-5.3c0,0-3.2-5.7-7-5.7c-2.8,0-7.8,3-7.8,3s-4.5,2.5-9.8,1.3
	c0,0-1.7-0.6-1.5,0.8c0.2,1.5,2.5,2.5,4.7,2.8c0,0-0.4,1.3,1.3,1.3c1.7,0,2.8-0.4,2.8-0.4S768.7,173.4,770.4,173.6z"/>
<path fill="#121F2A" d="M791.4,200.7c-0.6,0.2-1.1,0.2-1.3,0.4v4.7c0.6,0.4,1.1,0.8,1.5,1.1l0.2,0.2l0.2-0.2v-6.4h-0.2L791.4,200.7z
	"/>
<path fill="#121F2A" d="M790.9,186.3c-0.2,0-0.6,0-0.8,0.2h-0.2c-0.2,0-0.6,0.2-0.8,0.2c-0.2,0-0.6,0.2-0.8,0.2
	c-0.2,0-0.6,0.2-0.8,0.4c-0.4,0.2-1.1,0.4-1.5,0.8l-0.4,0.4l-0.2,0.2H785c-0.2,0.2-0.4,0.4-0.6,0.6c-0.4,0.4-0.6,1.1-0.8,1.7
	c0,0.2,0,0.4,0,0.8c0,0.4,0,0.8,0,1.3c0,0.2,0.2,0.6,0.2,0.8c0,0.2,0.2,0.4,0.4,0.8c0.2,0.2,0.2,0.4,0.4,0.8c0.6,0.8,1.5,1.9,3,2.5
	l0.2,0.2l0.4,0.2l0.2,0.2c0.4,0.2,0.8,0.4,1.5,0.6h0.2c0.4,0.2,1.1,0.2,1.5,0.4h0.2v-2.8h-0.2h-0.2c-0.2,0-0.4-0.2-0.8-0.2
	c-0.2,0-0.4-0.2-0.8-0.2l-0.4-0.2c-0.2-0.2-0.6-0.2-0.8-0.4l-0.4-0.2c-0.2-0.2-0.6-0.4-0.8-0.6c-0.2-0.2-0.4-0.4-0.6-0.6l-0.2-0.4
	c-0.2-0.4-0.4-0.8-0.2-1.3c0-1.7,1.7-2.8,3.4-3.4c0.2,0,0.4-0.2,0.6-0.2s0.4,0,0.6-0.2c0.2,0,0.4,0,0.6-0.2h0.2v-2.5l0.2-0.4
	C791.4,186.1,791.2,186.1,790.9,186.3z"/>
<path fill="#121F2A" d="M790.1,209l-0.2,0.2l-0.4,0.4c-0.8,0.8-1.5,2.1-1.5,3.2c0,1.3,1.1,2.8,1.9,3.8l0.4,0.4
	c0.4,0.4,1.1,0.8,1.3,1.3l0.2,0.2v-2.1l-0.2-0.2c-0.2-0.2-0.4-0.2-0.6-0.4c-0.2-0.2-0.6-0.4-0.8-0.8c-0.4-0.4-0.6-1.1-0.6-1.7
	c0-0.6,0.2-1.1,0.6-1.7l0.2-0.4c0.2-0.2,0.4-0.4,0.6-0.6s0.4-0.2,0.6-0.4l0.2-0.2v-2.5l-0.2,0.2C791.4,208.2,790.7,208.6,790.1,209z
	"/>
<path fill="#121F2A" d="M789.9,114.5c-0.2,0.2-0.8,0.4-1.3,0.4l-14-3.8c-0.2,0-0.8-0.6-0.8-0.8l-3.8-14c0-0.2,0-1.1,0.4-1.3l10-10.4
	c0.2-0.2,0.8-0.4,1.3-0.4l10.4,2.8v-3.6l-9.5-2.5c-0.2,0-0.8-0.6-0.8-0.8l-0.6-2.3h-3.8l0.8,3.2c0,0.2,0.2,0.4,0.2,0.8
	c-0.2,0.2-0.4,0.2-0.6,0.4l-10.2,10.2c-1.1,1.1-1.7,3.2-1.3,4.9l3.8,14c0.4,1.7,1.9,3.2,3.6,3.6l14,3.8c1.5,0.4,3.4,0,4.7-1.1v-5.3
	L789.9,114.5z"/>
<path fill="#121F2A" d="M778.2,396c0,0.8,0.8,1.7,1.7,1.7H792v-3.4h-12.1C779.1,394.3,778.2,394.9,778.2,396z"/>
<path fill="#121F2A" d="M792,404.7v-3.4h-8.5c-1.1,0-1.7,0.8-1.7,1.7s0.8,1.7,1.7,1.7H792z"/>
<path fill="#121F2A" d="M788,410.2c0,0.8,0.8,1.7,1.7,1.7h2.3v-3.4h-2.3C788.6,408.5,788,409.3,788,410.2z"/>
<path fill="#121F2A" d="M770.8,451.1c0.8,0,1.5-0.8,1.5-1.9c0-0.2-0.8-11.7,19.5-26.3v-4l-0.2,0c-18.9-12.7-19.3-27.8-19.3-28
	c0-0.8-0.8-1.7-1.7-1.7s-1.7,0.8-1.7,1.7c0,0.6,0.2,16.3,20.1,30.1c-21.2,15.7-20.1,28-20.1,28.6c0,0.8,0.8,1.5,1.7,1.5H770.8z"/>
<path fill="#121F2A" d="M778.2,447.3c0,0.8,0.8,1.7,1.7,1.7H792v-3.4h-12.1C779.1,445.6,778.2,446.2,778.2,447.3z"/>
<path fill="#121F2A" d="M781.8,440.1c0,0.8,0.8,1.7,1.7,1.7h8.5v-3.4h-8.5C782.5,438.4,781.8,439.2,781.8,440.1z"/>
<path fill="#121F2A" d="M788,432.9c0,0.8,0.8,1.7,1.7,1.7h2.3v-3.4h-2.3C788.6,431.4,788,432,788,432.9z"/>
<path fill="#121F2A" d="M789.9,507.7l-3.6-13.8l-3.6,1.1l3.6,13.8c-0.2,0.2-0.4,0.2-0.6,0.4l-10.2,10.2c-1.1,1.1-1.7,3.2-1.3,4.9
	l2.8,10.4h3.8l-3-11.4c0-0.2,0-1.1,0.4-1.3l10.2-10.2c0.2-0.2,0.8-0.4,1.3-0.4l2.3,0.6v-3.8l-1.5-0.4
	C790.3,507.7,790.1,507.7,789.9,507.7z"/>
<path fill="#121F2A" d="M515.4,384.3h-6.8V378c0-2.5-2.1-4.7-4.7-4.7h-1.7v-1.7c1.7-0.6,3-2.3,3-4.2v-10.6h-4.9c1.7-1.1,3-3,3-7.6
	c-0.2-6.4-7.6-20.8-8.3-22c-0.8,1.5-8.3,15.9-8.3,22c0,4.7,1.7,6.6,3.6,7.6H485v10.6c0,1.9,1.3,3.6,3,4.2v1.7h-1.7
	c-2.5,0-4.7,2.1-4.7,4.7v6.4h-7c-3,0-5.1,2.1-5.1,4.7v5.7c0,2.5,2.1,4.7,4.7,4.7h41.1c2.5,0,4.7-2.1,4.7-4.7V389
	C520,386.5,517.9,384.3,515.4,384.3z M495,342.4c0.4,0.6,3.6,9.3,3.6,12.1c0,1.1-0.4,1.7-1.1,2.3h-5.3c-0.6-0.6-1.1-1.3-1.1-2.3
	C491.4,351.7,494.6,343,495,342.4z M488.2,360H502v7.2c0,0.6-0.6,1.3-1.3,1.3h-11.2c-0.6,0-1.3-0.6-1.3-1.3V360z M498.8,371.8v1.3
	H491v-1.3H498.8z M484.4,378h0.2c0-0.6,0.6-1.3,1.3-1.3h1.7H502h1.7c0.6,0,1.3,0.6,1.3,1.3v6.4h-20.6V378z M516.6,394.7
	c0,0.6-0.6,1.3-1.3,1.3h-41.1c-0.6,0-1.3-0.6-1.3-1.3V389c0-0.6,0.6-1.3,1.3-1.3h41.1c0.6,0,1.3,0.6,1.3,1.3V394.7z"/>
<path fill="#121F2A" d="M670.5,218.6c-0.8,0-1.7,0.8-1.7,1.7c0,0.6,0.2,16.3,20.1,30.1c-21,15.9-19.9,28.4-19.7,28.8
	c0,0.8,0.8,1.5,1.7,1.5h0.2c0.8,0,1.5-0.8,1.5-1.9c0-0.2-0.8-11.7,19.5-26.3c20.4,14.6,19.5,26.1,19.5,26.1
	c-0.2,0.8,0.6,1.7,1.5,1.9h0.2c0.8,0,1.5-0.6,1.7-1.5c0-0.6,1.3-12.9-20.1-28.6c19.7-13.8,20.1-29.5,20.1-30.1
	c0-0.8-0.8-1.7-1.7-1.7c-0.8,0-1.7,0.8-1.7,1.7c0,0.2-0.2,15.1-19.3,28l-0.4,0.2l-0.4-0.2c-18.9-12.7-19.3-27.8-19.3-28
	C672.2,219.4,671.4,218.6,670.5,218.6z"/>
<path fill="#121F2A" d="M678.6,225.5c0,0.8,0.8,1.7,1.7,1.7h24c0.8,0,1.7-0.8,1.7-1.7s-0.8-1.7-1.7-1.7h-24
	C679.2,223.9,678.6,224.5,678.6,225.5z"/>
<path fill="#121F2A" d="M702.1,232.8c0-0.8-0.8-1.7-1.7-1.7h-17c-0.8,0-1.7,0.8-1.7,1.7s0.8,1.7,1.7,1.7h17
	C701.5,234.2,702.1,233.6,702.1,232.8z"/>
<path fill="#121F2A" d="M689.8,238.1c-0.8,0-1.7,0.8-1.7,1.7s0.8,1.7,1.7,1.7h4.5c0.8,0,1.7-0.8,1.7-1.7s-0.8-1.7-1.7-1.7H689.8z"/>
<path fill="#121F2A" d="M705.7,276.9c0-0.8-0.8-1.7-1.7-1.7h-24c-0.8,0-1.7,0.8-1.7,1.7s0.8,1.7,1.7,1.7h24
	C704.9,278.5,705.7,277.7,705.7,276.9z"/>
<path fill="#121F2A" d="M682,269.6c0,0.8,0.8,1.7,1.7,1.7h17c0.8,0,1.7-0.8,1.7-1.7c0-0.8-0.8-1.7-1.7-1.7h-17
	C682.8,267.9,682,268.8,682,269.6z"/>
<path fill="#121F2A" d="M694.3,264.3c0.8,0,1.7-0.8,1.7-1.7s-0.8-1.7-1.7-1.7h-4.5c-0.8,0-1.7,0.8-1.7,1.7s0.8,1.7,1.7,1.7H694.3z"
	/>
<path fill="#121F2A" d="M694.7,388.1c1.1-1.1,1.9-2.5,1.9-3.8c0-1.1-0.6-2.3-1.5-3.2h-0.2h-0.2l-0.4,0.2c-0.2,0.2-0.6,0.4-1.1,0.6
	c0.2,0.2,0.4,0.4,0.6,0.6l0.2,0.4c0.2,0.4,0.4,1.1,0.6,1.7c0,0.6-0.2,1.3-0.6,1.7c-0.2,0.2-0.4,0.6-0.8,0.8c0.2,0.2,0.4,0.4,0.8,0.6
	L694.7,388.1z"/>
<path fill="#121F2A" d="M693.4,383.3c-0.2-0.2-0.4-0.4-0.6-0.6c-0.2,0.2-0.4,0.4-0.6,0.6c-0.4,0.6-0.6,1.1-0.6,1.7s0.4,1.3,1.1,1.9
	l0.2,0.2l0.2-0.2c0.8-0.6,1.1-1.3,1.1-1.9C694.1,384.3,693.8,383.9,693.4,383.3z"/>
<path fill="#121F2A" d="M688.8,370.6c-0.6,0.4-1.3,1.3-1.7,2.1c-0.2,0.6-0.4,1.3-0.2,2.1c0.2,3,2.1,4.7,3.6,5.5
	c0.2-0.2,0.6-0.6,0.8-0.8c0.4-0.2,0.6-0.6,1.1-0.8c0,0-0.4-0.2-1.1-0.6c-0.8-0.8-2.1-1.9-2.3-3.2c0-0.2,0-0.4,0-0.6
	c0.2-0.8,0.6-1.5,1.3-1.9c0.2-0.2,0.4-0.2,0.8-0.4l0.4-0.2l-0.4-0.2C690.2,371.2,689.4,370.8,688.8,370.6z"/>
<path fill="#121F2A" d="M723.3,339.6c0.2-1.5-1.5-0.8-1.5-0.8c-5.3,1.7-9.8-1.1-9.8-1.1s-5.1-3-7.8-3c-3.8,0-7,5.7-7,5.7v5.3
	c0,0,2.8,1.5,3.8,1.5c1.5,0,1.3-1.1,1.3-1.1s1.7,1.1,3.2,1.1c1.7,0,1.3-1.3,1.3-1.3s1.1,0.2,2.8,0.2c2.3,0,1.5-1.5,1.5-1.5
	s1.5,0.4,3,0.2c1.7-0.2,0.6-1.7,0.6-1.7s1.1,0.4,2.8,0.4s1.3-1.3,1.3-1.3C720.8,342.1,723.1,341.1,723.3,339.6z"/>
<path fill="#121F2A" d="M705.3,357c1.3-0.8,2.1-1.9,2.3-3.2v-0.4v-0.2v-0.4l-0.2-0.4l-0.2-0.4l-0.4-0.2l-0.4-0.2l-0.4-0.2l-0.6-0.2
	h-0.2l-0.6-0.2H704h-0.2h-0.6H703h-0.4h-0.6h-0.2h-0.4h-0.4h-0.2h-0.4H700h-0.2h-0.2h-0.2c0,0-0.8,0-1.7,0.6l-0.4,0.4
	c-0.4,0.4-0.6,0.8-0.6,1.7l0.2,0.2l0.2,0.2l0.2,0.2l0.4,0.2h0.4c0.2,0,0.4,0,0.6,0h0.2c0.2,0,0.4,0,0.6,0c2.3-0.2,3.4-1.3,3.4-1.3
	h0.2h0.2h0.2h0.2h0.2h0.2h0.2h0.2h0.2l0.2,0.2l0.2,0.2v0.2v0.2v0.2c0,0.2-0.2,0.4-0.4,0.6c-0.4,0.4-0.8,0.8-1.7,1.1
	c-0.6,0.2-1.3,0.4-1.9,0.6c-1.7,0.4-3.6,0.8-5.7,1.1h-0.2c-0.2,0-0.4,0-0.6,0h-0.2c-0.2,0-0.4,0-0.6,0h-0.4c-0.2,0-0.4,0-0.6,0
	s-0.6,0-0.8,0c-0.2,0-0.6,0-0.8,0.2h-0.2c-0.2,0-0.6,0.2-0.8,0.2c-0.2,0-0.6,0.2-0.8,0.2c-0.2,0-0.6,0.2-0.8,0.4
	c-0.4,0.2-1.1,0.4-1.5,0.8l-0.4,0.4l-0.2,0.2H686c-0.2,0.2-0.4,0.4-0.6,0.6c-0.4,0.4-0.6,1.1-0.8,1.7c0,0.2,0,0.4,0,0.8
	c0,0.4,0,0.8,0,1.3c0,0.2,0.2,0.6,0.2,0.8c0,0.2,0.2,0.4,0.4,0.8c0.2,0.2,0.2,0.4,0.4,0.8c0.6,0.8,1.5,1.9,3,2.5l0.2,0.2l0.4,0.2
	l0.2,0.2c0.4,0.2,0.8,0.4,1.5,0.6h0.2c0.4,0.2,1.1,0.2,1.5,0.4c0.2,0,0.4,0,0.6,0.2c0.2,0,0.4,0.2,0.6,0.2l0.4,0.2
	c0.2,0.2,0.6,0.2,0.8,0.4c0.6,0.4,1.1,1.1,1.3,1.9c0,0.2,0,0.4,0,0.6c0,1.3-1.3,2.5-2.3,3.2c-0.4,0.4-0.8,0.6-1.1,0.6
	c0,0-0.2,0.2-0.6,0.4c-0.4,0.2-1.1,0.6-1.5,1.3l0.2,0.2l-0.4,0.4c-0.8,0.8-1.5,2.1-1.5,3.2c0,1.3,1.1,2.8,1.9,3.8l0.4,0.4
	c0.4,0.4,1.1,0.8,1.3,1.3l0.2,0.2l0.4,0.2l0.2,0.2c0.2,0.2,0.4,0.6,0.6,0.8c0.2,0.2,0.2,0.6,0.2,0.8c0,0.4,0.2,0.6,0.2,1.1v0.4
	c0,0.4,0,0.8-0.2,1.3l-0.2,0.4c0,0.2-0.2,0.6-0.4,1.1c-0.2,0.4-0.4,0.6-0.6,1.1c0,0,2.3-1.7,2.3-5.1c0-1.5-0.6-2.8-1.1-3.6l-0.2-0.2
	l-0.2-0.2c-0.4-0.4-0.8-0.6-1.3-1.1c-0.2-0.2-0.4-0.2-0.6-0.4c-0.2-0.2-0.6-0.4-0.8-0.8c-0.4-0.4-0.6-1.1-0.6-1.7s0.2-1.1,0.6-1.7
	l0.2-0.4c0.2-0.2,0.4-0.4,0.6-0.6c0.2-0.2,0.4-0.2,0.6-0.4c0.6-0.4,1.1-0.6,1.5-0.8l0.2-0.2c0.2,0,0.4-0.2,0.6-0.4
	c1.5-0.8,3.4-2.5,3.6-5.5c0-0.8,0-1.5-0.2-2.1c0-0.2-0.2-0.4-0.2-0.6c-0.4-0.6-0.8-1.1-1.3-1.5l-0.4-0.2l-0.2-0.2
	c-0.4-0.2-1.1-0.4-1.7-0.8c-0.2,0-0.4-0.2-0.6-0.2c-0.2,0-0.4-0.2-0.6-0.2S693,368,693,368h-0.2c-0.2,0-0.4-0.2-0.8-0.2
	c-0.2,0-0.4-0.2-0.8-0.2l-0.4-0.2c-0.2-0.2-0.6-0.2-0.8-0.4l-0.4-0.2c-0.2-0.2-0.6-0.4-0.8-0.6c-0.2-0.2-0.4-0.4-0.6-0.6l-0.2-0.4
	c-0.2-0.4-0.4-0.8-0.2-1.3c0-1.7,1.7-2.8,3.4-3.4c0.2,0,0.4-0.2,0.6-0.2c0.2,0,0.4,0,0.6-0.2c0.2,0,0.4,0,0.6-0.2
	c0.4,0,1.1-0.2,1.5-0.2h0.4h0.4c0.6,0,1.1,0,1.7-0.2c0.2,0,0.6,0,0.8,0c0.4,0,0.8-0.2,1.3-0.2c0.2,0,0.6-0.2,0.8-0.2
	c0.4-0.2,1.1-0.2,1.5-0.4c0.8,0,1.7-0.2,2.5-0.6C704.2,357.6,704.9,357.4,705.3,357z"/>
<path fill="#121F2A" d="M692.8,397.5c1.5-2.5,1.3-4.5,0.6-5.7c-0.2-0.4-0.4-0.8-0.6-1.1c-0.2,0.2-0.4,0.4-0.6,1.1
	C691.5,392.8,691.3,394.7,692.8,397.5z"/>
<path fill="#121F2A" d="M689,332.2c0,1.1,0.4,2.1,1.3,2.8l0.4,21.8c0.4,0,1.3,0,2.1,0.2c0.8,0,1.5-0.2,2.1-0.2l0.4-21.8
	c0.8-0.6,1.3-1.7,1.3-2.8c0-2.1-1.7-3.8-3.8-3.8S689,330.1,689,332.2z"/>
<path fill="#121F2A" d="M671.4,345.1c1.7,0.2,3-0.2,3-0.2s-0.8,1.5,1.5,1.5c1.7,0,2.8-0.2,2.8-0.2s-0.4,1.3,1.3,1.3
	c1.5,0,3.2-1.1,3.2-1.1s-0.2,1.1,1.3,1.1c1.3,0,3.8-1.5,3.8-1.5v-5.3c0,0-3.2-5.7-7-5.7c-2.8,0-7.8,3-7.8,3s-4.5,2.5-9.8,1.3
	c0-0.2-1.7-0.8-1.5,0.6c0.2,1.5,2.5,2.5,4.7,2.8c0,0-0.4,1.3,1.3,1.3s2.8-0.4,2.8-0.4S669.7,344.9,671.4,345.1z"/>
<path fill="#121F2A" d="M691.1,389.2c-0.6,0.8-1.1,1.9-1.1,3.6c-0.2,3.4,2.3,5.1,2.3,5.1c-0.2-0.4-0.4-0.6-0.6-1.1v-0.2
	c0-0.2-0.2-0.4-0.2-0.8l-0.2-0.4c-0.2-0.4-0.2-0.8-0.2-1.3v-0.4c0-0.8,0.2-1.5,0.4-2.1c0.2-0.4,0.4-0.6,0.6-0.8l0.2-0.2
	c-0.2-0.2-0.6-0.4-0.8-0.6L691.1,389.2z"/>
<path fill="#121F2A" d="M689.8,357.4c-2.1-0.2-4-0.6-5.7-1.1c-0.6-0.2-1.3-0.4-1.9-0.6c-0.6-0.4-1.3-0.8-1.7-1.1
	c-0.2-0.2-0.2-0.4-0.4-0.6v-0.2v-0.2v-0.2l0.2-0.2l0.2-0.2h0.2h0.2h0.2h0.2h0.2h0.2h0.2h0.2h0.2c0,0,1.1,1.1,3.4,1.3
	c0.2,0,0.4,0,0.6,0h0.2c0.2,0,0.4,0,0.6,0h0.4l0.4-0.2l0.2-0.2l0.2-0.2l0.2-0.2c0-0.6-0.4-1.3-0.6-1.7l-0.4-0.4
	c-0.8-0.4-1.7-0.6-1.7-0.6h-0.2h-0.2h-0.2h-0.2h-0.4h-0.2h-0.4h-0.4h-0.2h-0.6h-0.4h-0.2h-0.6h-0.2h-0.4l-0.6,0.2h-0.2l-0.6,0.2
	l-0.4,0.2l-0.4,0.2l-0.4,0.2l-0.2,0.4l-0.2,0.4v0.4v0.2v0.4c0,0.4,0.2,0.8,0.4,1.1c0.2,0.4,0.4,0.6,0.8,1.1c1.5,1.5,4.2,2.5,6.6,3.2
	C686.9,358.5,688.1,357.8,689.8,357.4z"/>
<path fill="#121F2A" d="M692.8,378.2l0.2,0.2l0.2-0.2c0.2-0.2,0.8-0.6,1.5-1.1v-4.7c-0.4-0.2-0.8-0.4-1.3-0.4H693h-0.4
	c-0.6,0.2-1.1,0.2-1.3,0.4v4.7C691.9,377.5,692.4,378,692.8,378.2z"/>
<path fill="#121F2A" d="M693.8,361c-0.4,0-0.6-0.2-1.1-0.2s-0.8,0.2-1.1,0.2c-0.2,0-0.6,0.2-0.8,0.2l0.2,5.9
	c0.6,0.4,1.5,0.6,1.7,0.6c0.4-0.2,1.1-0.4,1.7-0.6l0.2-5.9C694.5,361.2,694.1,361,693.8,361z"/>
<path fill="#121F2A" d="M697,369.7c0.8-0.4,1.5-0.8,1.9-1.3c0.4-0.4,0.8-0.8,1.3-1.3c0.2-0.2,0.4-0.6,0.4-0.8
	c0.2-0.2,0.2-0.4,0.4-0.8c0-0.2,0.2-0.6,0.2-0.8c0-0.4,0-0.8,0-1.3c0-0.4,0-0.8,0-0.8c-0.2-0.6-0.4-1.1-0.8-1.7
	c-0.2-0.2-0.4-0.4-0.6-0.6h-0.2c-0.6,0.2-1.3,0.2-1.9,0.4c-0.6,0-1.3,0.2-1.9,0.2c-0.4,0-0.6,0-1.1,0c1.9,0.6,3.4,1.5,3.4,3.4
	c0,0.4,0,0.8-0.2,1.3l-0.2,0.4c-0.2,0.2-0.4,0.4-0.6,0.6c-0.2,0.2-0.4,0.4-0.8,0.6l-0.4,0.2c-0.2,0.2-0.6,0.4-0.8,0.4l-0.4,0.2
	c-0.2,0.2-0.6,0.2-0.8,0.2c0.2,0,0.4,0.2,0.8,0.2C695.5,368.9,696.6,369.5,697,369.7z"/>
<path fill="#121F2A" d="M594.2,269.9c-19.9,0-36,16.1-36,36c0,19.9,16.1,36,36,36s36-16.1,36-36C630.3,286,614.1,269.9,594.2,269.9z
	 M594.2,339.6c-18.4,0-33.5-15.1-33.5-33.5c0-18.4,15.1-33.5,33.5-33.5c18.4,0,33.5,15.1,33.5,33.5
	C627.9,324.5,612.7,339.6,594.2,339.6z"/>
<path fill="#121F2A" d="M594.8,286.4c-0.2,0-0.6,0-0.8,0h-0.4c-6.6,0.2-15.3,4.7-15.3,13.6h-2.5l6.4,7.8l7-7.8h-2.5
	c0.6-3.8,4-6.4,7.8-5.9h0.4c6.4,0,8.9,4.9,9.1,11.9c0.2,7.4-4,12.1-9.1,11.9c-5.3,0-7.2-2.5-8.1-6.4h-9.3c1.5,8.9,8.1,14,17.2,14
	c10.4,0,18-8.7,18-19.5C612.7,294.4,605.2,286.4,594.8,286.4z"/>
<path fill="#121F2A" d="M99.2,353c1.9,0,3.6,0.4,5.1,1.3l9.3-16.3c-9.1-5.3-19.7-5.3-28.8,0l9.3,16.3C95.6,353.4,97.3,353,99.2,353z
	"/>
<path fill="#121F2A" d="M104.3,371.8l9.5,16.3c9.1-5.3,14.4-14.4,14.4-25h-18.9C109.4,366.7,107.3,370.1,104.3,371.8z"/>
<path fill="#121F2A" d="M89,363.1H70.2c0,10.6,5.3,19.7,14.4,25l9.3-16.3C91.2,370.1,89,366.7,89,363.1z"/>
<circle fill="#121F2A" cx="99.2" cy="363.1" r="5.7"/>
<path fill="#121F2A" d="M99.2,326.9c-19.9,0-36,16.1-36,36c0,19.9,16.1,36,36,36s36-16.1,36-36S119.1,326.9,99.2,326.9z M99.2,396.6
	c-18.4,0-33.5-15.1-33.5-33.5c0-18.4,15.1-33.5,33.5-33.5c18.4,0,33.5,15.1,33.5,33.5C132.7,381.6,117.7,396.6,99.2,396.6z"/>
<path fill="#121F2A" d="M21.8,319.9c0-7.8-4.2-15.1-11-18.9l-0.4-0.2v-21.6l0.4-0.2c1.5-0.8,2.5-2.3,2.5-4v-0.2
	c0-2.3-1.9-4.5-4.5-4.5H0v19.3h7.2v13.6c0.2,0,0.4,0.2,0.6,0.2h0.2c0.2,0.2,0.4,0.2,0.6,0.4l0.2,0.2c0.4,0.2,1.1,0.6,1.5,0.8
	c0.4,0.2,0.8,0.6,1.3,0.8l0.2,0.2c0.4,0.4,0.8,0.6,1.1,1.1c0.4,0.4,0.8,0.8,1.1,1.3l0.2,0.2c0.2,0.4,0.6,0.6,0.8,1.1l0.2,0.2
	c0.6,0.8,1.1,1.9,1.7,3c1.1,2.3,1.5,4.7,1.5,7.2c0,10.2-8.3,18.2-18.2,18.2L0,338.3v3.2h0.2C12.1,341.5,21.8,331.8,21.8,319.9z"/>
<path fill="#121F2A" d="M593.2,114h1.3c4,0,7.2-3.2,7.2-7.2V77.6h-2.8V107c0,2.5-1.9,4.5-4.5,4.5h-1.3c-2.5,0-4.5-1.9-4.5-4.5V77.6
	h-2.8V107C586.2,110.9,589.3,114,593.2,114z"/>
<path fill="#121F2A" d="M672.4,125.5c4,0,7.2-3.2,7.2-7.2v-0.2c1.5,0,3.8,0,6.1,0.2c0.4,7,1.1,14.2,2.8,19.3c-1.5,1.5-3,3-4.5,4.2
	l-0.8,0.8c-1.3,1.1-7.4,6.8-8.7,9.1c-1.9,3.6-4.2,10.4,2.5,17.6c3,3.2,7.4,4.7,11.9,4.7c3.4,0,7-1.1,9.8-3c3.2-2.3,10-9.3,3-24.6
	c4.5-0.2,7.6-2.1,9.1-5.7c3-7.6,8.3-24.4,8.5-25.4c0.2-0.6,2.1-5.3-0.2-9.5c-1.5-2.8-4.5-4.5-8.7-5.3c-0.2-0.6-0.8-1.1-1.7-1.1
	c-1.1,0-1.9,0.8-1.9,1.9c0,1.1,0.8,1.9,1.9,1.9c0.6,0,1.1-0.2,1.5-0.6c3.6,0.6,5.9,2.1,7.2,4.2c1.9,3.4,0,7.6,0,7.8
	s-5.5,17.6-8.5,25.2c-1.1,3-3.6,4.5-7.6,4.5c-2.8,0-5.7-0.6-7.4-1.5c-1.1-0.6-2.1-2.1-3-4.2c2.5-3,4.9-6.4,6.1-11
	c0.8-3.4,0.2-5.9-1.5-8.1c-1.9-2.1-4.9-3.2-7.8-3.8c0-2.3-0.2-4.7-0.2-7v-0.8c0-2.1,0.6-3.8,1.7-4.7c1.7-1.3,4.2-1.3,5.5-1.1
	c0.2,0.6,0.8,1.1,1.7,1.1c1.1,0,1.9-0.8,1.9-1.9c0-1.1-0.8-1.9-1.9-1.9c-0.6,0-1.1,0.2-1.5,0.6c-1.5-0.2-4.7-0.2-6.8,1.5
	c-1.7,1.3-2.5,3.6-2.5,6.4v0.8c0,2.1,0,4.2,0.2,6.6c-3-0.4-5.5-0.2-6.6-0.2c-1.1-2.5-3.6-4.2-6.6-4.2c-4,0-7.2,3.2-7.2,7.2
	C665.4,122.3,668.6,125.5,672.4,125.5z M692.8,145c1.5,0.8,3.6,1.3,5.7,1.7c4.9,10.2,4.5,18.2-1.5,22.5c-5.5,3.8-13.8,3.2-18.2-1.5
	c-5.3-5.5-4-10.8-2.1-14.4c0.8-1.5,5.3-5.7,8.1-8.3l0.8-0.8c1.3-1.1,2.5-2.1,3.6-3.4C690.2,142.7,691.3,144.1,692.8,145z
	 M693.4,121.7c1.3,1.5,1.5,3.4,1.1,5.7c-0.8,3.4-2.5,6.4-4.5,8.7c-1.3-4.7-1.9-10.8-2.1-17.2C690,119.3,692.2,120.2,693.4,121.7z
	 M672.4,113.2c2.8,0,5.1,2.3,5.1,5.1c0,2.8-2.3,5.1-5.1,5.1s-5.1-2.3-5.1-5.1C667.3,115.5,669.7,113.2,672.4,113.2z"/>
<path fill="#121F2A" d="M495,124.4c1.9,0,3.6,0.4,5.1,1.3l9.3-16.3c-9.1-5.3-19.7-5.3-28.8,0l9.3,16.3
	C491.4,124.9,493.1,124.4,495,124.4z"/>
<path fill="#121F2A" d="M500.1,143.3l9.5,16.3c9.1-5.3,14.4-14.4,14.4-25h-18.9C505.2,138.2,503.1,141.6,500.1,143.3z"/>
<path fill="#121F2A" d="M485,134.4h-18.9c0,10.6,5.3,19.7,14.4,25l9.3-16.3C486.9,141.4,485,138.2,485,134.4z"/>
<circle fill="#121F2A" cx="495" cy="134.4" r="5.7"/>
<path fill="#121F2A" d="M495,98.4c-19.9,0-36,16.1-36,36s16.1,36,36,36s36-16.1,36-36S514.9,98.4,495,98.4z M495,168.1
	c-18.4,0-33.5-15.1-33.5-33.5c0-18.4,15.1-33.5,33.5-33.5s33.5,15.1,33.5,33.5C528.7,153,513.4,168.1,495,168.1z"/>
<path fill="#121F2A" d="M190.2,335.6c0,4,3.2,7.2,7.2,7.2h1.3c4,0,7.2-3.2,7.2-7.2v-53.2v-8.3h0.2c1.3,0,2.1-1.1,2.1-2.1
	c0-1.3-1.1-1.5-2.1-1.5h-16.1c-1.3,0-2.1,0.4-2.1,1.5c0,1.3,1.1,2.1,2.1,2.1h0.2v9.1V335.6z M203.1,295.3v40.3
	c0,2.5-1.9,4.5-4.5,4.5h-1.3c-2.5,0-4.5-1.9-4.5-4.5v-40.3H203.1z"/>
<path fill="#121F2A" d="M396,113c11.9,0,21.4-9.8,21.4-21.4c0-5.1-1.9-10-5.1-13.8h-4.5c0.2,0.2,0.6,0.6,0.8,0.8
	c0.4,0.4,0.8,0.8,1.1,1.3l0.2,0.2c0.2,0.4,0.6,0.6,0.8,1.1l0.2,0.2c0.6,0.8,1.1,1.9,1.7,3c1.1,2.3,1.5,4.7,1.5,7.2
	c0,10.2-8.3,18.2-18.2,18.2c-10.2,0-18.2-8.3-18.2-18.2c0-2.3,0.4-4.9,1.5-7.2c0.4-1.1,1.1-2.1,1.7-3l0.2-0.2
	c0.2-0.4,0.6-0.8,0.8-1.1l0.2-0.2c0.4-0.4,0.6-0.8,1.1-1.3c0.2-0.2,0.6-0.6,0.8-0.8h-4.5c-3.2,3.8-5.1,8.7-5.1,13.8
	C374.6,103.2,384.1,113,396,113z"/>
<path fill="#121F2A" d="M78.4,170.6h41.1c2.5,0,4.7-2.1,4.7-4.7v-5.7c0-2.5-2.1-4.7-4.7-4.7h-6.8v-6.4c0-2.5-2.1-4.7-4.7-4.7h-1.7
	v-1.7c1.7-0.6,3-2.3,3-4.2V128h-4.9c1.7-1.1,3-3,3-7.6c-0.2-6.4-7.6-20.8-8.3-22c-0.8,1.5-8.3,15.9-8.3,22c0,4.7,1.7,6.6,3.6,7.6H89
	v10.6c0,1.9,1.3,3.6,3,4.2v1.7h-1.7c-2.5,0-4.7,2.1-4.7,4.7v6.4h-7.2c-2.5,0-4.7,2.1-4.7,4.7v5.7C73.8,168.7,75.9,170.6,78.4,170.6z
	 M99.2,113.8c0.4,0.6,3.6,9.3,3.6,12.1c0,1.1-0.4,1.7-1.1,2.3h-5.3c-0.6-0.6-1.1-1.3-1.1-2.3C95.4,123.2,98.8,114.5,99.2,113.8z
	 M92.2,131.4h0.2H106v7.2c0,0.6-0.6,1.3-1.3,1.3H93.5c-0.6,0-1.3-0.6-1.3-1.3V131.4z M103,143.3v1.3h-7.8v-1.3H103z M88.8,149.2
	c0-0.6,0.6-1.3,1.3-1.3h1.7h14.4h1.9c0.6,0,1.3,0.6,1.3,1.3v6.4H88.8V149.2z M77.2,160.5c0-0.6,0.6-1.3,1.3-1.3h41.1
	c0.6,0,1.3,0.6,1.3,1.3v5.7c0,0.6-0.6,1.3-1.3,1.3H78.4c-0.6,0-1.3-0.6-1.3-1.3V160.5z"/>
<path fill="#121F2A" d="M80.8,251.8c1.5,8.3,7.2,14.4,14.6,17c-1.9,1.7-3,4-3,6.6c0,0.4,0,0.8,0,1.1h-9.3c-1.5,0-2.8,1.3-2.8,2.8
	v2.8c0,1.5,1.3,2.8,2.8,2.8h38.4c1.5,0,2.8-1.3,2.8-2.8v-2.8c0-1.5-1.3-2.8-2.8-2.8h-11.2c0-0.4,0-0.8,0-1.1c0-2.5-1.1-4.7-2.5-6.4
	c4.9-1.3,8.9-4,11.9-8.1h3.6v-2.5h-19.7v2.5h3.8c-0.8,0.4-1.9,0.6-3,0.8c-7.6,1.3-14.8-3.8-16.1-11.4c-0.8-4.5,0.6-8.9,3.8-12.1
	l12.9,12.9l7.4-7.4l-31.2-31.2l-7.4,7.4L86.7,233C81.8,238.1,79.7,245.1,80.8,251.8z M101.3,270.5c2.8,0,5.1,2.3,5.1,5.1
	c0,0.4,0,0.8-0.2,1.1h-9.8c0-0.4-0.2-0.8-0.2-1.1C96.2,272.8,98.6,270.5,101.3,270.5z"/>
<circle fill="#121F2A" cx="297" cy="248.9" r="5.3"/>
<path fill="#121F2A" d="M325,247.8c4.9-5.9,6.1-11.7,4-15.9c-1.9-3.6-6.6-5.7-12.9-5.7c-1.7,0-3.6,0.2-5.7,0.4
	c-3-8.7-7.8-14-13.4-14c-5.5,0-10.4,5.5-13.4,14.2c-1.9-0.2-3.8-0.4-5.5-0.4c-6.6,0-11.2,2.1-13.1,5.7c-2.3,4.5-0.2,10.6,4.9,16.7
	c-0.2,0.2-0.4,0.6-0.8,0.8c-4.9,6.1-6.4,11.7-4,15.9c1.9,3.6,6.6,5.7,12.9,5.7c1.7,0,3.6-0.2,5.7-0.4c3,8.7,7.8,14,13.4,14
	c5.5,0,10.4-5.5,13.4-14.2c1.9,0.2,3.8,0.4,5.5,0.4c6.6,0,11.2-2.1,13.1-5.7c2.3-4.5,0.2-10.6-4.9-16.7
	C324.3,248.4,324.6,248,325,247.8z M310.1,237.2c-1.7-1.1-3.6-2.1-5.5-3.2c-1.5-0.6-2.8-1.5-4.2-1.9c2.8-0.8,5.3-1.7,7.8-2.1
	C309.1,232.1,309.7,234.5,310.1,237.2z M297,215.4c4.2,0,8.1,4.7,10.6,11.9c-3.4,0.6-7,1.9-10.8,3.2c-3.6-1.5-7.2-2.5-10.6-3.2
	C288.9,220,292.8,215.4,297,215.4z M285.3,230c2.5,0.4,5.1,1.3,7.8,2.1c-1.5,0.6-2.8,1.3-4.2,2.1c-1.9,1.1-3.6,1.9-5.3,3.2
	C284.3,234.7,284.7,232.1,285.3,230z M277.9,268.8c-5.5,0-9.1-1.5-10.6-4.2c-1.7-3.2-0.2-7.8,3.8-12.9c0.2-0.2,0.4-0.4,0.4-0.6
	c2.5,2.5,5.7,5.3,9.1,7.6c0.4,3.4,1.1,6.8,1.9,9.8C281.1,268.8,279.4,268.8,277.9,268.8z M280.5,255.2c-2.8-1.9-5.1-4-7-6.1
	c2.1-2.1,4.5-4.2,7-6.1c-0.2,1.9-0.2,4-0.2,6.1C280.3,251,280.3,253.1,280.5,255.2z M280.7,239.3c-3.6,2.5-6.6,5.1-9.1,7.8
	c-4.2-5.3-6.1-10.4-4.5-13.8c1.5-2.8,5.3-4.2,10.8-4.2c1.5,0,3.2,0.2,4.7,0.4C281.7,232.5,281.1,235.7,280.7,239.3z M283.9,260.7
	c1.7,1.1,3.6,2.1,5.5,3.2c1.5,0.6,2.8,1.5,4.2,1.9c-2.8,0.8-5.3,1.7-7.8,2.1C284.7,265.8,284.3,263.3,283.9,260.7z M297,282.6
	c-4.2,0-8.1-4.7-10.6-11.9c3.4-0.6,7-1.9,10.8-3.2c3.6,1.5,7.2,2.5,10.6,3.2C305.1,277.7,301.2,282.6,297,282.6z M308.4,267.9
	c-2.5-0.4-5.1-1.3-7.8-2.1c1.5-0.6,2.8-1.3,4.2-2.1c1.9-1.1,3.6-1.9,5.3-3.2C309.7,263.3,309.1,265.6,308.4,267.9z M310.6,257.1
	c-2.1,1.5-4.7,3-7,4.2c-2.1,1.1-4.5,2.1-6.6,3c-2.1-0.8-4.5-1.9-6.6-3c-2.5-1.3-4.9-2.8-7.2-4.2c-0.2-2.8-0.4-5.5-0.4-8.3
	c0-2.8,0.2-5.5,0.4-8.3c2.1-1.5,4.7-3,7-4.2c2.1-1.1,4.5-2.1,6.6-3c2.1,0.8,4.5,1.9,6.6,3c2.5,1.3,4.9,2.8,7.2,4.2
	c0.2,2.8,0.4,5.5,0.4,8.3C311,251.8,311,254.6,310.6,257.1z M326.7,264.3c-1.5,2.8-5.3,4.2-10.8,4.2c-1.5,0-3.2-0.2-4.7-0.4
	c0.8-3,1.5-6.1,1.9-9.8c3.6-2.5,6.6-5.1,9.1-7.8C326.7,256.1,328.6,261,326.7,264.3z M313.5,242.7c2.8,1.9,5.1,4,7,6.1
	c-2.1,2.1-4.5,4.2-7,6.1c0.2-1.9,0.2-4,0.2-6.1C313.7,246.7,313.7,244.6,313.5,242.7z M322.9,246.3c-0.2,0.2-0.4,0.4-0.4,0.6
	c-2.5-2.5-5.7-5.3-9.1-7.6c-0.4-3.4-1.1-6.8-1.9-9.8c1.7-0.2,3.4-0.4,4.9-0.4c5.5,0,9.1,1.5,10.6,4.2
	C328.4,236.4,326.9,241,322.9,246.3z"/>
<polygon fill="#121F2A" points="169.4,171.1 169.4,182.3 178.5,182.3 187.6,173.2 187.6,163.9 176.6,163.9 "/>
<path fill="#121F2A" d="M169.4,192.5v1.3v4.9h8.1l-3.6-5.1h9.8c0.4,7.6,6.4,13.6,14,14v9.3l-5.1-3.6v8.1h4.9h1.3h4.9v-8.1l-4.9,3.6
	v-9.3c7.6-0.4,13.6-6.4,14-14h9.8l-3.6,4.9h8.1v-4.9v-1.3v-4.9h-8.1l3.6,4.9h-9.8c-0.4-7.6-6.4-13.6-14-14v-10l4.9,3.6v-8.1h-4.9
	h-1.3h-4.9v8.1l4.9-3.6v10c-7.6,0.4-13.6,6.4-14,14h-9.5l3.6-4.9h-8.1V192.5z M194,186.5c2.1,0,3.8,1.5,4,3.4c0.2-1.9,1.9-3.4,4-3.4
	c2.3,0,4,1.9,4,4c0,1.1-0.4,1.9-0.8,2.5l-7.2,8.1l-7.2-8.1c-0.6-0.6-0.8-1.7-0.8-2.5C189.9,188.5,191.9,186.5,194,186.5z"/>
<polygon fill="#121F2A" points="169.4,214.1 176.6,221.3 187.6,221.3 187.6,212.2 178.7,203.1 169.4,203.1 "/>
<polygon fill="#121F2A" points="226.8,214.1 226.8,203.1 217.7,203.1 208.6,212.2 208.6,221.3 219.6,221.3 "/>
<polygon fill="#121F2A" points="208.6,173 217.5,182.3 226.8,182.3 226.8,171.1 219.6,163.9 208.6,163.9 "/>
<path fill="#121F2A" d="M393.2,192.5c-21.2,15.7-20.1,28-20.1,28.6c0,0.8,0.8,1.5,1.7,1.5h0.2c0.8,0,1.5-0.8,1.5-1.9
	c0-0.2-0.8-11.7,19.5-26.3c20.4,14.6,19.5,26.1,19.5,26.1c-0.2,0.8,0.6,1.7,1.5,1.9h0.2c0.8,0,1.5-0.6,1.7-1.5
	c0-0.6,1.3-12.9-20.1-28.6c19.7-13.8,20.1-29.5,20.1-30.1c0-0.8-0.8-1.7-1.7-1.7s-1.7,0.8-1.7,1.7c0,0.2-0.2,15.1-19.3,28l-0.4,0.2
	l-0.4-0.2c-18.9-12.7-19.3-27.8-19.3-28c0-0.8-0.8-1.7-1.7-1.7c-0.8,0-1.7,0.8-1.7,1.7C373.1,163,373.3,178.7,393.2,192.5z"/>
<path fill="#121F2A" d="M409.8,167.5c0-0.8-0.8-1.7-1.7-1.7h-24c-0.8,0-1.7,0.8-1.7,1.7s0.8,1.7,1.7,1.7h24
	C408.9,168.9,409.8,168.3,409.8,167.5z"/>
<path fill="#121F2A" d="M406.2,174.5c0-0.8-0.8-1.7-1.7-1.7h-17c-0.8,0-1.7,0.8-1.7,1.7s0.8,1.7,1.7,1.7h17
	C405.3,176.2,406.2,175.5,406.2,174.5z"/>
<path fill="#121F2A" d="M393.9,180c-0.8,0-1.7,0.8-1.7,1.7s0.8,1.7,1.7,1.7h4.5c0.8,0,1.7-0.8,1.7-1.7c0-0.8-0.8-1.7-1.7-1.7H393.9z
	"/>
<path fill="#121F2A" d="M409.8,218.8c0-0.8-0.8-1.7-1.7-1.7h-24c-0.8,0-1.7,0.8-1.7,1.7c0,0.8,0.8,1.7,1.7,1.7h24
	C408.9,220.2,409.8,219.6,409.8,218.8z"/>
<path fill="#121F2A" d="M386,211.6c0,0.8,0.8,1.7,1.7,1.7h17c0.8,0,1.7-0.8,1.7-1.7s-0.8-1.7-1.7-1.7h-17
	C386.7,209.9,386,210.7,386,211.6z"/>
<path fill="#121F2A" d="M398.3,206c0.8,0,1.7-0.8,1.7-1.7s-0.8-1.7-1.7-1.7h-4.5c-0.8,0-1.7,0.8-1.7,1.7s0.8,1.7,1.7,1.7H398.3z"/>
<path fill="#121F2A" d="M374.2,339.6c0.4,1.7,1.9,3.2,3.6,3.6l14,3.8c1.7,0.4,3.6-0.2,4.9-1.3l10.2-10.2c0.2-0.2,0.4-0.4,0.6-0.6
	l13.8,3.6l1.1-3.6l-14-3.8v-0.4l-3.8-14c0-0.2-0.2-0.4-0.2-0.8c0.2-0.2,0.4-0.2,0.6-0.4l10.2-10.2c1.1-1.1,1.7-3.2,1.3-4.9l-3.8-14
	c-0.4-1.5-1.9-3.2-3.6-3.6l-14-3.8c-0.2,0-0.4,0-0.6-0.2l-3.6-13.8l-3.6,1.1l3.6,13.8c-0.2,0.2-0.4,0.2-0.6,0.4l-10.2,10.2
	c-1.1,1.1-1.7,3.2-1.3,4.9l3.8,14c0,0.2,0.2,0.4,0.2,0.8c-0.2,0.2-0.4,0.2-0.6,0.4l-10.2,10.2c-1.1,1.1-1.7,3.2-1.3,4.9L374.2,339.6
	z M382,294.4c0-0.2,0-1.1,0.4-1.3l10.2-10.2c0.2-0.2,0.8-0.4,1.3-0.4l14,3.8c0.2,0,0.8,0.6,0.8,0.8l3.8,14c0,0.2,0,1.1-0.4,1.3
	l-10.2,10.2c-0.2,0.2-0.8,0.4-1.3,0.4l-14-3.8c-0.2,0-0.8-0.6-0.8-0.8L382,294.4z M374.4,323.5l10.2-10.2c0.2-0.2,0.8-0.4,1.3-0.4
	l14,3.8c0.2,0,0.8,0.6,0.8,0.8l3.8,14c0,0.2,0,1.1-0.4,1.3L393.9,343c-0.2,0.2-0.8,0.4-1.3,0.4l-14-3.8c-0.2,0-0.8-0.6-0.8-0.8
	l-3.8-14C374,324.3,374.2,323.7,374.4,323.5z"/>
<path fill="#121F2A" d="M306.8,117.6c0,0,1.7,1.1,3.2,1.1c1.7,0,1.3-1.3,1.3-1.3s1.1,0.2,2.8,0.2c2.3,0,1.5-1.5,1.5-1.5
	s1.5,0.4,3,0.2c1.7-0.2,0.6-1.7,0.6-1.7s1.1,0.4,2.8,0.4c1.7,0,1.3-1.3,1.3-1.3c2.1-0.2,4.5-1.3,4.7-2.8c0.2-1.5-1.5-0.8-1.5-0.8
	c-5.5,1.3-9.8-1.3-9.8-1.3s-5.1-3-7.8-3c-3.8,0-7,5.7-7,5.7v5.3c0,0,2.8,1.5,3.8,1.5C307,118.7,306.8,117.6,306.8,117.6z"/>
<path fill="#121F2A" d="M290.6,121.7h-0.2h-0.2H290h-0.4h-0.2h-0.4h-0.4h-0.2h-0.6h-0.4H287h-0.6h-0.2h-0.4l-0.6,0.2h-0.2l-0.6,0.2
	l-0.4,0.2l-0.4,0.2l-0.4,0.2l-0.2,0.4l-0.2,0.4v0.4v0.2v0.4c0,0.4,0.2,0.8,0.4,1.1c0.2,0.4,0.4,0.6,0.8,1.1c1.5,1.5,4.2,2.5,6.6,3.2
	c1.1-0.8,2.3-1.5,3.8-1.9h0.2c-2.1-0.2-4.2-0.4-5.7-1.1c-0.6-0.2-1.3-0.4-1.9-0.6c-0.6-0.4-1.3-0.8-1.7-1.1
	c-0.2-0.2-0.2-0.4-0.4-0.6v-0.2v-0.2V124l0.2-0.2l0.2-0.2h0.2h0.2h0.2h0.2h0.2h0.2h0.2h0.2h0.2c0,0,0.6,0.6,1.9,1.1
	c0.4,0.2,0.8,0.2,1.5,0.4c0.2,0,0.4,0,0.6,0h0.2c0.2,0,0.4,0,0.6,0h0.4l0.4-0.2l0.2-0.2l0.2-0.2l0.2-0.2c0-0.6-0.4-1.3-0.6-1.7
	l-0.4-0.4c-0.4-0.2-1.3-0.4-1.5-0.4H290.6z"/>
<path fill="#121F2A" d="M266.3,111.3c0.2,1.5,2.5,2.5,4.7,2.8c0,0-0.4,1.3,1.3,1.3s2.8-0.4,2.8-0.4s-1.1,1.5,0.6,1.7
	c1.7,0.2,3-0.2,3-0.2s-0.8,1.5,1.5,1.5c1.7,0,2.8-0.2,2.8-0.2s-0.4,1.3,1.3,1.3c1.5,0,3.2-1.1,3.2-1.1s-0.2,1.1,1.3,1.1
	c1.3,0,3.8-1.5,3.8-1.5v-5.3c0,0-3.2-5.7-7-5.7c-2.8,0-7.8,3-7.8,3s-4.5,2.5-9.8,1.3C267.7,110.4,266,109.8,266.3,111.3z"/>
<path fill="#121F2A" d="M300.2,124.2l0.2,0.4l0.2,0.2l0.2,0.2l0.4,0.2h0.4c0.2,0,0.4,0,0.6,0h0.2c0.2,0,0.4,0,0.6,0
	c0.6,0,1.1-0.2,1.5-0.4c1.3-0.4,1.9-1.1,1.9-1.1h0.2h0.2h0.2h0.2h0.2h0.2h0.2h0.2h0.2l1.1,0.4l0.2,0.2v0.2v0.2v0.2
	c0,0.2-0.2,0.4-0.4,0.6c-0.4,0.4-0.8,0.8-1.7,1.1c-0.6,0.2-1.3,0.4-1.9,0.6c-1.7,0.4-3.6,0.8-5.7,1.1h-0.2c-0.2,0-0.4,0-0.6,0h-0.2
	c-0.2,0-0.4,0-0.6,0h-0.4c-0.2,0-0.4,0-0.6,0c-0.2,0-0.6,0-0.8,0s-0.6,0-0.8,0.2h-0.2c-0.2,0-0.6,0.2-0.8,0.2s-0.6,0.2-0.8,0.2
	s-0.6,0.2-0.8,0.4c-0.4,0.2-1.1,0.4-1.5,0.8l-0.4,0.4l-0.2,0.2h-0.2c-0.2,0.2-0.4,0.4-0.6,0.6c-0.4,0.4-0.6,1.1-0.8,1.7
	c0,0.2,0,0.4,0,0.8c0,0.4,0,0.8,0,1.3c0,0.2,0.2,0.6,0.2,0.8c0,0.2,0.2,0.4,0.4,0.8c0.2,0.2,0.2,0.4,0.4,0.8c0.6,0.8,1.5,1.9,3,2.5
	l0.2,0.2l0.4,0.2l0.2,0.2c0.4,0.2,0.8,0.4,1.5,0.6h0.2c0.4,0.2,1.1,0.2,1.5,0.4c0.2,0,0.4,0,0.6,0.2c0.2,0,0.4,0.2,0.6,0.2l0.4,0.2
	c0.2,0.2,0.6,0.2,0.8,0.4c0.6,0.4,1.1,1.1,1.3,1.9c0,0.2,0,0.4,0,0.6c0,1.3-1.3,2.5-2.3,3.2c-0.4,0.4-0.8,0.6-1.1,0.6
	c0,0-0.2,0.2-0.6,0.4c-0.4,0.2-1.1,0.6-1.5,1.3l-0.2,0.2l-0.4,0.4c-0.8,0.8-1.5,2.1-1.5,3.2c0,1.3,1.1,2.8,1.9,3.8l0.4,0.4
	c0.4,0.4,1.1,0.8,1.3,1.3l0.2,0.2l0.4,0.2l0.2,0.2c0.2,0.2,0.4,0.6,0.6,0.8c0.2,0.6,0.4,1.3,0.4,2.1v0.4c0,0.4,0,0.8-0.2,1.3
	l-0.2,0.4c0,0.2-0.2,0.6-0.4,1.1c-0.2,0.4-0.4,0.6-0.6,1.1c0,0,2.3-1.7,2.3-5.1c0-1.5-0.6-2.8-1.1-3.6l-0.2-0.2l-0.2-0.2
	c-0.3-0.3-0.7-0.6-1-0.9l0.2-0.2c0.8-0.6,1.1-1.3,1.1-1.9s-0.2-1.1-0.6-1.7c-0.2-0.2-0.4-0.4-0.6-0.6c-0.2,0.2-0.4,0.4-0.6,0.6
	c-0.4,0.6-0.6,1.1-0.6,1.7c0,0.6,0.4,1.3,1.1,1.9c-0.2-0.2-0.4-0.2-0.6-0.4c-0.2-0.2-0.6-0.4-0.8-0.8c-0.4-0.4-0.6-1.1-0.6-1.7
	c0-0.6,0.2-1.1,0.6-1.7l0.2-0.4c0.2-0.2,0.4-0.4,0.6-0.6c0.2-0.2,0.4-0.2,0.6-0.4c0.6-0.4,1.1-0.6,1.5-0.8l0.2-0.2
	c0.2,0,0.4-0.2,0.6-0.4c1.5-0.8,3.4-2.5,3.6-5.5c0-0.8,0-1.5-0.2-2.1c0-0.2-0.2-0.4-0.2-0.6c-0.4-0.5-0.7-0.9-1.1-1.3c0,0,0,0,0,0
	c1.5-0.8,2.5-1.7,3.2-2.5c0.2-0.2,0.4-0.6,0.4-0.8c0.2-0.2,0.2-0.4,0.4-0.8c0-0.2,0.2-0.6,0.2-0.8c0-0.4,0-0.8,0-1.3
	c0-0.4,0-0.8,0-0.8c-0.2-0.6-0.4-1.1-0.8-1.7c-0.2-0.2-0.4-0.4-0.6-0.6h-0.2c-0.6,0.2-1.3,0.2-1.9,0.4c-0.6,0-1.3,0.2-1.9,0.2
	c-0.4,0-0.6,0-1.1,0c1.9,0.6,3.4,1.5,3.4,3.4c0,0.4,0,0.8-0.2,1.3l-0.2,0.4c-0.2,0.2-0.4,0.4-0.6,0.6c-0.2,0.2-0.4,0.4-0.8,0.6
	l-0.4,0.2c-0.2,0.2-0.6,0.4-0.8,0.4l-0.4,0.2c-0.1,0.1-0.2,0.1-0.2,0.1c-0.1-0.1-0.3-0.1-0.4-0.1c-0.2,0-0.4-0.2-0.6-0.2
	c-0.1,0-0.2,0-0.2-0.1c0.4-0.2,1-0.4,1.5-0.6l0.2-5.9c-0.2,0-0.6-0.2-0.8-0.2c-0.4,0-0.6-0.2-1.1-0.2c-0.4,0-0.8,0.2-1.1,0.2
	c-0.2,0-0.6,0.2-0.8,0.2l0.2,5.9c0,0,0,0,0.1,0c-0.1,0-0.2,0-0.3,0l-0.4-0.2c-0.2-0.2-0.6-0.2-0.8-0.4l-0.4-0.2
	c-0.2-0.2-0.6-0.4-0.8-0.6s-0.4-0.4-0.6-0.6l-0.2-0.4c-0.2-0.4-0.4-0.8-0.2-1.3c0-1.7,1.7-2.8,3.4-3.4c0.2,0,0.4-0.2,0.6-0.2
	c0.2,0,0.4,0,0.6-0.2c0.2,0,0.4,0,0.6-0.2c0.4,0,1.1-0.2,1.5-0.2h0.4h0.4c0.6,0,1.1,0,1.7-0.2c0.2,0,0.6,0,0.8,0
	c0.4,0,0.8-0.2,1.3-0.2c0.2,0,0.6-0.2,0.8-0.2c0.4-0.2,1.1-0.2,1.5-0.4c0.8-0.2,1.7-0.6,2.3-1.1c0.4-0.2,1.1-0.4,1.5-0.8
	c1.3-0.8,2.1-1.9,2.3-3.2V124v-0.2v-0.4l-0.2-0.4l-0.2-0.4l-0.4-0.2l-0.4-0.2l-0.4-0.2l-0.6-0.2h-0.2l-0.6-0.2l-0.4-0.2h-0.2H307
	h-0.2h-0.4h-0.6h-0.2h-0.4h-0.4h-0.2H304h-0.2h-0.2h-0.2h-0.2c0,0-0.8,0-1.7,0.6l-0.4,0.4C300.6,122.9,300.2,123.6,300.2,124.2z
	 M300.6,140.8L300.6,140.8c0,0,0.1,0.1,0.2,0.1L300.6,140.8z"/>
<path fill="#121F2A" d="M297,128.2c0.8,0,1.5-0.2,2.1-0.2l0.4-21.8c0.8-0.6,1.3-1.7,1.3-2.8c0-2.1-1.7-3.8-3.8-3.8s-3.8,1.7-3.8,3.8
	c0,1.1,0.4,2.1,1.3,2.8l0.4,21.8C295.5,128.2,296.2,128.2,297,128.2z"/>
<path fill="#121F2A" d="M297.4,158.8c0.2,0.2,0.4,0.4,0.8,0.6l0.6,0.2c1.1-1.1,1.9-2.5,1.9-3.8c0-1.1-0.6-2.3-1.5-3.2h-0.2h-0.2
	l-0.4,0.2c-0.2,0.2-0.6,0.4-1.1,0.6c0.2,0.2,0.4,0.4,0.6,0.6l0.2,0.4c0.2,0.4,0.4,1.1,0.6,1.7c0,0.6-0.2,1.3-0.6,1.7
	C298.1,158.1,297.8,158.6,297.4,158.8z"/>
<path fill="#121F2A" d="M296.8,149.7l0.2,0.2l0.2-0.2c0.2-0.2,0.8-0.6,1.5-1.1v-4.7c-0.4-0.2-0.8-0.4-1.3-0.4H297h-0.4
	c-0.6,0.2-1.1,0.2-1.3,0.4v4.7C295.9,149,296.4,149.4,296.8,149.7z"/>
<path fill="#121F2A" d="M293,141.8c-0.6,0.4-1.3,1.3-1.7,2.1c-0.2,0.6-0.4,1.3-0.2,2.1c0.2,3,2.1,4.7,3.6,5.5
	c0.2-0.2,0.6-0.6,0.8-0.8c0.4-0.2,0.6-0.6,1.1-0.8c0,0-0.4-0.2-1.1-0.6c-0.8-0.8-2.1-1.9-2.3-3.2c0-0.2,0-0.4,0-0.6
	c0.2-0.8,0.6-1.5,1.3-1.9c0.2-0.2,0.4-0.2,0.8-0.4l0.4-0.2l-0.4-0.2C294.5,142.7,293.6,142.2,293,141.8z"/>
<path fill="#121F2A" d="M295.3,160.7c-0.6,0.8-1.1,1.9-1.1,3.6c-0.2,3.4,2.3,5.1,2.3,5.1c-0.2-0.4-0.4-0.6-0.6-1.1v-0.2
	c0-0.2-0.2-0.4-0.2-0.8l-0.2-0.4c-0.2-0.4-0.2-0.8-0.2-1.3v-0.4c0-0.8,0.2-1.5,0.4-2.1c0.2-0.4,0.4-0.6,0.6-0.8l0.2-0.2
	c-0.2-0.2-0.6-0.4-0.8-0.6L295.3,160.7z"/>
<path fill="#121F2A" d="M297,168.7c1.5-2.5,1.3-4.5,0.6-5.7c-0.2-0.4-0.4-0.8-0.6-1.1c-0.2,0.2-0.4,0.4-0.6,1.1
	C295.7,164.3,295.5,166.2,297,168.7z"/>
<path fill="#121F2A" d="M2.1,185.3l0.4-21.8c0.8-0.6,1.3-1.7,1.3-2.8c0-2.1-1.7-3.8-3.8-3.8v28.4C0.8,185.5,1.7,185.3,2.1,185.3z"/>
<path fill="#121F2A" d="M1.3,213.5c0-0.4-0.2-1.1-0.6-1.7c0-0.2-0.2-0.4-0.6-0.6v4.2h0.2C1.1,214.7,1.3,214.1,1.3,213.5z"/>
<path fill="#121F2A" d="M27.3,167.5c-5.5,1.3-9.8-1.3-9.8-1.3s-5.1-3-7.8-3c-3.8,0-7,5.7-7,5.7v5.3c0,0,2.8,1.5,3.8,1.5
	c1.5,0,1.3-1.1,1.3-1.1s1.7,1.1,3.2,1.1c1.7,0,1.3-1.3,1.3-1.3s1.1,0.2,2.8,0.2c2.3,0,1.5-1.5,1.5-1.5s1.5,0.4,3,0.2
	c1.7-0.2,0.6-1.7,0.6-1.7s1.1,0.4,2.8,0.4s1.3-1.3,1.3-1.3c2.1,0.2,4.5-1.1,4.7-2.5S27.3,167.5,27.3,167.5z"/>
<path fill="#121F2A" d="M3.6,195.7l-0.4,0.2c-0.2,0.2-0.6,0.4-0.8,0.4l-0.4,0.2c-0.2,0.2-0.6,0.2-0.8,0.2c0.2,0,0.4,0.2,0.8,0.2
	c0.8,0.4,1.9,0.8,2.3,1.1c1.5-0.8,2.5-1.7,3-2.5c0.2-0.2,0.4-0.6,0.4-0.8c0.2-0.2,0.2-0.4,0.4-0.8c0-0.2,0.2-0.6,0.2-0.8
	c0-0.4,0-0.8,0-1.3c0-0.4,0-0.8,0-0.8c-0.2-0.6-0.4-1.1-0.8-1.7c-0.2-0.2-0.4-0.4-0.6-0.6H6.6c-0.6,0.2-1.3,0.2-1.9,0.4
	c-0.6,0-1.3,0.2-1.9,0.2c-0.4,0-0.6,0-1.1,0c1.9,0.6,3.4,1.5,3.4,3.4c0,0.4,0,0.8-0.2,1.3l0.2,0.6c-0.2,0.2-0.4,0.4-0.6,0.6
	C4.2,195.2,4,195.4,3.6,195.7z"/>
<path fill="#121F2A" d="M1.9,205.8v-4.7c-0.4-0.2-0.8-0.4-1.3-0.4L0,200.5v6.4h0.4C0.6,206.7,1.3,206.3,1.9,205.8z"/>
<path fill="#121F2A" d="M14.4,180.6l-0.4-0.2l-0.4-0.2l-0.8-0.4l-0.6-0.2h-0.2l-0.4-0.2H11h-0.2h-0.6H10H9.5H8.9H8.7H8.3H7.8H7.6
	H7.2H7H6.8H6.6H6.4c0,0-0.8,0-1.7,0.6l-0.4,0.4c-0.4,0.4-0.6,0.8-0.6,1.7l0.2,0.2l0.2,0.2l0.2,0.2l0.4,0.2h0.4c0.2,0,0.4,0,0.6,0
	h0.2c0.2,0,0.4,0,0.6,0c0.6,0,1.1-0.2,1.5-0.4c1.3-0.4,1.9-1.1,1.9-1.1h0.2h0.2h0.2h0.2H11h0.2h0.2h0.2h0.2h0.6l0.2,0.2v0.2v0.2v0.2
	c0,0.2-0.2,0.4-0.4,0.6c-0.4,0.4-0.8,0.8-1.7,1.1c-0.6,0.2-1.3,0.4-1.9,0.6c-1.7,0.4-3.6,0.8-5.7,1.1H2.8c-0.2,0-0.4,0-0.6,0H1.9
	c-0.2,0-0.4,0-0.6,0H0.8c-0.2,0-0.4,0-0.6,0v2.5c0.4,0.4,0.8,0.4,1.5,0.4h0.4h0.4c0.6,0,1.1,0,1.7-0.2c0.2,0,0.6,0,0.8,0
	c0.4,0,0.8-0.2,1.3-0.2c0.2,0,0.6-0.2,0.8-0.2c0.4-0.2,1.1-0.2,1.5-0.4c0.8-0.2,1.7-0.6,2.3-1.1c0.4-0.2,1.1-0.4,1.5-0.8
	c1.3-0.8,2.1-1.9,2.3-3.2v-0.4v-0.2v-0.4l-0.2-0.4L14.4,180.6z"/>
<path fill="#121F2A" d="M0.8,220.2c-0.2-0.4-0.6-0.6-0.8-0.8v0.2v6.4C1.7,223.4,1.3,221.5,0.8,220.2z"/>
<path fill="#121F2A" d="M1.9,209.2c0.2,0,0.4-0.2,0.6-0.2c1.5-0.8,3.4-2.5,3.6-5.5c0-0.8,0-1.5-0.2-2.1c0-0.2-0.2-0.4-0.2-0.6
	c-0.4-0.6-0.8-1.1-1.3-1.5L4,199.1l-0.2-0.2c-0.4-0.2-1.1-0.4-1.7-0.8c-0.2,0-0.4-0.2-0.6-0.2s-0.4-0.2-0.6-0.2s-0.4-0.2-0.4-0.2
	v2.8c0.2,0,0.4,0,0.6,0.2c0.2,0,0.4,0.2,0.6,0.2l0.4,0.2c0-0.2,0.2,0,0.6,0c0.6,0.4,1.1,1.1,1.3,1.9c0,0.2,0,0.4,0,0.6
	c0,1.3-1.3,2.5-2.3,3.2c-0.4,0.4-0.8,0.6-1.1,0.6c0,0-0.2,0.2-0.6,0.4v2.5c0.6,0,1.3-0.4,1.7-0.6L1.9,209.2z"/>
<path fill="#121F2A" d="M2.1,189.9c-0.2,0-0.6-0.2-0.8-0.2c-0.4,0-0.6-0.2-1.1-0.2l-0.2,7c0.4-0.2,1.1-0.4,1.9-0.6L2.1,189.9z"/>
<path fill="#121F2A" d="M1.7,223.6l-0.2,0.4c0,0.2-0.2,0.6-0.4,1.1c-0.2,0.4-0.2,0.8-0.4,1.3c0,0,2.3-1.7,2.3-5.1
	c0-1.5-0.6-2.8-1.1-3.6l-0.2-0.2l-0.2-0.2c-0.4-0.4-0.8-0.6-1.3-1.1v2.1v0.2l0.4,0.2l0.2,0.2c0.2,0.2,0.4,0.6,0.6,0.8
	c0.2,0.6,0.4,1.3,0.4,2.1v0.4C1.9,222.8,1.9,223.2,1.7,223.6z"/>
<path fill="#121F2A" d="M0.6,215.8c0.2,0.2,0.4,0.4,0.8,0.6l0.4,0.4c1.1-1.1,1.9-2.5,1.9-3.8c0-1.1-0.6-2.3-1.5-3.2H2.1H1.9
	l-0.4,0.2c-0.2,0.2-0.6,0.4-1.1,0.6c0.2,0.2,0.4,0.4,0.6,0.6l0.2,0.4c0.6,0.6,0.8,1.1,0.8,1.7s-0.2,1.3-0.6,1.7
	C1.3,215.4,1.1,215.6,0.6,215.8z"/>
<polygon fill="#121F2A" points="188,77.6 184.9,77.6 186.3,79.3 "/>
<path fill="#121F2A" d="M198.4,110.9c-18.4,0-33.5-15.1-33.5-33.3h-2.5c0,19.7,16.1,35.8,36,35.8c19.9,0,36-16.1,36-35.8h-2.5
	C231.7,96,216.9,110.9,198.4,110.9z"/>
<path fill="#121F2A" d="M198.8,96.9c10.4,0,17.8-8.5,18-19.3h-8.7c0.2,7.2-4,11.7-9.1,11.7c-5.3,0-7.2-2.5-8.1-6.4h-9.3
	C183.2,91.6,189.7,96.9,198.8,96.9z"/>
<path fill="#121F2A" d="M503.3,240.4v-23.5h0.2c1.3,0,2.3-1.1,2.3-2.3s-1.1-1.7-2.3-1.7h-17c-1.3,0-2.3,0.4-2.3,1.7s1.1,2.3,2.3,2.3
	h0.2v23.5l-16.1,36.5c-1.1,2.1-0.8,4.5,0.2,6.1c1.1,1.7,3,2.5,5.5,2.5h37.5c2.3,0,4.5-0.8,5.5-2.5c1.1-1.7,1.1-3.8,0.2-6.1
	L503.3,240.4z M516.4,281.1c-0.4,0.6-1.3,1.1-2.5,1.1h-37.5c-1.3,0-2.1-0.4-2.5-1.1c-0.4-0.6-0.4-1.7,0-2.8l11.9-26.9h18.7
	l11.9,26.9C516.8,279.4,516.8,280.5,516.4,281.1z"/>
<path fill="#121F2A" d="M314.4,329.2c-0.2-0.6-0.8-1.1-1.7-1.1c-1.1,0-1.9,0.8-1.9,1.9s0.8,1.9,1.9,1.9c0.6,0,1.1-0.2,1.5-0.6
	c3.6,0.6,5.9,2.1,7.2,4.2c1.9,3.4,0,7.6,0,7.8c0,0.2-5.5,17.6-8.5,25.4c-1.1,3-3.6,4.5-7.6,4.5c-2.8,0-5.7-0.6-7.4-1.5
	c-1.1-0.6-2.1-2.1-3-4.2c2.5-3,4.9-6.4,6.1-11c0.8-3.4,0.2-5.9-1.5-8.1c-1.9-2.1-4.9-3.2-7.8-3.8c0-2.3-0.2-4.7-0.2-7v-0.8
	c0-2.1,0.6-3.8,1.7-4.7c1.7-1.3,4.2-1.3,5.5-1.1c0.2,0.6,0.8,1.1,1.7,1.1c1.1,0,1.9-0.8,1.9-1.9s-0.8-1.9-1.9-1.9
	c-0.6,0-1.1,0.2-1.5,0.6c-1.5-0.2-4.7-0.2-6.8,1.5c-1.7,1.3-2.5,3.6-2.5,6.4v0.8c0,2.1,0,4.2,0.2,6.6c-3-0.4-5.5-0.2-6.6-0.2
	c-1.1-2.5-3.6-4.2-6.6-4.2c-4,0-7.2,3.2-7.2,7.2s3.2,7.2,7.2,7.2s7.2-3.2,7.2-7.2v-0.2c1.5,0,3.8,0,6.1,0.2c0.4,7,1.1,14.2,2.8,19.3
	c-1.5,1.5-3,3-4.5,4.2l-0.8,0.8c-1.3,1.1-7.4,6.8-8.7,9.1c-1.9,3.6-4.2,10.4,2.5,17.6c3,3.2,7.4,4.7,11.9,4.7c3.4,0,7-1.1,9.8-3
	c3.2-2.3,10-9.3,3-24.6c4.5-0.2,7.6-2.1,9.1-5.7c3-7.6,8.3-24.4,8.5-25.4c0.2-0.6,2.1-5.3-0.2-9.5
	C321.6,331.8,318.6,330.1,314.4,329.2z M276.6,352.1c-2.8,0-5.1-2.3-5.1-5.1c0-2.8,2.3-5.1,5.1-5.1s5.1,2.3,5.1,5.1
	C281.7,349.8,279.4,352.1,276.6,352.1z M291.9,347.4c2.3,0.4,4.5,1.3,5.7,2.8c1.3,1.5,1.5,3.4,1.1,5.7c-0.8,3.4-2.5,6.4-4.5,8.7
	C293,360,292.3,353.8,291.9,347.4z M301.2,397.5c-5.5,3.8-13.8,3.2-18.2-1.5c-5.3-5.5-4-10.8-2.1-14.4c0.8-1.5,5.3-5.7,8.1-8.3
	l0.8-0.8c1.3-1.1,2.5-2.1,3.6-3.4c0.8,2.1,2.1,3.6,3.4,4.2c1.5,0.8,3.6,1.3,5.7,1.7C307.6,385.2,307.2,393.4,301.2,397.5z"/>
<path fill="#121F2A" d="M584.5,181.7c0.2,0.4,0.6,0.6,0.8,0.8c0.2,0.2,0.6,0.6,0.8,0.8c0.2,0.2,0.4,0.4,0.6,0.6
	c2.1-1.5,4.7-2.3,7.4-2.3s5.3,0.8,7.4,2.3c0.2-0.2,0.4-0.4,0.6-0.6c0.4-0.2,0.6-0.6,0.8-0.8c0.2-0.2,0.6-0.6,0.8-0.8
	c0.2-0.4,0.4-0.6,0.8-1.1c-3-2.1-6.8-3.6-10.8-3.6h-0.2h-0.2c-3.8,0-7.4,1.5-10.4,3.6C584,181,584.2,181.2,584.5,181.7z"/>
<path fill="#121F2A" d="M600.4,207.5c0,0.2,0,0.6,0,0.8c0,0.4,0.2,0.8,0.2,1.3c0,0.4,0.6,0.8,0.8,1.3c0.2,0.4,0.2,0.8,0.4,1.1
	c3.4-1.5,6.4-4,8.5-7.6c1.9-3.4,2.8-7.4,2.3-11c-0.4,0-0.8,0-1.3,0.2c-0.4,0-0.8,0.2-1.3,0.2c-0.4,0.2-0.8,0.2-1.3,0.4
	c-0.2,0.2-0.6,0.2-0.8,0.4c0.2,2.5-0.4,5.3-1.9,7.6C604.6,204.6,602.7,206.5,600.4,207.5z"/>
<path fill="#121F2A" d="M613.7,177.9c0-10.2-8.1-18.4-18-19.1c7.4,0.6,13.4,7,13.4,14.6c0,7.8-6.1,14.2-13.8,14.6v3
	c2.1,0.4,3.8,2.1,3.8,4.5c0,0.6,0,1.1-0.2,1.5l2.8,1.5c4.2-6.4,12.7-8.5,19.5-4.7s9.1,12.3,5.7,19.1c4.7-9.1,1.5-20.1-7.4-25.4
	c-2.1-1.3-4.7-2.1-7-2.3C613.1,182.9,613.7,180.4,613.7,177.9z"/>
<path fill="#121F2A" d="M625.8,214.5c-4.2,6.4-12.7,8.5-19.5,4.5c-6.8-3.8-9.1-12.3-5.7-19.3l-2.8-1.7c-0.8,0.8-1.9,1.5-3.2,1.5
	c-1.3,0-2.5-0.6-3.4-1.5l-2.8,1.5c3.4,6.8,1.1,15.3-5.7,19.1s-15.3,1.9-19.5-4.5c5.5,8.5,16.7,11.2,25.7,6.1c2.1-1.3,4-2.8,5.5-4.7
	c1.5,1.9,3.4,3.6,5.5,4.9C608.8,225.8,620.3,223,625.8,214.5z"/>
<path fill="#121F2A" d="M587.2,211.8c0.2-0.4,0.4-0.8,0.4-1.1c0.2-0.4,0.2-0.8,0.4-1.3c0.2-0.4,0.2-0.8,0.2-1.3c0-0.2,0-0.6,0.2-0.8
	c-2.3-1.1-4.2-3-5.7-5.3c-1.5-2.3-1.9-5.1-1.9-7.6c-0.2-0.2-0.6-0.2-0.8-0.4c-0.4-0.2-0.8-0.2-1.3-0.4c-0.4-0.2-0.8-0.2-1.3-0.2
	s-0.8-0.2-1.3-0.2c-0.4,3.8,0.2,7.6,2.3,11C580.9,207.7,583.8,210.3,587.2,211.8z"/>
<path fill="#121F2A" d="M562.4,212.4c-3.2-6.8-0.8-15.1,5.9-18.9c6.8-3.8,15.3-1.7,19.5,4.7l2.5-1.5c-0.2-0.4-0.2-1.1-0.2-1.5
	c0-2.1,1.5-3.8,3.4-4.2v-3.2c-7.6-0.4-13.8-6.8-13.8-14.6c0-7.6,5.9-14,13.4-14.6c-10,0.6-17.8,8.9-17.8,19.1c0,2.5,0.4,4.9,1.3,7
	c-2.3,0.4-4.7,1.1-6.8,2.3C561.1,192.3,558,203.5,562.4,212.4z"/>
<path fill="#121F2A" d="M10.8,106.6c0.2-0.2,0.4-0.4,0.6-0.6l13.8,3.6l1.1-3.6l-14-3.8v-0.4L8.3,88c0-0.2-0.2-0.4-0.2-0.8
	c0.2,0,0.4-0.2,0.6-0.4l9.1-9.1h-5.3l-6.6,6.6c-0.2,0.2-0.8,0.4-1.1,0.2L0,83.1v3.8L3.8,88c0.4,0.2,0.8,0.6,0.8,1.1l3.8,13.8
	c0,0.2,0,1.1-0.4,1.3L0,112.1v5.1c0.2-0.2,0.4-0.2,0.6-0.4L10.8,106.6z"/>
<path fill="#121F2A" d="M601.8,498.8h-16.1c-1.3,0-2.1,0.4-2.1,1.5c0,1.3,1.1,2.1,2.1,2.1h0.2v9.3v22.7h2.8v-10.6h10.2v10.6h2.8
	v-23.7v-8.3h0.2c1.3,0,2.1-1.1,2.1-2.1C604.2,499,603.1,498.8,601.8,498.8z"/>
<path fill="#121F2A" d="M517.3,505.2H506c0-0.4,0-0.8,0-1.1c0-2.5-1.1-4.7-2.5-6.4c4.9-1.3,8.9-4,11.9-8.1h3.6v-2.5h-19.7v2.5h3.8
	c-0.8,0.4-1.9,0.6-3,0.8c-7.6,1.3-14.8-3.8-16.1-11.4c-0.8-4.5,0.6-8.9,3.8-12.1l12.9,12.9l7.4-7.4L477,441.1l-7.4,7.4l12.9,12.9
	c-4.9,4.9-7,11.9-5.9,18.9c1.5,8.1,7.2,14.4,14.6,17c-1.9,1.7-3,4-3,6.6c0,0.4,0,0.8,0,1.1h-9.3c-1.5,0-2.8,1.3-2.8,2.8v2.8
	c0,1.5,1.3,2.8,2.8,2.8h38.4c1.5,0,2.8-1.3,2.8-2.8v-2.8C520,506.4,518.7,505.2,517.3,505.2z M502,505.2h-9.8c0-0.4-0.2-0.8-0.2-1.1
	c0-2.8,2.3-5.1,5.1-5.1s5.1,2.3,5.1,5.1C502.2,504.5,502.2,505,502,505.2z"/>
<circle fill="#121F2A" cx="692.8" cy="477.4" r="5.3"/>
<path fill="#121F2A" d="M711.7,499.9c6.6,0,11.2-2.1,13.1-5.7c2.3-4.5,0.2-10.6-4.9-16.7c0.2-0.2,0.4-0.6,0.8-0.8
	c4.9-6.1,6.4-11.7,4-15.9c-1.9-3.6-6.6-5.7-12.9-5.7c-1.7,0-3.6,0.2-5.7,0.4c-3-8.7-7.8-14-13.4-14c-5.5,0-10.4,5.5-13.4,14.2
	c-1.9-0.2-3.8-0.4-5.5-0.4c-6.6,0-11.2,2.1-13.1,5.7c-2.3,4.5-0.2,10.6,4.9,16.7c-0.2,0.2-0.4,0.6-0.8,0.8c-4.9,6.1-6.4,11.7-4,15.9
	c1.9,3.6,6.6,5.7,12.9,5.7c1.7,0,3.6-0.2,5.7-0.4c3,8.7,7.8,14,13.4,14c5.5,0,10.4-5.5,13.4-14.2C708.1,499.9,710,499.9,711.7,499.9
	z M722.5,492.9c-1.5,2.8-5.3,4.2-10.8,4.2c-1.5,0-3.2-0.2-4.7-0.4c0.8-3,1.5-6.1,1.9-9.8c3.6-2.5,6.6-5.1,9.1-7.8
	C722.5,484.6,724.4,489.5,722.5,492.9z M709.3,471.2c2.8,1.9,5.1,4,7,6.1c-2.1,2.1-4.5,4.2-7,6.1c0.2-1.9,0.2-4,0.2-6.1
	C709.5,475.3,709.5,473.4,709.3,471.2z M711.9,457.7c5.5,0,9.1,1.5,10.6,4.2c1.7,3.2,0.2,7.8-3.8,12.9c-0.2,0.2-0.4,0.4-0.4,0.6
	c-2.5-2.5-5.7-5.3-9.1-7.6c-0.4-3.4-1.1-6.8-1.9-9.8C708.7,457.7,710.4,457.7,711.9,457.7z M705.9,465.7c-1.7-1.1-3.6-2.1-5.5-3.2
	c-1.5-0.6-2.8-1.5-4.2-1.9c2.8-0.8,5.3-1.7,7.8-2.1C704.9,460.6,705.5,463.2,705.9,465.7z M692.8,443.9c4.2,0,8.1,4.7,10.6,11.9
	c-3.4,0.6-7,1.9-10.8,3.2c-3.6-1.5-7.2-2.5-10.6-3.2C684.7,448.6,688.5,443.9,692.8,443.9z M681.3,458.5c2.5,0.4,5.1,1.3,7.8,2.1
	c-1.5,0.6-2.8,1.3-4.2,2.1c-1.9,1.1-3.6,1.9-5.3,3.2C680.1,463.2,680.5,460.6,681.3,458.5z M673.7,497.3c-5.5,0-9.1-1.5-10.6-4.2
	c-1.7-3.2-0.2-7.8,3.8-12.9c0.2-0.2,0.4-0.4,0.4-0.6c2.5,2.5,5.7,5.3,9.1,7.6c0.4,3.4,1.1,6.8,1.9,9.8
	C676.9,497.3,675.2,497.3,673.7,497.3z M676.3,483.8c-2.8-1.9-5.1-4-7-6.1c2.1-2.1,4.5-4.2,7-6.1c-0.2,1.9-0.2,4-0.2,6.1
	C676,479.7,676,481.6,676.3,483.8z M676.5,468.1c-3.6,2.5-6.6,5.1-9.1,7.8c-4.2-5.5-6.1-10.4-4.5-13.8c1.5-2.8,5.3-4.2,10.8-4.2
	c1.5,0,3.2,0.2,4.7,0.4C677.5,461.3,676.9,464.5,676.5,468.1z M679.2,485.9c-0.2-2.8-0.4-5.5-0.4-8.3c0-2.8,0.2-5.5,0.4-8.3
	c2.1-1.5,4.7-3,7-4.2c2.1-1.1,4.5-2.1,6.6-3c2.1,0.8,4.5,1.9,6.6,3c2.5,1.3,4.9,2.8,7.2,4.2c0.2,2.8,0.4,5.5,0.4,8.3
	s-0.2,5.5-0.4,8.3c-2.1,1.5-4.7,3-7,4.2c-2.1,1.1-4.5,2.1-6.6,3c-2.1-0.8-4.5-1.9-6.6-3C683.7,488.6,681.3,487.4,679.2,485.9z
	 M679.6,489.3c1.7,1.1,3.6,2.1,5.5,3.2c1.5,0.6,2.8,1.5,4.2,1.9c-2.8,0.8-5.3,1.7-7.8,2.1C680.7,494.4,680.1,491.8,679.6,489.3z
	 M692.8,511.1c-4.2,0-8.1-4.7-10.6-11.9c3.4-0.6,7-1.9,10.8-3.2c3.6,1.5,7.2,2.5,10.6,3.2C700.8,506.4,697,511.1,692.8,511.1z
	 M704.2,496.5c-2.5-0.4-5.1-1.3-7.8-2.1c1.5-0.6,2.8-1.3,4.2-2.1c1.9-1.1,3.6-1.9,5.3-3.2C705.5,491.8,704.9,494.4,704.2,496.5z"/>
<polygon fill="#121F2A" points="565.2,431.6 565.2,442.6 572.4,449.8 583.4,449.8 583.4,440.7 574.5,431.6 "/>
<polygon fill="#121F2A" points="604.4,392.6 604.4,401.7 613.3,410.8 622.6,410.8 622.6,399.6 615.4,392.6 "/>
<polygon fill="#121F2A" points="604.4,440.7 604.4,449.8 615.4,449.8 622.6,442.8 622.6,431.6 613.5,431.6 "/>
<polygon fill="#121F2A" points="565.2,399.8 565.2,410.8 574.3,410.8 583.4,401.7 583.4,392.6 572.4,392.6 "/>
<path fill="#121F2A" d="M618.2,422.3l-3.6,4.9h8.1v-4.9V421v-4.9h-8.1l3.6,4.9h-9.8c-0.4-7.6-6.4-13.6-14-14v-10l4.9,3.6v-8.1h-4.9
	h-1.3h-4.9v8.1l4.9-3.6v10c-7.6,0.4-13.6,6.4-14,14h-9.8l3.6-4.9H565v4.9v1.3v4.9h8.1l-3.6-4.9h9.8c0.4,7.6,6.4,13.6,14,14v9.3
	l-4.9-3.6v8.1h4.9h1.3h4.9V442l-4.9,3.6v-9.3c7.6-0.4,13.6-6.4,14-14H618.2z M601.2,421.9l-7.2,8.3l-7.2-8.1
	c-0.6-0.6-0.8-1.7-0.8-2.5c0-2.3,1.9-4,4-4c2.1,0,3.8,1.5,4,3.4c0.2-1.9,1.9-3.4,4-3.4c2.3,0,4,1.9,4,4
	C602.1,420.2,601.6,421.2,601.2,421.9z"/>
<path fill="#121F2A" d="M391.8,427.6c-0.6,0.4-1.3,1.3-1.7,2.1c-0.2,0.6-0.4,1.3-0.2,2.1c0.2,3,2.1,4.7,3.6,5.5
	c0.2-0.2,0.6-0.6,0.8-0.8c0.4-0.2,0.6-0.6,1.1-0.8c0,0-0.4-0.2-1.1-0.6c-0.8-0.8-2.1-1.9-2.3-3.2c0-0.2,0-0.4,0-0.6
	c0.2-0.8,0.6-1.5,1.3-1.9c0.2-0.2,0.4-0.2,0.8-0.4l0.4-0.2l-0.4-0.2C393.2,428.4,392.4,428,391.8,427.6z"/>
<path fill="#121F2A" d="M391.1,407.6c-0.4,0-1.3-0.2-1.3-0.2h-0.2h-0.2h-0.2H389h-0.2h-0.4h-0.2h-0.4h-0.4h-0.2h-0.6H386h-0.2h-0.6
	H385h-0.4l-0.6,0.2h-0.2l-0.6,0.2l-0.4,0.2l-0.4,0.2l-0.4,0.2l-0.2,0.4l-0.2,0.4v0.4v0.2v0.4c0,0.4,0.2,0.8,0.4,1.1
	c0.2,0.2,0.4,0.6,0.8,1.1c1.5,1.5,4.2,2.5,6.6,3.2c1.1-0.8,2.3-1.5,3.8-1.9h0.2c-2.1-0.2-4.2-0.4-5.7-1.1c-0.6-0.2-1.3-0.4-1.9-0.6
	c-0.6-0.4-1.3-0.8-1.7-1.1c-0.2-0.2-0.2-0.4-0.4-0.6v-0.2V410v-0.2l0.2-0.2l0.2-0.2h0.2h0.2h0.2h0.2h0.2h0.2h0.2h0.2h0.2
	c0,0,1.1,1.1,3.4,1.3c0.2,0,0.4,0,0.6,0h0.2c0.2,0,0.4,0,0.6,0h0.4l0.4-0.2l0.2-0.2l0.2-0.2l0.2-0.2c0-0.6-0.4-1.3-0.6-1.7
	L391.1,407.6z"/>
<path fill="#121F2A" d="M392.2,389.2c0,1.1,0.4,2.1,1.3,2.8l0.4,21.8c0.4,0,1.3,0,2.1,0.2c0.8,0,1.5-0.2,2.1-0.2l0.4-21.8
	c0.8-0.6,1.3-1.7,1.3-2.8c0-2.1-1.7-3.8-3.8-3.8S392.2,387.3,392.2,389.2z"/>
<path fill="#121F2A" d="M395.8,435.4l0.2,0.2l0.2-0.2c0.2-0.2,0.8-0.6,1.5-1.1v-4.7c-0.4-0.2-0.8-0.4-1.3-0.4H396h-0.4
	c-0.6,0.2-1.1,0.2-1.3,0.4v4.7C394.9,434.8,395.4,435.2,395.8,435.4z"/>
<path fill="#121F2A" d="M377.6,401.9c0,0-0.8,1.5,1.5,1.5c1.7,0,2.8-0.2,2.8-0.2s-0.4,1.3,1.3,1.3c1.5,0,3.2-1.1,3.2-1.1
	s-0.2,1.1,1.3,1.1c1.3,0,3.8-1.5,3.8-1.5v-5.3c0,0-3.2-5.7-7-5.7c-2.8,0-7.8,3-7.8,3s-4.5,2.5-9.8,1.3c0,0-1.7-0.6-1.5,0.8
	c0.2,1.5,2.5,2.5,4.7,2.8c0,0-0.4,1.3,1.3,1.3c1.7,0,2.8-0.4,2.8-0.4s-1.1,1.5,0.6,1.7C376.1,402.6,377.6,401.9,377.6,401.9z"/>
<path fill="#121F2A" d="M400,426.7c0.8-0.4,1.5-0.8,1.9-1.3s0.8-0.8,1.3-1.3c0.2-0.2,0.4-0.6,0.4-0.8c0.2-0.2,0.2-0.4,0.4-0.8
	c0-0.2,0.2-0.6,0.2-0.8c0-0.4,0-0.8,0-1.3s0-0.8,0-0.8c-0.2-0.6-0.4-1.1-0.8-1.7c-0.2-0.2-0.4-0.4-0.6-0.6h-0.2
	c-0.6,0.2-1.3,0.2-1.9,0.4c-0.6,0-1.3,0.2-1.9,0.2c-0.4,0-0.6,0-1.1,0c1.9,0.6,3.4,1.5,3.4,3.4c0,0.4,0,0.8-0.2,1.3l-0.2,0.4
	c-0.2,0.2-0.4,0.4-0.6,0.6c-0.2,0.2-0.4,0.4-0.8,0.6l-0.4,0.2c-0.2,0.2-0.6,0.4-0.8,0.4l-0.4,0.2c-0.2,0.2-0.6,0.2-0.8,0.2
	c0.2,0,0.4,0.2,0.8,0.2C398.8,426.1,399.6,426.5,400,426.7z"/>
<path fill="#121F2A" d="M397.9,418.5c-0.2,0-0.6-0.2-0.8-0.2c-0.4,0-0.6-0.2-1.1-0.2s-0.8,0.2-1.1,0.2c-0.2,0-0.6,0.2-0.8,0.2
	l0.2,5.9c0.6,0.4,1.5,0.6,1.7,0.6c0.4-0.2,1.1-0.4,1.7-0.6L397.9,418.5z"/>
<path fill="#121F2A" d="M426.5,397.1c0.2-1.5-1.5-0.8-1.5-0.8c-5.5,1.3-9.8-1.3-9.8-1.3s-5.1-3-7.8-3c-3.8,0-7,5.7-7,5.7v5.3
	c0,0,2.8,1.5,3.8,1.5c1.5,0,1.3-1.1,1.3-1.1s1.7,1.1,3.2,1.1c1.7,0,1.3-1.3,1.3-1.3s1.1,0.2,2.8,0.2c2.3,0,1.5-1.5,1.5-1.5
	s1.5,0.4,3,0.2c1.7-0.2,0.6-1.7,0.6-1.7s1.1,0.4,2.8,0.4s1.3-1.3,1.3-1.3C424,399.6,426.3,398.5,426.5,397.1z"/>
<path fill="#121F2A" d="M408.3,414.2c1.3-0.8,2.1-1.9,2.3-3.2v-0.4v-0.2V410l-0.2-0.4l-0.2-0.4l-0.4-0.2l-0.4-0.2l-0.4-0.2l-0.6-0.2
	h-0.2l-0.6-0.2H407h-0.2h-0.6H406h-0.4h-0.6h-0.2h-0.4h-0.4h-0.2h-0.4H403h-0.2h-0.2h-0.2c0,0-0.8,0-1.7,0.6l-0.4,0.4
	c-0.4,0.4-0.6,0.8-0.6,1.7l0.2,0.2l0.2,0.2l0.2,0.2l0.4,0.2h0.4c0.2,0,0.4,0,0.6,0h0.2c0.2,0,0.4,0,0.6,0c2.3-0.2,3.4-1.3,3.4-1.3
	h0.2h0.2h0.2h0.2h0.2h0.2h0.2h0.2h0.2l0.2,0.2l0.2,0.2v0.2v0.2v0.2c0,0.2-0.2,0.4-0.4,0.6c-0.4,0.4-0.8,0.8-1.7,1.1
	c-0.6,0.2-1.3,0.4-1.9,0.6c-1.7,0.4-3.6,0.8-5.7,1.1h-0.2c-0.2,0-0.4,0-0.6,0h-0.2c-0.2,0-0.4,0-0.6,0h-0.4c-0.2,0-0.4,0-0.6,0
	c-0.2,0-0.6,0-0.8,0s-0.6,0-0.8,0.2h-0.2c-0.2,0-0.6,0.2-0.8,0.2s-0.6,0.2-0.8,0.2c-0.2,0-0.6,0.2-0.8,0.4c-0.4,0.2-1.1,0.4-1.5,0.8
	l-0.4,0.4l-0.2,0.2H389c-0.2,0.2-0.4,0.4-0.6,0.6c-0.4,0.4-0.6,1.1-0.8,1.7c0,0.2,0,0.4,0,0.8c0,0.4,0,0.8,0,1.3
	c0,0.2,0.2,0.6,0.2,0.8s0.2,0.4,0.4,0.8c0.2,0.2,0.2,0.4,0.4,0.8c0.6,0.8,1.5,1.9,3,2.5l0.2,0.2l0.4,0.2l0.2,0.2
	c0.4,0.2,0.8,0.4,1.5,0.6h0.2c0.4,0.2,1.1,0.2,1.5,0.4c0.2,0,0.4,0,0.6,0.2c0.2,0,0.4,0.2,0.6,0.2l0.4,0.2c0.2,0.2,0.6,0.2,0.8,0.4
	c0.6,0.4,1.1,1.1,1.3,1.9c0,0.2,0,0.4,0,0.6c0,1.3-1.3,2.5-2.3,3.2c-0.4,0.4-0.8,0.6-1.1,0.6c0,0-0.2,0.2-0.6,0.4
	c-0.4,0.2-1.1,0.6-1.5,1.3l-0.2,0.2l-0.4,0.4c-0.8,0.8-1.5,2.1-1.5,3.2c0,1.3,1.1,2.8,1.9,3.8l0.4,0.4c0.4,0.4,1.1,0.8,1.3,1.3
	l0.2,0.2l0.4,0.2l0.2,0.2c0.2,0.2,0.4,0.6,0.6,0.8c0.2,0.2,0.2,0.6,0.2,0.8c0,0.4,0.2,0.6,0.2,1.1v0.4c0,0.4,0,0.8-0.2,1.3l-0.2,0.4
	c0,0.2-0.1,0.5-0.3,0.8c0.9-2,0.6-3.6,0.1-4.6c-0.2-0.4-0.4-0.8-0.6-1.1c-0.2,0.2-0.4,0.4-0.6,1.1c-0.6,1.3-1,3.1,0.6,5.6
	c-0.1,0.1-0.1,0.2-0.2,0.3c0,0,2.3-1.7,2.3-5.1c0-1.5-0.6-2.8-1.1-3.6l-0.2-0.2l-0.2-0.2c-0.4-0.4-0.8-0.6-1.3-1.1
	c-0.2-0.2-0.4-0.2-0.6-0.4c-0.2-0.2-0.6-0.4-0.8-0.8c-0.4-0.4-0.6-1.1-0.6-1.7s0.2-1.1,0.6-1.7l0.2-0.4c0.2-0.2,0.4-0.4,0.6-0.6
	c0.2-0.2,0.4-0.2,0.6-0.4c0.6-0.4,1.1-0.6,1.5-0.8l0.2-0.2c0.2,0,0.4-0.2,0.6-0.4c1.5-0.8,3.4-2.5,3.6-5.5c0-0.8,0-1.5-0.2-2.1
	c0-0.2-0.2-0.4-0.2-0.6c-0.4-0.6-0.8-1.1-1.3-1.5l-0.4-0.2l-0.2-0.2c-0.4-0.2-1.1-0.4-1.7-0.8c-0.2,0-0.4-0.2-0.6-0.2
	c-0.2,0-0.4-0.2-0.6-0.2s-0.4-0.2-0.4-0.2h-0.2c-0.2,0-0.4-0.2-0.8-0.2c-0.2,0-0.4-0.2-0.8-0.2l-0.4-0.2c-0.2-0.2-0.6-0.2-0.8-0.4
	L392,424c-0.2-0.2-0.6-0.4-0.8-0.6c-0.2-0.2-0.4-0.4-0.6-0.6l-0.2-0.4c-0.2-0.4-0.4-0.8-0.2-1.3c0-1.7,1.7-2.8,3.4-3.4
	c0.2,0,0.4-0.2,0.6-0.2c0.2,0,0.4,0,0.6-0.2c0.2,0,0.4,0,0.6-0.2c0.4,0,1.1-0.2,1.5-0.2h0.4h0.4c0.6,0,1.1,0,1.7-0.2
	c0.2,0,0.6,0,0.8,0c0.4,0,0.8-0.2,1.3-0.2c0.2,0,0.6-0.2,0.8-0.2c0.4-0.2,1.1-0.2,1.5-0.4c1.5,0,2.3-0.4,3-0.6
	C407.2,414.9,407.9,414.6,408.3,414.2z"/>
<path fill="#121F2A" d="M394.5,448.8c0.2-0.4,0.4-0.6,0.6-0.8l0.2-0.2c-0.2-0.2-0.6-0.4-0.8-0.6l-0.4-0.6c-0.6,0.8-1.1,1.9-1.1,3.6
	c-0.2,3.4,2.3,5.1,2.3,5.1c-0.2-0.4-0.4-0.6-0.6-1.1v-0.2c0-0.2-0.2-0.4-0.2-0.8l-0.2-0.4c-0.2-0.4-0.2-0.8-0.2-1.3v-0.4
	C394.1,450,394.3,449.4,394.5,448.8z"/>
<path fill="#121F2A" d="M397.3,442.2c0-0.6-0.2-1.3-0.6-1.7c-0.2-0.2-0.4-0.4-0.6-0.6c-0.2,0.2-0.4,0.4-0.6,0.6
	c-0.4,0.6-0.6,1.1-0.6,1.7c0,0.6,0.4,1.3,1.1,1.9l0.2,0.2l0.2-0.2C397.1,443.5,397.3,442.8,397.3,442.2z"/>
<path fill="#121F2A" d="M397.7,445.4c1.1-1.1,1.9-2.5,1.9-3.8c0-1.1-0.6-2.3-1.5-3.2h-0.2h-0.2l-0.4,0.2c-0.2,0.2-0.6,0.4-1.1,0.6
	c0.2,0.2,0.4,0.4,0.6,0.6l0.2,0.4c0.2,0.4,0.4,1.1,0.6,1.7c0,0.6-0.2,1.3-0.6,1.7c-0.2,0.2-0.4,0.6-0.8,0.8c0.2,0.2,0.4,0.4,0.8,0.6
	L397.7,445.4z"/>
<path fill="#121F2A" d="M406.6,529.8l-0.4-0.2v-21.8l0.4-0.2c1.5-0.8,2.5-2.3,2.5-4V503c0-2.3-1.9-4.5-4.5-4.5h-17.2
	c-2.3,0-4.5,1.9-4.5,4.5v0.4c0,1.7,0.8,3.2,2.5,4l0.4,0.2v21.8l-0.4,0.2c-2.3,1.3-4.2,3-5.7,4.7h4.5l0.2-0.2
	c0.4-0.4,0.8-0.6,1.3-0.8c0.4-0.2,0.8-0.6,1.5-0.8l0.2-0.2c0.2-0.2,0.4-0.2,0.6-0.4h0.2c0.2,0,0.4-0.2,0.6-0.2v-13.6h13.8v13.6
	c0.2,0,0.4,0.2,0.6,0.2h0.2c0.2,0.2,0.4,0.2,0.6,0.4l0.2,0.2c0.4,0.2,1.1,0.6,1.5,0.8c0.4,0.2,0.8,0.6,1.3,0.8l0.2,0.2h4.5
	C410.6,532.7,408.7,531,406.6,529.8z"/>
<path fill="#121F2A" d="M319.3,449c0-0.8-0.8-1.7-1.7-1.7s-1.7,0.8-1.7,1.7c0,0.2-0.2,15.1-19.3,28l-0.4,0.2l-0.4-0.2
	c-18.9-12.7-19.3-27.8-19.3-28c0-0.8-0.8-1.7-1.7-1.7c-0.8,0-1.7,0.8-1.7,1.7c0,0.6,0.2,16.3,20.1,30.1
	c-21.2,15.7-20.1,28-20.1,28.6c0,0.8,0.8,1.5,1.7,1.5h0.2c0.8,0,1.5-0.8,1.5-1.9c0-0.2-0.8-11.7,19.5-26.3
	c20.4,14.6,19.5,26.1,19.5,26.1c-0.2,0.8,0.6,1.7,1.5,1.9h0.2c0.8,0,1.5-0.6,1.7-1.5c0-0.6,1.3-12.9-20.1-28.6
	C319,465.5,319.3,449.8,319.3,449z"/>
<path fill="#121F2A" d="M282.6,454.1c0,0.8,0.8,1.7,1.7,1.7h24c0.8,0,1.7-0.8,1.7-1.7s-0.8-1.7-1.7-1.7h-24
	C283.4,452.4,282.6,453.2,282.6,454.1z"/>
<path fill="#121F2A" d="M306.3,461.3c0-0.8-0.8-1.7-1.7-1.7h-17c-0.8,0-1.7,0.8-1.7,1.7c0,0.8,0.8,1.7,1.7,1.7h17
	C305.7,463,306.3,462.1,306.3,461.3z"/>
<path fill="#121F2A" d="M294,466.6c-0.8,0-1.7,0.8-1.7,1.7c0,0.8,0.8,1.7,1.7,1.7h4.5c0.8,0,1.7-0.8,1.7-1.7s-0.8-1.7-1.7-1.7H294z"
	/>
<path fill="#121F2A" d="M308.2,503.7h-24c-0.8,0-1.7,0.8-1.7,1.7c0,0.8,0.8,1.7,1.7,1.7h24c0.8,0,1.7-0.8,1.7-1.7
	C309.9,504.5,309.1,503.7,308.2,503.7z"/>
<path fill="#121F2A" d="M286.2,498.2c0,0.8,0.8,1.7,1.7,1.7h17c0.8,0,1.7-0.8,1.7-1.7s-0.8-1.7-1.7-1.7h-17
	C287,496.7,286.2,497.3,286.2,498.2z"/>
<path fill="#121F2A" d="M298.5,492.9c0.8,0,1.7-0.8,1.7-1.7s-0.8-1.7-1.7-1.7H294c-0.8,0-1.7,0.8-1.7,1.7s0.8,1.7,1.7,1.7H298.5z"/>
<path fill="#121F2A" d="M198.8,515.1c-0.2,0-0.6,0-0.8,0h-0.2c-6.6,0.2-15.3,4.7-15.3,13.6H180l4.9,5.9h3.4l5.3-5.9h-2.8
	c0.6-3.8,4-6.4,7.8-5.9h0.4c6.4,0,8.9,4.9,9.1,11.9h8.7C216.9,523,209.4,515.1,198.8,515.1z"/>
<path fill="#121F2A" d="M14,396c0-0.8-0.8-1.7-1.7-1.7H0v3.4h12.3C13.1,397.7,14,396.8,14,396z"/>
<path fill="#121F2A" d="M10.4,403c0-0.8-0.8-1.7-1.7-1.7H0v3.4h8.7C9.5,404.7,10.4,404,10.4,403z"/>
<path fill="#121F2A" d="M4.2,410.2c0-0.8-0.8-1.7-1.7-1.7H0v3.4h2.5C3.4,411.9,4.2,411,4.2,410.2z"/>
<path fill="#121F2A" d="M23.3,390.9c0-0.8-0.8-1.7-1.7-1.7s-1.7,0.8-1.7,1.7c0,0.2-0.2,15.1-19.3,28l-0.4,0.2L0,418.9v0.4v3.8v0.4
	l0.2-0.2c20.4,14.6,19.5,26.1,19.5,26.1c-0.2,0.8,0.6,1.7,1.5,1.9h0.2c0.8,0,1.5-0.6,1.7-1.5c0-0.6,1.3-12.9-20.1-28.6
	C22.9,407.2,23.3,391.5,23.3,390.9z"/>
<path fill="#121F2A" d="M14,447.3c0-0.8-0.8-1.7-1.7-1.7H0v3.4h12.3C13.1,449,14,448.1,14,447.3z"/>
<path fill="#121F2A" d="M10.4,440.1c0-0.8-0.8-1.7-1.7-1.7H0v3.4h8.7C9.5,441.8,10.4,441.1,10.4,440.1z"/>
<path fill="#121F2A" d="M4.2,432.9c0-0.8-0.8-1.7-1.7-1.7H0v3.4h2.5C3.4,434.6,4.2,433.9,4.2,432.9z"/>
<path fill="#121F2A" d="M16.3,514.9c-0.4-1.5-1.9-3.2-3.6-3.6L0,507.9v3.8l11.9,3.2c0.2,0,0.8,0.6,0.8,0.8l3.8,14
	c0,0.2,0,1.1-0.4,1.3l-3.4,3.4H18l0.8-0.8c1.1-1.1,1.7-3.2,1.3-4.9L16.3,514.9z"/>
<path fill="#121F2A" d="M107.5,468.9v-23.5h0.2c1.3,0,2.3-1.1,2.3-2.3c0-1.3-1.1-1.7-2.3-1.7h-17c-1.3,0-2.3,0.4-2.3,1.7
	c0,1.3,1.1,2.3,2.3,2.3h0.2v23.5l-16.1,36.5c-1.1,2.1-0.8,4.5,0.2,6.1c1.1,1.7,3,2.5,5.5,2.5h37.5c2.3,0,4.5-0.8,5.5-2.5
	s1.1-3.8,0.2-6.1L107.5,468.9z M120.6,509.6c-0.4,0.6-1.3,1.1-2.5,1.1H80.3c-1.3,0-2.1-0.4-2.5-1.1c-0.4-0.6-0.4-1.7,0-2.8
	l11.9-26.9h18.7l11.9,26.9C121,507.9,121,509,120.6,509.6z"/>
<path fill="#121F2A" d="M204.6,436.1c0,0.2,0,0.6,0,0.8c0,0.4,0.2,0.8,0.2,1.3s0.2,0.8,0.4,1.3s0.2,0.8,0.4,1.1
	c3.4-1.5,6.4-4,8.5-7.6c1.9-3.4,2.8-7.4,2.3-11c-0.4,0-0.8,0-1.3,0.2c0,0.2-0.4,0.2-0.8,0.2c-0.4,0.2-0.8,0.2-1.3,0.4
	c-0.2,0.2-0.6,0.2-0.8,0.4c0.2,2.5-0.4,5.3-1.9,7.6C208.8,433.1,206.9,435,204.6,436.1z"/>
<path fill="#121F2A" d="M230,443.1c-4.2,6.4-12.7,8.5-19.5,4.5c-6.8-3.8-9.1-12.3-5.7-19.3l-2.8-1.7c-0.8,0.8-1.9,1.5-3.2,1.5
	c-1.3,0-2.5-0.6-3.4-1.5l-2.8,1.5c3.4,6.8,1.1,15.3-5.7,19.1c-6.8,3.8-15.3,1.9-19.5-4.5c5.5,8.5,16.7,11.2,25.7,6.1
	c2.1-1.3,4-2.8,5.5-4.7c1.5,1.9,3.4,3.6,5.5,4.9C213.1,454.3,224.5,451.5,230,443.1z"/>
<path fill="#121F2A" d="M191.2,440.3c0.2-0.4,0.4-0.8,0.4-1.1c0.2-0.4,0.2-0.8,0.4-1.3s0.2-0.8,0.2-1.3c0-0.2,0-0.6,0.2-0.8
	c-2.1-1.1-4-3-5.5-5.3s-1.9-5.1-1.9-7.6c-0.2-0.2-0.6-0.2-0.8-0.4c-0.4-0.2-0.8-0.2-1.3-0.4c-0.4-0.2-0.8-0.2-1.3-0.2
	c-0.4,0-0.8-0.2-1.3-0.2c-0.4,3.8,0.2,7.6,2.3,11C184.6,436.1,187.8,438.6,191.2,440.3z"/>
<path fill="#121F2A" d="M166.2,440.9c-3-6.8-0.4-15.1,6.1-18.9c6.8-3.8,15.3-1.7,19.5,4.7l2.5-1.5c-0.2-0.4-0.2-1.1-0.2-1.5
	c0-2.1,1.5-3.8,3.4-4.2v-3c-7.6-0.4-13.8-6.8-13.8-14.6c0-7.6,5.9-14,13.4-14.6c-10,0.6-17.8,8.9-17.8,19.1c0,2.5,0.4,4.9,1.3,7
	c-2.3,0.4-4.7,1.1-6.8,2.3C164.9,420.8,161.7,431.8,166.2,440.9z"/>
<path fill="#121F2A" d="M188.7,410.2c0.2,0.4,0.6,0.6,0.8,0.8s0.6,0.6,0.8,0.8c0.2,0.2,0.4,0.4,0.6,0.6c2.1-1.5,4.7-2.3,7.4-2.3
	c2.8,0,5.3,0.8,7.4,2.3c0.2-0.2,0.4-0.4,0.6-0.6c0.4-0.2,0.6-0.6,0.8-0.8c0.2-0.2,0.6-0.6,0.8-0.8c0.2-0.4,0.4-0.6,0.8-1.1
	c-3-2.1-6.8-3.6-10.8-3.6H198h-0.2c-3.8,0-7.4,1.5-10.4,3.6C188.2,409.6,188.5,409.8,188.7,410.2z"/>
<path fill="#121F2A" d="M216.4,413.8c0.8-2.3,1.5-4.7,1.5-7.2c0-10.2-8.1-18.4-18-19.1c7.4,0.6,13.4,7,13.4,14.6
	c0,7.8-6.1,14.2-13.8,14.6v3c2.1,0.4,3.8,2.1,3.8,4.5c0,0.6,0,1.1-0.2,1.5l2.8,1.5c4.2-6.4,12.7-8.5,19.5-4.7
	c6.3,3.6,8.8,11.1,6.3,17.7c3.5-8.8,0.2-19.2-8.2-24C221.3,414.9,218.8,414,216.4,413.8z"/>
<path fill="#121F2A" d="M231.7,440.1c-0.2,0.5-0.4,1-0.6,1.4C231.3,441.1,231.5,440.6,231.7,440.1z"/>
<polygon fill="#121F2A" points="730.9,294.9 732.6,295.9 736.9,288.7 735.2,287.7 "/>
<polygon fill="#121F2A" points="747.7,266 749.4,266.9 753.6,259.7 751.9,258.8 "/>
<polygon fill="#121F2A" points="739.2,280.5 741.1,281.5 745.1,274.3 743.5,273.2 "/>
<polygon fill="#121F2A" points="726.7,302.3 725.2,304.8 722,304.8 722,307 725.2,307 726.7,309.7 728.4,308.6 726.9,305.9 
	728.4,303.1 "/>
<rect x="787.8" y="362.1" fill="#121F2A" width="4.5" height="1.9"/>
<polygon fill="#121F2A" points="757.9,245.1 757.7,245.1 756,246.1 757.4,248.9 756,251.4 757.9,252.5 759.4,249.7 762.3,249.7 
	762.5,249.7 762.5,247.8 759.4,247.8 "/>
<rect x="787.8" y="247.8" fill="#121F2A" width="4.5" height="1.9"/>
<rect x="770.8" y="362.1" fill="#121F2A" width="8.5" height="1.9"/>
<polygon fill="#121F2A" points="739.2,394.7 741.1,395.8 745.1,388.6 743.5,387.5 "/>
<polygon fill="#121F2A" points="730.9,409.3 732.6,410.2 736.9,403 735.2,401.9 "/>
<polygon fill="#121F2A" points="747.7,380.3 749.4,381.4 753.6,373.9 751.9,373.1 "/>
<polygon fill="#121F2A" points="757.9,359.3 756,360.4 757.7,363.1 756,365.7 757.9,366.7 759.4,364 762.5,364 762.5,362.1 
	759.4,362.1 "/>
<polygon fill="#121F2A" points="739.2,331.3 743.5,338.5 745.1,337.7 741.1,330.3 "/>
<polygon fill="#121F2A" points="730.9,316.9 735.2,324.1 736.9,323.1 732.6,315.9 "/>
<polygon fill="#121F2A" points="747.7,346 751.9,353.2 753.6,352.1 749.4,344.9 "/>
<polygon fill="#121F2A" points="739.2,166.2 740.9,167.3 741.1,167.3 745.1,160 743.5,159 "/>
<polygon fill="#121F2A" points="751.7,144.6 751.7,144.4 747.5,151.8 749.4,152.6 753.6,145.4 751.9,144.4 "/>
<polygon fill="#121F2A" points="735,173.4 730.7,180.6 732.6,181.7 736.9,174.5 735.2,173.4 "/>
<polygon fill="#121F2A" points="726.7,188 725,190.6 722,190.6 722,192.7 725,192.7 726.7,195.4 728.4,194.4 726.9,191.6 
	728.4,188.9 "/>
<polygon fill="#121F2A" points="747.5,231.7 751.7,238.9 751.9,238.9 753.6,237.8 749.4,230.6 "/>
<polygon fill="#121F2A" points="730.7,202.7 735,209.9 735.2,209.9 736.9,208.8 732.6,201.6 "/>
<polygon fill="#121F2A" points="740.9,216.2 740.9,216 739.2,217.1 743.5,224.3 745.1,223.4 741.1,216 "/>
<polygon fill="#121F2A" points="779.3,249.7 779.3,247.8 770.8,247.8 770.8,249.7 779.1,249.7 "/>
<rect x="787.8" y="133.5" fill="#121F2A" width="4.5" height="1.9"/>
<polygon fill="#121F2A" points="779.3,135.5 779.3,133.5 770.8,133.5 770.8,135.5 779.1,135.5 "/>
<polygon fill="#121F2A" points="757.7,138.2 757.9,138.2 759.4,135.5 762.3,135.5 762.5,135.5 762.5,133.5 759.4,133.5 757.9,130.8 
	756,131.8 757.4,134.4 756,137.1 "/>
<polygon fill="#121F2A" points="726.7,77.6 724.8,77.6 722,77.6 722,78.4 725.2,78.4 726.7,81 728.4,80.1 727.1,77.6 "/>
<polygon fill="#121F2A" points="730.9,88.4 735.2,95.6 736.9,94.5 732.6,87.3 "/>
<polygon fill="#121F2A" points="739.2,102.8 743.5,110 745.1,109 741.1,101.7 "/>
<polygon fill="#121F2A" points="747.7,117.2 751.9,124.6 753.6,123.6 749.4,116.4 "/>
<rect x="787.8" y="476.3" fill="#121F2A" width="4.5" height="2.1"/>
<polygon fill="#121F2A" points="747.7,460.2 751.9,467.4 753.6,466.4 749.4,459.2 "/>
<polygon fill="#121F2A" points="730.9,431.2 735.2,438.4 736.9,437.3 732.6,430.1 "/>
<rect x="770.8" y="476.3" fill="#121F2A" width="8.5" height="2.1"/>
<polygon fill="#121F2A" points="725.2,533.6 722,533.6 722,534.4 724.6,534.4 726.9,534.4 728.4,531.9 726.7,530.8 "/>
<polygon fill="#121F2A" points="730.9,523.6 732.6,524.5 736.9,517.2 735.2,516.4 "/>
<polygon fill="#121F2A" points="739.2,509 741.1,510 745.1,502.8 743.5,501.8 "/>
<polygon fill="#121F2A" points="747.7,494.6 749.4,495.6 753.6,488.2 751.9,487.4 "/>
<polygon fill="#121F2A" points="757.9,473.6 756,474.6 757.7,477.4 756,480.2 757.9,481 759.4,478.5 762.5,478.5 762.5,476.3 
	759.4,476.3 "/>
<polygon fill="#121F2A" points="739.2,445.6 743.5,453 745.1,452 741.1,444.7 "/>
<polygon fill="#121F2A" points="726.7,416.6 725.2,419.3 722,419.3 722,421.2 725.2,421.2 726.7,424 728.4,422.9 726.9,420.2 
	728.4,417.6 "/>
<polygon fill="#121F2A" points="658.9,195.4 660.6,192.7 663.5,192.7 663.5,190.6 660.6,190.6 658.9,188 657,188.9 658.7,191.6 
	657,194.4 "/>
<rect x="671.8" y="190.6" fill="#121F2A" width="8.5" height="2.1"/>
<rect x="705.3" y="190.6" fill="#121F2A" width="8.5" height="2.1"/>
<rect x="688.5" y="190.6" fill="#121F2A" width="8.5" height="2.1"/>
<polygon fill="#121F2A" points="627.7,245.1 626.2,247.8 623,247.8 623,249.7 623.3,249.7 626.2,249.7 627.7,252.5 629.6,251.4 
	627.9,248.9 629.6,246.1 "/>
<polygon fill="#121F2A" points="541.4,394.7 543.1,395.8 547.4,388.6 545.5,387.5 "/>
<polygon fill="#121F2A" points="631.9,373.9 636.2,381.4 637.9,380.3 633.6,373.1 "/>
<polygon fill="#121F2A" points="648.7,403 652.9,410.2 654.6,409.3 650.4,401.9 "/>
<polygon fill="#121F2A" points="640.4,388.6 644.5,395.8 646.1,394.7 642.1,387.5 "/>
<rect x="688.5" y="304.8" fill="#121F2A" width="8.5" height="2.1"/>
<rect x="705.3" y="304.8" fill="#121F2A" width="8.5" height="2.1"/>
<rect x="671.8" y="304.8" fill="#121F2A" width="8.5" height="2.1"/>
<polygon fill="#121F2A" points="658.9,309.7 660.4,307 663.5,307 663.5,304.8 660.4,304.8 658.9,302.3 657,303.1 658.7,305.9 
	657,308.6 "/>
<polygon fill="#121F2A" points="631.9,352.1 633.6,353.2 637.9,346 636.2,344.9 "/>
<polygon fill="#121F2A" points="648.7,323.1 650.4,324.1 654.6,316.9 652.9,315.9 "/>
<polygon fill="#121F2A" points="559.9,252.5 561.6,249.7 564.5,249.7 564.5,247.8 561.6,247.8 559.9,245.1 558.2,246.1 559.7,248.7 
	558.2,251.4 "/>
<polygon fill="#121F2A" points="572.8,249.7 573,249.7 581.3,249.7 581.3,247.8 572.8,247.8 "/>
<polygon fill="#121F2A" points="606.3,249.7 606.5,249.7 614.8,249.7 614.8,247.8 606.3,247.8 "/>
<polygon fill="#121F2A" points="589.5,249.7 589.8,249.7 598,249.7 598,247.8 589.5,247.8 "/>
<polygon fill="#121F2A" points="640.4,274.3 644.5,281.5 646.1,280.5 642.1,273.2 "/>
<polygon fill="#121F2A" points="631.9,259.7 636.2,266.9 637.9,266 633.6,258.8 "/>
<polygon fill="#121F2A" points="648.7,288.7 652.9,295.9 654.6,294.9 650.4,287.7 "/>
<polygon fill="#121F2A" points="640.4,337.7 642.1,338.5 646.1,331.3 644.5,330.3 "/>
<polygon fill="#121F2A" points="627.7,359.3 626.2,362.1 623,362.1 623,364 626.2,364 627.7,366.7 629.6,365.7 627.9,363.1 
	629.6,360.4 "/>
<rect x="572.8" y="362.1" fill="#121F2A" width="8.3" height="2.1"/>
<rect x="606.3" y="362.1" fill="#121F2A" width="8.3" height="2.1"/>
<rect x="589.5" y="362.1" fill="#121F2A" width="8.3" height="2.1"/>
<polygon fill="#121F2A" points="442.4,388.6 446.7,395.8 448.4,394.7 444.1,387.5 "/>
<polygon fill="#121F2A" points="456.6,409.3 452.4,401.9 450.7,403 454.9,410.2 "/>
<polygon fill="#121F2A" points="439.9,380.3 435.9,373.1 433.9,373.9 438.2,381.4 "/>
<polygon fill="#121F2A" points="549.7,380.3 551.4,381.4 555.6,373.9 553.9,373.1 "/>
<polygon fill="#121F2A" points="532.9,409.3 534.6,410.2 538.9,403 537.2,401.9 "/>
<polygon fill="#121F2A" points="559.9,359.3 558.2,360.4 559.7,363.1 558.2,365.7 559.9,366.7 561.4,364 564.5,364 564.5,362.1 
	561.4,362.1 "/>
<polygon fill="#121F2A" points="541.4,331.3 545.5,338.5 547.4,337.7 543.1,330.3 "/>
<polygon fill="#121F2A" points="549.7,346 553.9,353.2 555.6,352.1 551.4,344.9 "/>
<polygon fill="#121F2A" points="532.9,316.9 537.2,324.1 538.9,323.1 534.6,315.9 "/>
<polygon fill="#121F2A" points="343.4,394.7 345.1,395.8 345.3,395.8 349.4,388.6 347.7,387.5 "/>
<polygon fill="#121F2A" points="355.9,373.1 351.7,380.3 353.6,381.4 357.8,373.9 356.1,373.1 "/>
<polygon fill="#121F2A" points="339.2,402.1 339.2,401.9 334.9,409.3 336.9,410.2 341.1,403 339.4,401.9 "/>
<polygon fill="#121F2A" points="55.1,403 59.1,410.2 61.1,409.3 56.8,401.9 "/>
<polygon fill="#121F2A" points="38.4,373.9 42.4,381.4 44.3,380.3 40.1,373.1 "/>
<polygon fill="#121F2A" points="137.4,409.3 139.1,410.2 143.3,403 141.4,401.9 "/>
<polygon fill="#121F2A" points="158.1,373.1 153.9,380.3 154.1,380.3 155.8,381.4 160.1,373.9 159.6,373.9 "/>
<polygon fill="#121F2A" points="164.1,366.7 165.8,364 168.7,364 168.7,362.1 165.8,362.1 164.1,359.3 162.4,360.4 163.9,363.1 
	162.4,365.7 "/>
<polygon fill="#121F2A" points="145.6,331.3 149.7,338.5 149.9,338.5 151.6,337.7 147.3,330.3 "/>
<polygon fill="#121F2A" points="46.6,388.6 50.9,395.8 52.6,394.7 48.3,387.5 "/>
<polygon fill="#121F2A" points="39.9,258.8 38.2,259.7 42.4,266.9 44.3,266 40.1,258.8 "/>
<polygon fill="#121F2A" points="56.6,287.7 54.9,288.7 59.1,295.9 61.1,294.9 56.8,287.7 "/>
<polygon fill="#121F2A" points="55.1,323.1 56.8,324.1 61.1,316.9 59.1,315.9 "/>
<polygon fill="#121F2A" points="46.6,337.7 48.3,338.5 52.6,331.3 50.9,330.3 "/>
<polygon fill="#121F2A" points="38.4,352.1 40.1,353.2 44.3,346 42.4,344.9 "/>
<polygon fill="#121F2A" points="34.1,359.3 32.6,362.1 29.5,362.1 29.5,364 32.6,364 34.1,366.7 35.8,365.7 34.3,363.1 35.8,360.4 
	"/>
<rect y="362.1" fill="#121F2A" width="4.2" height="1.9"/>
<rect x="12.7" y="362.1" fill="#121F2A" width="8.3" height="1.9"/>
<polygon fill="#121F2A" points="254.6,402.1 254.6,401.9 252.9,403 257.1,410.2 258.8,409.3 254.8,401.9 "/>
<polygon fill="#121F2A" points="237.9,373.1 236.2,373.9 240.4,381.4 242.1,380.3 238.1,373.1 "/>
<polygon fill="#121F2A" points="244.4,388.6 248.7,395.8 248.9,395.8 250.6,394.7 246.3,387.5 "/>
<polygon fill="#121F2A" points="227.3,364 227.5,364 230.4,364 231.9,366.7 232.1,366.7 233.8,365.7 232.1,362.9 233.6,360.4 
	231.9,359.3 230.4,362.1 227.3,362.1 "/>
<polygon fill="#121F2A" points="145.6,394.7 147.3,395.8 151.6,388.6 149.9,387.5 "/>
<polygon fill="#121F2A" points="177,364 177.2,364 185.5,364 185.5,362.1 177,362.1 "/>
<polygon fill="#121F2A" points="202.2,364 202.2,362.1 193.8,362.1 193.8,364 194,364 "/>
<polygon fill="#121F2A" points="210.5,364 210.7,364 219,364 219,362.1 210.5,362.1 "/>
<polygon fill="#121F2A" points="559.9,138.2 561.6,135.5 564.5,135.5 564.5,133.5 561.6,133.5 559.9,130.8 558.2,131.8 559.7,134.6 
	558.2,137.1 "/>
<polygon fill="#121F2A" points="541.4,102.8 545.5,110 545.7,110 547.4,109 543.1,101.7 "/>
<polygon fill="#121F2A" points="551.4,116.4 549.7,117.2 553.9,124.6 555.8,123.6 551.6,116.4 "/>
<polygon fill="#121F2A" points="534.6,87.3 532.9,88.4 537.2,95.6 539.1,94.5 534.9,87.3 "/>
<polygon fill="#121F2A" points="626.2,135.5 627.7,138.2 627.9,138.2 629.6,137.1 627.9,134.4 629.6,131.8 627.7,130.8 626.2,133.5 
	623,133.5 623,135.5 623.3,135.5 "/>
<polygon fill="#121F2A" points="614.8,135.5 614.8,133.5 606.3,133.5 606.3,135.5 606.5,135.5 "/>
<polygon fill="#121F2A" points="598,133.5 589.5,133.5 589.5,135.5 589.8,135.5 598,135.5 "/>
<polygon fill="#121F2A" points="581.3,135.5 581.3,133.5 572.8,133.5 572.8,135.5 573,135.5 "/>
<polygon fill="#121F2A" points="646.1,102.8 644.5,101.7 640.2,109 642.1,110 "/>
<polygon fill="#121F2A" points="631.9,123.6 633.6,124.6 637.9,117.2 636.2,116.4 "/>
<polygon fill="#121F2A" points="648.7,94.5 650.4,95.6 654.6,88.4 652.9,87.3 "/>
<polygon fill="#121F2A" points="660.4,78.4 663.5,78.4 663.5,77.6 660.8,77.6 658.7,77.6 658.4,77.6 657,80.1 658.9,81 "/>
<rect x="705.3" y="77.6" fill="#121F2A" width="8.5" height="0.8"/>
<rect x="671.8" y="77.6" fill="#121F2A" width="8.5" height="0.8"/>
<rect x="688.5" y="77.6" fill="#121F2A" width="8.5" height="0.8"/>
<polygon fill="#121F2A" points="343.4,280.5 345.3,281.5 349.4,274.3 347.7,273.2 "/>
<polygon fill="#121F2A" points="450.9,288.7 454.9,295.9 456.8,294.9 452.6,287.7 "/>
<polygon fill="#121F2A" points="434.2,259.7 438.2,266.9 440.1,266 435.9,258.8 "/>
<polygon fill="#121F2A" points="450.7,323.1 452.4,324.1 452.6,324.1 456.8,316.9 454.9,315.9 "/>
<polygon fill="#121F2A" points="442.4,337.7 444.1,338.5 448.4,331.3 446.7,330.3 "/>
<polygon fill="#121F2A" points="433.9,352.1 435.9,353.2 440.1,346 438.2,344.9 "/>
<polygon fill="#121F2A" points="429.9,359.3 428.2,362.1 425.3,362.1 425.3,364 428.2,364 429.9,366.7 431.6,365.7 430.1,363.1 
	431.6,360.4 "/>
<rect x="391.8" y="362.1" fill="#121F2A" width="8.3" height="1.9"/>
<rect x="408.5" y="362.1" fill="#121F2A" width="8.3" height="1.9"/>
<polygon fill="#121F2A" points="375,364 383.3,364 383.5,364 383.5,362.1 375,362.1 "/>
<polygon fill="#121F2A" points="528.9,302.3 528.7,302.3 527.2,304.8 524.3,304.8 524,304.8 524,307 524.3,307 527.2,307 
	528.7,309.7 530.6,308.6 529.1,306.1 530.6,303.1 "/>
<polygon fill="#121F2A" points="549.7,266 551.4,266.9 551.6,266.9 555.8,259.7 553.9,258.8 "/>
<polygon fill="#121F2A" points="532.9,294.9 534.6,295.9 534.9,295.9 539.1,288.7 537.2,287.7 "/>
<polygon fill="#121F2A" points="545.5,273.2 541.4,280.5 543.1,281.5 547.4,274.3 545.7,273.2 "/>
<polygon fill="#121F2A" points="442.4,274.3 446.7,281.5 448.4,280.5 444.1,273.2 "/>
<polygon fill="#121F2A" points="460.9,302.3 459.2,303.1 460.7,305.9 459.2,308.6 460.9,309.7 462.6,307 465.5,307 465.5,304.8 
	462.6,304.8 "/>
<polygon fill="#121F2A" points="499,304.8 490.8,304.8 490.5,304.8 490.5,307 490.8,307 499,307 "/>
<polygon fill="#121F2A" points="515.8,304.8 507.5,304.8 507.3,304.8 507.3,307 507.5,307 515.8,307 "/>
<polygon fill="#121F2A" points="482.3,304.8 474,304.8 473.8,304.8 473.8,307 474,307 482.3,307 "/>
<polygon fill="#121F2A" points="335.2,202.7 339.4,209.9 341.1,208.8 336.9,201.6 "/>
<polygon fill="#121F2A" points="351.9,231.5 356.1,238.9 357.8,237.8 353.6,230.6 "/>
<polygon fill="#121F2A" points="343.4,217.1 347.7,224.3 349.4,223.4 345.3,216 "/>
<polygon fill="#121F2A" points="343.4,166.2 345.3,167.3 349.4,160 347.7,159 "/>
<polygon fill="#121F2A" points="434.2,145.4 438.2,152.6 440.1,151.8 435.9,144.4 "/>
<polygon fill="#121F2A" points="450.9,174.5 454.9,181.7 456.8,180.6 452.6,173.4 "/>
<polygon fill="#121F2A" points="460.9,188 459.2,188.9 460.7,191.6 459.2,194.4 460.9,195.4 462.6,192.7 465.5,192.7 465.5,190.6 
	462.6,190.6 "/>
<polygon fill="#121F2A" points="450.9,208.8 452.6,209.9 456.8,202.7 454.9,201.6 "/>
<polygon fill="#121F2A" points="434.2,237.8 435.9,238.9 440.1,231.5 438.2,230.6 "/>
<polygon fill="#121F2A" points="442.4,223.4 444.1,224.3 448.4,217.1 446.7,216 "/>
<polygon fill="#121F2A" points="429.9,245.1 428.4,247.8 425.3,247.8 425.3,249.7 428.4,249.7 429.9,252.5 431.6,251.4 430.1,248.9 
	431.6,246.1 "/>
<rect x="391.8" y="247.8" fill="#121F2A" width="8.3" height="1.9"/>
<rect x="375" y="247.8" fill="#121F2A" width="8.5" height="1.9"/>
<rect x="408.5" y="247.8" fill="#121F2A" width="8.3" height="1.9"/>
<polygon fill="#121F2A" points="533.2,180.6 534.9,181.7 539.1,174.5 537.2,173.4 "/>
<polygon fill="#121F2A" points="553.9,144.4 549.9,151.8 551.6,152.6 555.8,145.4 554.4,144.6 "/>
<polygon fill="#121F2A" points="527.2,78.4 528.7,81 528.9,81 530.6,80.1 529.1,77.6 528.9,77.6 526.8,77.6 524.3,77.6 524,77.6 
	524,78.4 524.3,78.4 "/>
<polygon fill="#121F2A" points="515.8,78.4 515.8,77.6 507.5,77.6 507.3,77.6 507.3,78.4 507.5,78.4 "/>
<polygon fill="#121F2A" points="499,78.4 499,77.6 490.8,77.6 490.5,77.6 490.5,78.4 490.8,78.4 "/>
<polygon fill="#121F2A" points="482.3,78.4 482.3,77.6 474,77.6 473.8,77.6 473.8,78.4 474,78.4 "/>
<polygon fill="#121F2A" points="462.6,78.4 465.5,78.4 465.5,77.6 463,77.6 461.9,77.6 461.5,77.6 460.9,77.6 460.7,77.6 
	459.2,80.1 460.9,81 "/>
<polygon fill="#121F2A" points="442.4,160 446.7,167.3 448.4,166.2 444.1,159 "/>
<rect x="490.8" y="190.6" fill="#121F2A" width="8.3" height="2.1"/>
<rect x="507.5" y="190.6" fill="#121F2A" width="8.3" height="2.1"/>
<rect x="474" y="190.6" fill="#121F2A" width="8.3" height="2.1"/>
<polygon fill="#121F2A" points="351.9,117.2 356.1,124.6 357.8,123.6 353.6,116.4 "/>
<polygon fill="#121F2A" points="343.4,102.8 347.7,110 349.4,109 345.3,101.7 "/>
<polygon fill="#121F2A" points="335.2,88.4 339.4,95.6 341.1,94.5 336.9,87.3 "/>
<polygon fill="#121F2A" points="450.9,94.5 452.6,95.6 456.8,88.4 454.9,87.3 "/>
<polygon fill="#121F2A" points="442.4,109 444.1,110 448.4,102.8 446.7,101.7 "/>
<polygon fill="#121F2A" points="434.2,123.6 435.9,124.6 440.1,117.2 438.2,116.4 "/>
<polygon fill="#121F2A" points="429.9,130.8 428.4,133.5 425.3,133.5 425.3,135.5 428.4,135.5 429.9,138.2 431.6,137.1 430.1,134.4 
	431.6,131.8 "/>
<rect x="375" y="133.5" fill="#121F2A" width="8.5" height="1.9"/>
<rect x="408.5" y="133.5" fill="#121F2A" width="8.3" height="1.9"/>
<rect x="391.8" y="133.5" fill="#121F2A" width="8.3" height="1.9"/>
<polygon fill="#121F2A" points="361.9,366.7 362.1,366.7 363.6,364 366.5,364 366.7,364 366.7,362.1 363.6,362.1 362.1,359.3 
	360.2,360.4 361.7,362.9 360.2,365.7 "/>
<polygon fill="#121F2A" points="159.8,352.1 155.8,344.9 155.6,344.9 153.9,346 158.1,353.2 "/>
<polygon fill="#121F2A" points="138.9,315.9 137.2,316.9 141.4,324.1 143.3,323.1 139.1,315.9 "/>
<polygon fill="#121F2A" points="145.6,280.5 147.3,281.5 151.6,274.3 149.7,273.2 "/>
<polygon fill="#121F2A" points="159.8,259.7 158.1,258.8 153.9,266 155.6,266.9 "/>
<polygon fill="#121F2A" points="143.1,288.7 141.4,287.7 137.2,294.9 138.9,295.9 "/>
<polygon fill="#121F2A" points="164.1,252.5 165.6,249.7 168.7,249.7 168.7,247.8 165.6,247.8 164.1,245.1 162.4,246.1 163.9,248.9 
	162.4,251.4 "/>
<polygon fill="#121F2A" points="263.1,302.3 261.2,303.1 262.9,305.9 261.2,308.6 263.1,309.7 264.6,307 267.7,307 267.7,304.8 
	264.6,304.8 "/>
<polygon fill="#121F2A" points="330.9,302.3 329.4,304.8 326.3,304.8 326.3,307 329.4,307 330.9,309.7 332.6,308.6 331.1,305.9 
	332.6,303.1 "/>
<polygon fill="#121F2A" points="351.9,266 353.6,266.9 357.8,259.7 356.1,258.8 "/>
<polygon fill="#121F2A" points="335.2,294.9 336.9,295.9 341.1,288.7 339.4,287.7 "/>
<polygon fill="#121F2A" points="362.1,252.5 363.6,249.7 366.7,249.7 366.7,247.8 363.6,247.8 362.1,245.1 360.2,246.1 361.9,248.9 
	360.2,251.4 "/>
<polygon fill="#121F2A" points="252.9,208.8 254.6,209.9 258.8,202.7 257.1,201.6 "/>
<polygon fill="#121F2A" points="236.2,237.8 237.9,238.9 242.1,231.5 240.4,230.6 "/>
<polygon fill="#121F2A" points="227.3,249.7 230.4,249.7 231.9,252.5 233.6,251.4 232.1,248.9 233.6,246.1 231.9,245.1 230.4,247.8 
	227.3,247.8 "/>
<polygon fill="#121F2A" points="250.4,280.5 246.3,273.2 244.4,274.3 248.7,281.5 "/>
<polygon fill="#121F2A" points="252.9,288.7 257.1,295.9 258.8,294.9 254.6,287.7 "/>
<polygon fill="#121F2A" points="236.2,259.7 240.4,266.9 242.1,266 237.9,258.8 "/>
<polygon fill="#121F2A" points="143.1,208.8 138.9,201.6 137.2,202.7 141.4,209.9 "/>
<polygon fill="#121F2A" points="159.8,237.8 155.6,230.6 153.9,231.5 158.1,238.9 "/>
<polygon fill="#121F2A" points="132.9,195.4 134.8,194.4 133.1,191.6 134.8,188.9 132.9,188 131.4,190.6 128.3,190.6 128.3,192.7 
	131.4,192.7 "/>
<polygon fill="#121F2A" points="145.6,166.2 147.3,167.3 151.6,160 149.7,159 "/>
<polygon fill="#121F2A" points="159.8,145.4 158.1,144.4 153.9,151.8 155.6,152.6 "/>
<polygon fill="#121F2A" points="143.1,174.5 141.4,173.4 137.2,180.6 138.9,181.7 "/>
<polygon fill="#121F2A" points="164.1,138.2 165.6,135.5 168.7,135.5 168.7,133.5 165.6,133.5 164.1,130.8 162.4,131.8 163.9,134.4 
	162.4,137.1 "/>
<polygon fill="#121F2A" points="263.1,195.4 264.6,192.7 267.7,192.7 267.7,190.6 264.6,190.6 263.1,188 261.2,188.9 262.9,191.6 
	261.2,194.4 "/>
<polygon fill="#121F2A" points="250.4,217.1 248.7,216 244.4,223.4 246.3,224.3 "/>
<rect x="210.5" y="247.8" fill="#121F2A" width="8.3" height="2.1"/>
<rect x="177" y="247.8" fill="#121F2A" width="8.3" height="2.1"/>
<rect x="193.8" y="247.8" fill="#121F2A" width="8.3" height="2.1"/>
<polygon fill="#121F2A" points="330.9,188 329.4,190.6 326.3,190.6 326.3,192.7 329.4,192.7 330.9,195.4 332.6,194.4 331.1,191.6 
	332.6,188.9 "/>
<polygon fill="#121F2A" points="335.2,180.6 336.9,181.7 341.1,174.5 339.4,173.4 "/>
<polygon fill="#121F2A" points="351.9,151.8 353.6,152.6 357.8,145.4 356.1,144.4 "/>
<polygon fill="#121F2A" points="362.1,138.2 363.6,135.5 366.7,135.5 366.7,133.5 363.6,133.5 362.1,130.8 360.2,131.8 361.9,134.4 
	360.2,137.1 "/>
<polygon fill="#121F2A" points="330.9,77.6 330.3,77.6 330.1,77.6 329,77.6 326.3,77.6 326.3,78.4 329.4,78.4 330.9,81 332.6,80.1 
	331.3,77.6 "/>
<rect x="276" y="77.6" fill="#121F2A" width="8.5" height="0.8"/>
<rect x="309.5" y="77.6" fill="#121F2A" width="8.5" height="0.8"/>
<rect x="292.8" y="77.6" fill="#121F2A" width="8.5" height="0.8"/>
<polygon fill="#121F2A" points="264.6,78.4 267.7,78.4 267.7,77.6 265,77.6 263.9,77.6 263.5,77.6 262.9,77.6 262.7,77.6 
	261.2,80.1 263.1,81 "/>
<polygon fill="#121F2A" points="236.2,123.6 237.9,124.6 242.1,117.2 240.4,116.4 "/>
<polygon fill="#121F2A" points="250.4,102.8 248.7,101.7 244.4,109 246.3,110 "/>
<polygon fill="#121F2A" points="252.9,94.5 254.6,95.6 258.8,88.4 257.1,87.3 "/>
<polygon fill="#121F2A" points="231.9,130.8 230.4,133.5 227.3,133.5 227.3,135.5 230.4,135.5 231.9,138.2 233.6,137.1 232.1,134.4 
	233.6,131.8 "/>
<polygon fill="#121F2A" points="252.9,174.5 257.1,181.7 258.8,180.6 254.6,173.4 "/>
<polygon fill="#121F2A" points="236.2,145.4 240.4,152.6 242.1,151.8 237.9,144.4 "/>
<polygon fill="#121F2A" points="250.4,166.2 246.3,159 244.4,160 248.7,167.3 "/>
<rect x="292.8" y="190.6" fill="#121F2A" width="8.3" height="2.1"/>
<rect x="276" y="190.6" fill="#121F2A" width="8.3" height="2.1"/>
<rect x="309.5" y="190.6" fill="#121F2A" width="8.3" height="2.1"/>
<polygon fill="#121F2A" points="143.1,94.5 138.9,87.3 137.2,88.4 141.4,95.6 "/>
<polygon fill="#121F2A" points="145.6,102.8 149.7,110 151.6,109 147.3,101.7 "/>
<polygon fill="#121F2A" points="159.8,123.6 155.6,116.4 153.9,117.2 158.1,124.6 "/>
<rect x="193.8" y="133.5" fill="#121F2A" width="8.3" height="2.1"/>
<rect x="210.5" y="133.5" fill="#121F2A" width="8.3" height="2.1"/>
<rect x="177" y="133.5" fill="#121F2A" width="8.3" height="2.1"/>
<polygon fill="#121F2A" points="131.4,307 132.9,309.7 133.1,309.5 133.1,309.7 134.8,308.6 133.1,305.9 134.8,303.1 132.9,302.3 
	131.4,304.8 128.5,304.8 128.3,304.8 128.3,307 128.5,307 "/>
<polygon fill="#121F2A" points="145.6,217.1 149.7,224.3 151.6,223.4 147.3,216 "/>
<polygon fill="#121F2A" points="65.1,195.4 66.6,192.7 69.7,192.7 69.7,190.6 66.6,190.6 65.1,188 63.4,188.9 64.4,191 64.9,191.6 
	63.4,194.4 "/>
<polygon fill="#121F2A" points="60.8,202.7 59.1,201.6 54.9,208.8 56.6,209.9 "/>
<polygon fill="#121F2A" points="44.1,231.7 44.1,231.5 42.4,230.6 38.2,237.8 39.9,238.9 "/>
<polygon fill="#121F2A" points="46.6,274.3 50.7,281.5 50.9,281.5 52.6,280.5 48.3,273.2 "/>
<polygon fill="#121F2A" points="65.1,309.7 66.8,307 69.7,307 69.7,304.8 66.8,304.8 65.1,302.3 63.4,303.1 64.9,306.1 63.4,308.6 
	"/>
<polygon fill="#121F2A" points="78,304.8 78,307 78.2,307 86.5,307 86.5,304.8 78.2,304.8 "/>
<polygon fill="#121F2A" points="111.5,307 111.7,307 120,307 120,304.8 111.7,304.8 111.5,304.8 "/>
<polygon fill="#121F2A" points="94.8,307 95,307 103.2,307 103.2,304.8 95,304.8 94.8,304.8 "/>
<polygon fill="#121F2A" points="60.8,180.6 56.6,173.4 54.9,174.5 59.1,181.7 "/>
<polygon fill="#121F2A" points="46.6,160 50.7,167.3 52.6,166.2 48.3,159 "/>
<polygon fill="#121F2A" points="44.1,151.8 39.9,144.4 38.2,145.4 42.4,152.6 "/>
<polygon fill="#121F2A" points="33.9,245.1 32.4,247.8 29.5,247.8 29.3,247.8 29.3,249.7 32.4,249.7 33.9,252.5 34.1,252.5 
	35.8,251.4 34.3,248.7 35.8,246.1 "/>
<rect x="78" y="190.6" fill="#121F2A" width="8.3" height="2.1"/>
<rect x="94.8" y="190.6" fill="#121F2A" width="8.3" height="2.1"/>
<rect x="111.5" y="190.6" fill="#121F2A" width="8.3" height="2.1"/>
<polygon fill="#121F2A" points="46.6,223.4 48.3,224.3 52.6,217.1 50.7,216 "/>
<rect y="247.8" fill="#121F2A" width="4.2" height="1.9"/>
<polygon fill="#121F2A" points="12.5,247.8 12.5,249.7 21,249.7 21,247.8 12.7,247.8 "/>
<polygon fill="#121F2A" points="541.4,217.1 545.7,224.3 547.4,223.4 543.1,216 "/>
<polygon fill="#121F2A" points="533.2,202.7 537.2,209.9 539.1,208.8 534.9,201.6 "/>
<polygon fill="#121F2A" points="549.9,231.5 553.9,238.9 555.8,237.8 551.6,230.6 "/>
<polygon fill="#121F2A" points="631.9,237.8 633.6,238.9 633.6,238.7 633.9,238.9 637.9,231.7 636.2,230.6 "/>
<polygon fill="#121F2A" points="648.7,208.8 650.4,209.9 650.6,209.9 654.6,202.7 652.9,201.6 "/>
<polygon fill="#121F2A" points="644.7,216.2 644.5,216 640.4,223.4 642.1,224.3 646.4,217.1 644.7,216 "/>
<polygon fill="#121F2A" points="633.6,144.6 633.6,144.4 631.9,145.4 636.2,152.6 637.9,151.8 633.9,144.4 "/>
<polygon fill="#121F2A" points="650.4,173.4 648.7,174.5 652.9,181.7 654.6,180.6 650.6,173.4 "/>
<polygon fill="#121F2A" points="640.2,160 644.5,167.3 644.7,167.3 646.4,166.2 642.1,159 "/>
<polygon fill="#121F2A" points="541.4,166.2 543.1,167.3 547.4,160 545.7,159 "/>
<polygon fill="#121F2A" points="528.9,188 527.2,190.6 524.3,190.6 524.3,192.7 527.2,192.7 528.9,195.4 530.6,194.4 529.1,191.6 
	530.6,188.9 "/>
<polygon fill="#121F2A" points="236.2,352.1 237.9,353.2 242.1,346 240.4,344.9 "/>
<polygon fill="#121F2A" points="252.9,323.1 254.6,324.1 258.8,316.9 257.1,315.9 "/>
<polygon fill="#121F2A" points="250.4,331.3 248.7,330.3 244.4,337.7 246.3,338.5 "/>
<rect x="276" y="304.8" fill="#121F2A" width="8.5" height="2.1"/>
<rect x="292.8" y="304.8" fill="#121F2A" width="8.5" height="2.1"/>
<rect x="309.5" y="304.8" fill="#121F2A" width="8.5" height="2.1"/>
<polygon fill="#121F2A" points="335.2,316.9 339.4,324.1 341.1,323.1 336.9,315.9 "/>
<polygon fill="#121F2A" points="343.4,331.3 347.7,338.5 349.4,337.7 345.3,330.3 "/>
<polygon fill="#121F2A" points="351.9,346 356.1,353.2 357.8,352.1 353.6,344.9 "/>
<polygon fill="#121F2A" points="50.7,101.7 46.6,109 48.3,110 52.6,102.8 50.9,101.7 "/>
<polygon fill="#121F2A" points="38.2,123.6 39.9,124.6 40.1,124.4 40.1,124.6 44.3,117.2 42.4,116.4 "/>
<polygon fill="#121F2A" points="54.9,94.5 56.6,95.6 56.8,95.6 61.1,88.4 59.1,87.3 "/>
<polygon fill="#121F2A" points="34.1,130.8 33.9,130.8 32.4,133.5 29.5,133.5 29.3,133.5 29.3,135.5 32.4,135.5 33.9,138.2 
	35.8,137.1 34.3,134.6 35.8,131.8 "/>
<polygon fill="#121F2A" points="12.5,135.5 21,135.5 21,133.5 12.7,133.5 12.5,133.5 "/>
<rect y="133.5" fill="#121F2A" width="4.2" height="1.9"/>
<polygon fill="#121F2A" points="131.4,78.4 132.9,81 134.8,80.1 133.3,77.6 133.1,77.6 132.1,77.6 131,77.6 128.5,77.6 128.3,77.6 
	128.3,78.4 128.5,78.4 "/>
<polygon fill="#121F2A" points="66.8,78.4 69.7,78.4 69.7,77.6 67.2,77.6 66.4,77.6 65.1,77.6 64.9,77.6 64.7,77.6 63.4,80.1 
	65.1,81 "/>
<polygon fill="#121F2A" points="120,78.4 120,77.6 111.7,77.6 111.5,77.6 111.5,78.4 111.7,78.4 "/>
<polygon fill="#121F2A" points="86.5,78.4 86.5,77.6 78.2,77.6 78,77.6 78,78.4 78.2,78.4 "/>
<polygon fill="#121F2A" points="103.2,78.4 103.2,77.6 95,77.6 94.8,77.6 94.8,78.4 95,78.4 "/>
<polygon fill="#121F2A" points="648.7,517.2 652.9,524.5 654.6,523.6 650.4,516.4 "/>
<polygon fill="#121F2A" points="631.9,488.2 636.2,495.6 637.9,494.6 633.6,487.4 "/>
<polygon fill="#121F2A" points="640.4,502.8 644.5,510 646.1,509 642.1,501.8 "/>
<polygon fill="#121F2A" points="658.9,530.8 657,531.9 658.7,534.4 661,534.4 663.5,534.4 663.5,533.6 660.4,533.6 "/>
<polygon fill="#121F2A" points="631.9,466.4 633.6,467.4 637.9,460.2 636.2,459.2 "/>
<polygon fill="#121F2A" points="648.7,437.3 650.4,438.4 654.6,431.2 652.9,430.1 "/>
<rect x="688.5" y="533.6" fill="#121F2A" width="8.5" height="0.8"/>
<rect x="671.8" y="533.6" fill="#121F2A" width="8.5" height="0.8"/>
<rect x="705.3" y="533.6" fill="#121F2A" width="8.5" height="0.8"/>
<polygon fill="#121F2A" points="658.9,424 660.4,421.2 663.5,421.2 663.5,419.3 660.4,419.3 658.9,416.6 657,417.6 658.7,420.2 
	657,422.9 "/>
<polygon fill="#121F2A" points="640.4,452 642.1,453 646.1,445.6 644.5,444.7 "/>
<polygon fill="#121F2A" points="627.7,473.6 626.2,476.3 623,476.3 623,478.5 626.2,478.5 627.7,481 629.6,480.2 627.9,477.4 
	629.6,474.6 "/>
<rect x="589.5" y="476.3" fill="#121F2A" width="8.3" height="2.1"/>
<rect x="606.3" y="476.3" fill="#121F2A" width="8.3" height="2.1"/>
<rect x="572.8" y="476.3" fill="#121F2A" width="8.3" height="2.1"/>
<rect x="671.8" y="419.3" fill="#121F2A" width="8.3" height="2.1"/>
<rect x="688.5" y="419.3" fill="#121F2A" width="8.3" height="2.1"/>
<rect x="705.3" y="419.3" fill="#121F2A" width="8.3" height="2.1"/>
<polygon fill="#121F2A" points="527.2,533.6 524.3,533.6 524,533.6 524,534.4 524.3,534.4 526.6,534.4 528.9,534.4 529.1,534.4 
	530.6,531.9 528.7,530.8 "/>
<polygon fill="#121F2A" points="532.9,523.6 534.6,524.5 538.9,517.2 537.2,516.4 "/>
<polygon fill="#121F2A" points="541.4,509 543.1,510 547.4,502.8 545.5,501.8 "/>
<polygon fill="#121F2A" points="549.7,494.6 551.4,495.6 555.6,488.2 553.9,487.4 "/>
<polygon fill="#121F2A" points="559.9,473.6 558.2,474.6 559.7,477.4 558.2,480.2 559.9,481 561.4,478.5 564.5,478.5 564.5,476.3 
	561.4,476.3 "/>
<polygon fill="#121F2A" points="532.9,431.2 537.2,438.4 538.9,437.3 534.6,430.1 "/>
<polygon fill="#121F2A" points="541.4,445.6 545.5,453 547.4,452 543.1,444.7 "/>
<polygon fill="#121F2A" points="549.7,460.2 553.9,467.4 555.6,466.4 551.4,459.2 "/>
<polygon fill="#121F2A" points="460.9,416.6 459.2,417.6 459.8,418.9 460.7,420.2 459.2,422.9 460.9,424 462.4,421.2 465.5,421.2 
	465.5,419.3 462.4,419.3 "/>
<polygon fill="#121F2A" points="456.6,431.2 454.9,430.1 450.7,437.3 452.4,438.4 "/>
<polygon fill="#121F2A" points="439.9,460.2 438.2,459.2 433.9,466.4 435.9,467.4 "/>
<polygon fill="#121F2A" points="429.9,473.6 428.2,476.3 425.3,476.3 425.3,478.5 428.2,478.5 429.9,481 431.6,480.2 430.1,477.2 
	431.6,474.6 "/>
<polygon fill="#121F2A" points="528.7,416.6 527.2,419.3 524,419.3 524,421.2 527.2,421.2 528.7,424 530.6,422.9 528.9,420.2 
	530.6,417.6 "/>
<rect x="507.3" y="419.3" fill="#121F2A" width="8.3" height="2.1"/>
<rect x="490.5" y="419.3" fill="#121F2A" width="8.3" height="2.1"/>
<rect x="473.8" y="419.3" fill="#121F2A" width="8.3" height="2.1"/>
<polygon fill="#121F2A" points="442.4,452 444.1,453 448.4,445.6 446.7,444.7 "/>
<polygon fill="#121F2A" points="345.1,444.7 343.4,445.6 347.7,453 349.4,452 345.3,444.7 "/>
<polygon fill="#121F2A" points="263.1,416.6 261.2,417.6 262.9,420.2 261.2,422.9 263.1,424 264.6,421.2 267.7,421.2 267.7,419.3 
	264.6,419.3 "/>
<polygon fill="#121F2A" points="334.9,431.2 339.2,438.4 339.4,438.4 341.1,437.3 336.9,430.1 "/>
<polygon fill="#121F2A" points="351.7,460.2 355.9,467.4 356.1,467.4 357.8,466.4 353.6,459.2 "/>
<polygon fill="#121F2A" points="351.9,494.6 353.6,495.6 357.8,488.2 356.1,487.4 "/>
<polygon fill="#121F2A" points="335.2,523.6 336.9,524.5 341.1,517.2 339.4,516.4 "/>
<polygon fill="#121F2A" points="343.4,509 345.3,510 349.4,502.8 347.7,501.8 "/>
<polygon fill="#121F2A" points="329.4,533.6 326.3,533.6 326.3,534.4 328.8,534.4 330.1,534.4 331.1,534.4 332.6,531.9 330.9,530.8 
	"/>
<rect x="309.5" y="419.3" fill="#121F2A" width="8.5" height="1.9"/>
<rect x="292.8" y="419.3" fill="#121F2A" width="8.5" height="1.9"/>
<rect x="276" y="419.3" fill="#121F2A" width="8.5" height="1.9"/>
<polygon fill="#121F2A" points="473.8,533.6 473.8,534.4 474,534.4 482.3,534.4 482.3,533.6 474,533.6 "/>
<polygon fill="#121F2A" points="490.5,533.6 490.5,534.4 490.8,534.4 499,534.4 499,533.6 490.8,533.6 "/>
<polygon fill="#121F2A" points="507.3,533.6 507.3,534.4 507.5,534.4 515.8,534.4 515.8,533.6 507.5,533.6 "/>
<polygon fill="#121F2A" points="460.9,530.8 459.2,531.9 460.7,534.4 460.7,534.6 460.9,534.4 461.9,534.4 463,534.4 465.5,534.4 
	465.5,533.6 462.6,533.6 "/>
<polygon fill="#121F2A" points="362.1,473.6 361.9,473.8 361.9,473.6 360.2,474.6 361.7,477.4 360.2,480.2 362.1,481 363.6,478.5 
	366.5,478.5 366.7,478.5 366.7,476.3 363.6,476.3 "/>
<polygon fill="#121F2A" points="383.5,478.5 383.5,476.3 375,476.3 375,478.5 383.3,478.5 "/>
<rect x="408.5" y="476.3" fill="#121F2A" width="8.3" height="2.1"/>
<rect x="391.8" y="476.3" fill="#121F2A" width="8.3" height="2.1"/>
<polygon fill="#121F2A" points="433.9,488.2 438.2,495.6 440.1,494.6 435.9,487.4 "/>
<polygon fill="#121F2A" points="442.4,502.8 446.7,510 448.4,509 444.1,501.8 "/>
<polygon fill="#121F2A" points="452.4,516.4 450.7,517.2 454.9,524.5 456.8,523.6 452.6,516.4 "/>
<rect x="235" y="490.5" transform="matrix(-0.5 -0.866 0.866 -0.5 -66.8592 944.3358)" fill="#121F2A" width="8.3" height="1.9"/>
<rect x="292.8" y="533.6" fill="#121F2A" width="8.5" height="0.8"/>
<rect x="276" y="533.6" fill="#121F2A" width="8.5" height="0.8"/>
<rect x="309.5" y="533.6" fill="#121F2A" width="8.5" height="0.8"/>
<polygon fill="#121F2A" points="263.1,530.8 261.2,531.9 262.9,534.4 263.9,534.4 265.2,534.4 267.7,534.4 267.7,533.6 264.6,533.6 
	"/>
<polygon fill="#121F2A" points="164.1,481 165.8,478.5 168.7,478.5 168.7,476.3 165.8,476.3 164.1,473.6 162.4,474.6 163.9,477.2 
	162.4,480.2 "/>
<polygon fill="#121F2A" points="231.9,473.6 230.4,476.3 227.3,476.3 227.3,478.5 230.4,478.5 231.9,481.4 233.6,480.4 233.5,480.2 
	233.6,480.2 232.1,477.4 233.6,474.6 "/>
<polygon fill="#121F2A" points="252.9,517.2 257.1,524.5 258.8,523.6 254.6,516.4 "/>
<path fill="#121F2A" d="M246.2,501.9L246.2,501.9L246.2,501.9L246.2,501.9l-1.8,1l4.2,7.2l0.2-0.1l0,0l1.4-0.8l-1.4,0.9l0.1,0.1
	l1.7-1.1l-4.2-7.2L246.2,501.9z M250.3,509l-3.6-6.2L250.3,509L250.3,509z"/>
<path fill="#121F2A" d="M198.4,498.4c-19.9,0-36,16.1-36,36h2.5c0-18.4,15.1-33.5,33.5-33.5c18.4,0,33.5,15.1,33.5,33.5h2.5
	C234.5,514.5,218.4,498.4,198.4,498.4z"/>
<polygon fill="#121F2A" points="38.4,488.2 42.4,495.6 44.3,494.6 40.1,487.4 "/>
<polygon fill="#121F2A" points="55.1,517.2 59.1,524.5 61.1,523.6 56.8,516.4 "/>
<polygon fill="#121F2A" points="46.6,502.8 50.9,510 52.6,509 48.3,501.8 "/>
<polygon fill="#121F2A" points="132.9,530.8 131.4,533.6 128.5,533.6 128.3,533.6 128.3,534.4 128.5,534.4 130.8,534.4 132.1,534.4 
	133.1,534.4 133.1,534.6 133.3,534.4 134.8,531.9 133.1,530.8 "/>
<polygon fill="#121F2A" points="153.9,494.6 155.6,495.6 155.6,495.4 155.8,495.6 159.8,488.2 158.1,487.4 "/>
<polygon fill="#121F2A" points="149.7,501.8 145.6,509 147.3,510 151.6,502.8 149.9,501.8 "/>
<polygon fill="#121F2A" points="137.2,523.6 138.9,524.5 139.1,524.5 143.3,517.2 141.4,516.4 "/>
<polygon fill="#121F2A" points="65.1,530.8 63.4,531.9 64.9,534.4 66.1,534.4 67.2,534.4 69.7,534.4 69.7,533.6 66.8,533.6 "/>
<polygon fill="#121F2A" points="94.8,533.6 94.8,534.4 95,534.4 103.2,534.4 103.2,533.6 95,533.6 "/>
<polygon fill="#121F2A" points="111.5,533.6 111.5,534.4 111.7,534.4 120,534.4 120,533.6 111.7,533.6 "/>
<polygon fill="#121F2A" points="78,533.6 78,534.4 78.2,534.4 86.5,534.4 86.5,533.6 78.2,533.6 "/>
<polygon fill="#121F2A" points="65.1,416.6 63.4,417.6 64.9,420.2 63.4,422.9 65.1,424 66.8,421.2 69.7,421.2 69.7,419.3 
	66.8,419.3 "/>
<polygon fill="#121F2A" points="55.1,437.3 56.8,438.4 61.1,431.2 59.1,430.1 "/>
<polygon fill="#121F2A" points="46.6,452 48.3,453 52.6,445.6 50.9,444.7 "/>
<polygon fill="#121F2A" points="38.4,466.4 40.1,467.4 44.3,460.2 42.4,459.2 "/>
<polygon fill="#121F2A" points="34.1,473.6 32.6,476.3 29.5,476.3 29.5,478.5 32.6,478.5 34.1,481 35.8,480.2 34.3,477.4 
	35.8,474.6 "/>
<rect x="12.7" y="476.3" fill="#121F2A" width="8.3" height="2.1"/>
<rect y="476.3" fill="#121F2A" width="4.2" height="2.1"/>
<rect x="111.7" y="419.3" fill="#121F2A" width="8.3" height="2.1"/>
<rect x="78.2" y="419.3" fill="#121F2A" width="8.3" height="2.1"/>
<rect x="95" y="419.3" fill="#121F2A" width="8.3" height="2.1"/>
<polygon fill="#121F2A" points="137.4,431.2 141.4,438.4 143.3,437.3 139.1,430.1 "/>
<polygon fill="#121F2A" points="153.9,460.2 158.1,467.4 160.1,466.4 155.8,459.2 "/>
<polygon fill="#121F2A" points="145.6,445.6 149.9,453 151.6,452 147.3,444.7 "/>
<polygon fill="#121F2A" points="248.7,444.7 244.4,452 246.3,453 250.6,445.6 248.9,444.7 "/>
<polygon fill="#121F2A" points="236.2,466.4 237.9,467.4 238.1,467.4 242.1,460.2 240.4,459.2 "/>
<polygon fill="#121F2A" points="252.9,437.3 254.6,438.4 254.8,438.4 258.8,431.2 257.1,430.1 "/>
<polygon fill="#121F2A" points="177,478.5 177.2,478.5 185.5,478.5 185.5,476.3 177,476.3 "/>
<polygon fill="#121F2A" points="193.8,478.5 194,478.5 202.2,478.5 202.2,476.3 193.8,476.3 "/>
<polygon fill="#121F2A" points="210.5,478.5 210.7,478.5 219,478.5 219,476.3 210.5,476.3 "/>
<polygon fill="#121F2A" points="133.3,416.8 133.1,416.6 131.4,419.3 128.5,419.3 128.5,421.2 131.4,421.2 133.1,424 134.8,422.9 
	133.3,420.2 134.8,417.6 "/>
<polygon fill="#121F2A" points="330.9,416.6 329.2,419.3 326.3,419.3 326.3,421.2 329.2,421.2 330.9,424 332.6,422.9 331.1,420.2 
	332.6,417.6 "/>
</svg>
